CantarellLegacy-Bold.ufo
<glyph name="exclam" format="2">
  <advance width="228"/>
  <unicode hex="0021"/>
  <outline>
    <contour>
      <point x="166.0" y="192.0" type="line"/>
      <point x="61.0" y="192.0" type="line"/>
      <point x="53.0" y="707.0" type="line"/>
      <point x="175.0" y="707.0" type="line"/>
    </contour>
    <contour>
      <point x="114.0" y="-10.0" type="curve" smooth="yes"/>
      <point x="74.0" y="-10.0"/>
      <point x="43.0" y="20.0"/>
      <point x="43.0" y="60.0" type="curve" smooth="yes"/>
      <point x="43.0" y="100.0"/>
      <point x="74.0" y="130.0"/>
      <point x="114.0" y="130.0" type="curve" smooth="yes"/>
      <point x="154.0" y="130.0"/>
      <point x="184.0" y="100.0"/>
      <point x="184.0" y="60.0" type="curve" smooth="yes"/>
      <point x="184.0" y="20.0"/>
      <point x="154.0" y="-10.0"/>
    </contour>
  </outline>
</glyph>
<glyph name="numbersign" format="2">
  <advance width="731"/>
  <unicode hex="0023"/>
  <outline>
    <contour>
      <point x="180.0" y="692.0" type="line"/>
      <point x="298.0" y="692.0" type="line"/>
      <point x="298.0" y="525.0" type="line"/>
      <point x="433.0" y="525.0" type="line"/>
      <point x="433.0" y="692.0" type="line"/>
      <point x="551.0" y="692.0" type="line"/>
      <point x="551.0" y="525.0" type="line"/>
      <point x="706.0" y="525.0" type="line"/>
      <point x="706.0" y="412.0" type="line"/>
      <point x="551.0" y="412.0" type="line"/>
      <point x="551.0" y="280.0" type="line"/>
      <point x="706.0" y="280.0" type="line"/>
      <point x="706.0" y="167.0" type="line"/>
      <point x="551.0" y="167.0" type="line"/>
      <point x="551.0" y="0.0" type="line"/>
      <point x="433.0" y="0.0" type="line"/>
      <point x="433.0" y="167.0" type="line"/>
      <point x="298.0" y="167.0" type="line"/>
      <point x="298.0" y="0.0" type="line"/>
      <point x="180.0" y="0.0" type="line"/>
      <point x="180.0" y="167.0" type="line"/>
      <point x="26.0" y="167.0" type="line"/>
      <point x="26.0" y="280.0" type="line"/>
      <point x="180.0" y="280.0" type="line"/>
      <point x="180.0" y="412.0" type="line"/>
      <point x="25.0" y="412.0" type="line"/>
      <point x="25.0" y="525.0" type="line"/>
      <point x="180.0" y="525.0" type="line"/>
    </contour>
    <contour>
      <point x="298.0" y="412.0" type="line"/>
      <point x="298.0" y="280.0" type="line"/>
      <point x="433.0" y="280.0" type="line"/>
      <point x="433.0" y="412.0" type="line"/>
    </contour>
  </outline>
</glyph>
<glyph name="dollar" format="2">
  <advance width="632"/>
  <unicode hex="0024"/>
  <outline>
    <contour>
      <point x="532.0" y="246.0" type="curve" smooth="yes"/>
      <point x="532.0" y="157.0"/>
      <point x="466.0" y="111.0"/>
      <point x="376.0" y="95.0" type="curve"/>
      <point x="376.0" y="-43.0" type="line"/>
      <point x="269.0" y="-43.0" type="line"/>
      <point x="269.0" y="90.0" type="line"/>
      <point x="212.0" y="95.0"/>
      <point x="155.0" y="110.0"/>
      <point x="100.0" y="135.0" type="curve"/>
      <point x="136.0" y="236.0" type="line"/>
      <point x="183.0" y="220.0"/>
      <point x="252.0" y="198.0"/>
      <point x="307.0" y="198.0" type="curve" smooth="yes"/>
      <point x="363.0" y="198.0"/>
      <point x="408.0" y="203.0"/>
      <point x="408.0" y="248.0" type="curve" smooth="yes"/>
      <point x="408.0" y="260.0"/>
      <point x="401.0" y="269.0"/>
      <point x="387.0" y="276.0" type="curve" smooth="yes"/>
      <point x="282.0" y="330.0"/>
      <point x="118.0" y="326.0"/>
      <point x="118.0" y="482.0" type="curve" smooth="yes"/>
      <point x="118.0" y="568.0"/>
      <point x="176.0" y="607.0"/>
      <point x="269.0" y="619.0" type="curve"/>
      <point x="269.0" y="730.0" type="line"/>
      <point x="376.0" y="730.0" type="line"/>
      <point x="376.0" y="620.0" type="line"/>
      <point x="417.0" y="616.0"/>
      <point x="460.0" y="606.0"/>
      <point x="506.0" y="593.0" type="curve"/>
      <point x="474.0" y="494.0" type="line"/>
      <point x="419.0" y="510.0"/>
      <point x="373.0" y="518.0"/>
      <point x="337.0" y="518.0" type="curve" smooth="yes"/>
      <point x="282.0" y="518.0"/>
      <point x="238.0" y="516.0"/>
      <point x="238.0" y="477.0" type="curve" smooth="yes"/>
      <point x="238.0" y="463.0"/>
      <point x="246.0" y="451.0"/>
      <point x="263.0" y="442.0" type="curve" smooth="yes"/>
      <point x="362.0" y="389.0"/>
      <point x="532.0" y="395.0"/>
    </contour>
  </outline>
</glyph>
<glyph name="ampersand" format="2">
  <advance width="750"/>
  <unicode hex="0026"/>
  <outline>
    <contour>
      <point x="311.0" y="706.0" type="curve" smooth="yes"/>
      <point x="441.0" y="706.0"/>
      <point x="507.0" y="617.0"/>
      <point x="507.0" y="534.0" type="curve" smooth="yes"/>
      <point x="507.0" y="450.0"/>
      <point x="433.0" y="419.0"/>
      <point x="375.0" y="374.0" type="curve"/>
      <point x="500.0" y="243.0" type="line"/>
      <point x="639.0" y="374.0" type="line"/>
      <point x="715.0" y="297.0" type="line"/>
      <point x="576.0" y="162.0" type="line"/>
      <point x="730.0" y="-0.0" type="line"/>
      <point x="571.0" y="0.0" type="line"/>
      <point x="491.0" y="83.0" type="line"/>
      <point x="442.0" y="37.0"/>
      <point x="381.0" y="-10.0"/>
      <point x="264.0" y="-10.0" type="curve" smooth="yes"/>
      <point x="145.0" y="-10.0"/>
      <point x="63.0" y="79.0"/>
      <point x="63.0" y="178.0" type="curve" smooth="yes"/>
      <point x="63.0" y="294.0"/>
      <point x="152.0" y="341.0"/>
      <point x="200.0" y="378.0" type="curve"/>
      <point x="158.0" y="420.0"/>
      <point x="116.0" y="465.0"/>
      <point x="116.0" y="534.0" type="curve" smooth="yes"/>
      <point x="116.0" y="636.0"/>
      <point x="197.0" y="706.0"/>
    </contour>
    <contour>
      <point x="383.0" y="534.0" type="curve" smooth="yes"/>
      <point x="383.0" y="565.0"/>
      <point x="350.0" y="587.0"/>
      <point x="311.0" y="587.0" type="curve" smooth="yes"/>
      <point x="266.0" y="587.0"/>
      <point x="244.0" y="564.0"/>
      <point x="244.0" y="534.0" type="curve" smooth="yes"/>
      <point x="244.0" y="507.0"/>
      <point x="267.0" y="482.0"/>
      <point x="299.0" y="449.0" type="curve"/>
      <point x="355.0" y="491.0"/>
      <point x="383.0" y="504.0"/>
    </contour>
    <contour>
      <point x="412.0" y="161.0" type="curve"/>
      <point x="280.0" y="297.0" type="line"/>
      <point x="229.0" y="256.0"/>
      <point x="187.0" y="229.0"/>
      <point x="187.0" y="178.0" type="curve" smooth="yes"/>
      <point x="187.0" y="135.0"/>
      <point x="210.0" y="101.0"/>
      <point x="264.0" y="101.0" type="curve" smooth="yes"/>
      <point x="319.0" y="101.0"/>
      <point x="377.0" y="129.0"/>
    </contour>
  </outline>
</glyph>
<glyph name="quotesingle" format="2">
  <advance width="174"/>
  <unicode hex="0027"/>
  <outline>
    <contour>
      <point x="31.0" y="638.0" type="line"/>
      <point x="31.0" y="642.0"/>
      <point x="30.0" y="645.0"/>
      <point x="30.0" y="649.0" type="curve" smooth="yes"/>
      <point x="30.0" y="683.0"/>
      <point x="51.0" y="706.0"/>
      <point x="87.0" y="706.0" type="curve" smooth="yes"/>
      <point x="123.0" y="706.0"/>
      <point x="144.0" y="683.0"/>
      <point x="144.0" y="649.0" type="curve" smooth="yes"/>
      <point x="144.0" y="645.0"/>
      <point x="143.0" y="642.0"/>
      <point x="143.0" y="638.0" type="curve"/>
      <point x="121.0" y="452.0" type="line"/>
      <point x="53.0" y="452.0" type="line"/>
    </contour>
  </outline>
</glyph>
<glyph name="parenleft" format="2">
  <advance width="334"/>
  <unicode hex="0028"/>
  <outline>
    <contour>
      <point x="227.0" y="730.0" type="curve"/>
      <point x="327.0" y="681.0" type="line"/>
      <point x="261.0" y="573.0"/>
      <point x="186.0" y="439.0"/>
      <point x="186.0" y="263.0" type="curve" smooth="yes"/>
      <point x="186.0" y="93.0"/>
      <point x="258.0" y="-60.0"/>
      <point x="327.0" y="-161.0" type="curve"/>
      <point x="230.0" y="-220.0" type="line"/>
      <point x="159.0" y="-111.0"/>
      <point x="63.0" y="67.0"/>
      <point x="63.0" y="263.0" type="curve" smooth="yes"/>
      <point x="63.0" y="458.0"/>
      <point x="160.0" y="618.0"/>
    </contour>
  </outline>
</glyph>
<glyph name="parenright" format="2">
  <advance width="334"/>
  <unicode hex="0029"/>
  <outline>
    <contour>
      <point x="272.0" y="263.0" type="curve" smooth="yes"/>
      <point x="272.0" y="64.0"/>
      <point x="174.0" y="-113.0"/>
      <point x="105.0" y="-220.0" type="curve"/>
      <point x="9.0" y="-161.0" type="line"/>
      <point x="75.0" y="-55.0"/>
      <point x="149.0" y="89.0"/>
      <point x="149.0" y="262.0" type="curve" smooth="yes"/>
      <point x="149.0" y="436.0"/>
      <point x="75.0" y="577.0"/>
      <point x="8.0" y="681.0" type="curve"/>
      <point x="108.0" y="730.0" type="line"/>
      <point x="179.0" y="622.0"/>
      <point x="272.0" y="456.0"/>
    </contour>
  </outline>
</glyph>
<glyph name="asterisk" format="2">
  <advance width="549"/>
  <unicode hex="002A"/>
  <outline>
    <contour>
      <point x="235.0" y="551.0" type="line"/>
      <point x="210.0" y="707.0" type="line"/>
      <point x="336.0" y="707.0" type="line"/>
      <point x="314.0" y="551.0" type="line"/>
      <point x="431.0" y="652.0" type="line"/>
      <point x="496.0" y="540.0" type="line"/>
      <point x="351.0" y="483.0" type="line"/>
      <point x="498.0" y="429.0" type="line"/>
      <point x="433.0" y="320.0" type="line"/>
      <point x="315.0" y="420.0" type="line"/>
      <point x="336.0" y="265.0" type="line"/>
      <point x="210.0" y="265.0" type="line"/>
      <point x="235.0" y="420.0" type="line"/>
      <point x="116.0" y="321.0" type="line"/>
      <point x="54.0" y="431.0" type="line"/>
      <point x="200.0" y="486.0" type="line"/>
      <point x="51.0" y="540.0" type="line"/>
      <point x="113.0" y="652.0" type="line"/>
    </contour>
  </outline>
</glyph>
<glyph name="plus" format="2">
  <advance width="727"/>
  <unicode hex="002B"/>
  <outline>
    <contour>
      <point x="308.0" y="622.0" type="line"/>
      <point x="420.0" y="622.0" type="line"/>
      <point x="420.0" y="375.0" type="line"/>
      <point x="665.0" y="375.0" type="line"/>
      <point x="665.0" y="268.0" type="line"/>
      <point x="420.0" y="268.0" type="line"/>
      <point x="420.0" y="21.0" type="line"/>
      <point x="308.0" y="21.0" type="line"/>
      <point x="308.0" y="268.0" type="line"/>
      <point x="63.0" y="268.0" type="line"/>
      <point x="63.0" y="375.0" type="line"/>
      <point x="308.0" y="375.0" type="line"/>
    </contour>
  </outline>
</glyph>
<glyph name="comma" format="2">
  <advance width="284"/>
  <unicode hex="002C"/>
  <outline>
    <contour>
      <point x="216.0" y="44.0" type="curve" smooth="yes"/>
      <point x="216.0" y="-34.0"/>
      <point x="152.0" y="-100.0"/>
      <point x="99.0" y="-153.0" type="curve"/>
      <point x="55.0" y="-124.0" type="line"/>
      <point x="116.0" y="-9.0" type="line"/>
      <point x="84.0" y="1.0"/>
      <point x="60.0" y="30.0"/>
      <point x="60.0" y="66.0" type="curve" smooth="yes"/>
      <point x="60.0" y="113.0"/>
      <point x="96.0" y="144.0"/>
      <point x="138.0" y="144.0" type="curve" smooth="yes"/>
      <point x="185.0" y="144.0"/>
      <point x="216.0" y="108.0"/>
    </contour>
  </outline>
</glyph>
<glyph name="hyphen" format="2">
  <advance width="400"/>
  <unicode hex="002D"/>
  <outline>
    <contour>
      <point x="50.0" y="375.0" type="line"/>
      <point x="350.0" y="375.0" type="line"/>
      <point x="350.0" y="268.0" type="line"/>
      <point x="50.0" y="268.0" type="line"/>
    </contour>
  </outline>
</glyph>
<glyph name="period" format="2">
  <advance width="284"/>
  <unicode hex="002E"/>
  <outline>
    <contour>
      <point x="137.0" y="-10.0" type="curve" smooth="yes"/>
      <point x="96.0" y="-10.0"/>
      <point x="60.0" y="26.0"/>
      <point x="60.0" y="67.0" type="curve" smooth="yes"/>
      <point x="60.0" y="108.0"/>
      <point x="96.0" y="144.0"/>
      <point x="137.0" y="144.0" type="curve" smooth="yes"/>
      <point x="178.0" y="144.0"/>
      <point x="214.0" y="108.0"/>
      <point x="214.0" y="67.0" type="curve" smooth="yes"/>
      <point x="214.0" y="26.0"/>
      <point x="178.0" y="-10.0"/>
    </contour>
  </outline>
</glyph>
<glyph name="slash" format="2">
  <advance width="410"/>
  <unicode hex="002F"/>
  <outline>
    <contour>
      <point x="275.0" y="692.0" type="line"/>
      <point x="401.0" y="692.0" type="line"/>
      <point x="145.0" y="-44.0" type="line"/>
      <point x="20.0" y="-44.0" type="line"/>
    </contour>
  </outline>
</glyph>
<glyph name="zero" format="2">
  <advance width="574"/>
  <unicode hex="0030"/>
  <outline>
    <contour>
      <point x="28.0" y="348.0" type="curve" smooth="yes"/>
      <point x="28.0" y="531.0"/>
      <point x="107.0" y="706.0"/>
      <point x="290.0" y="706.0" type="curve" smooth="yes"/>
      <point x="474.0" y="706.0"/>
      <point x="546.0" y="533.0"/>
      <point x="546.0" y="348.0" type="curve" smooth="yes"/>
      <point x="546.0" y="166.0"/>
      <point x="471.0" y="-10.0"/>
      <point x="290.0" y="-10.0" type="curve" smooth="yes"/>
      <point x="107.0" y="-10.0"/>
      <point x="28.0" y="165.0"/>
    </contour>
    <contour>
      <point x="153.0" y="348.0" type="curve" smooth="yes"/>
      <point x="153.0" y="213.0"/>
      <point x="192.0" y="103.0"/>
      <point x="288.0" y="103.0" type="curve" smooth="yes"/>
      <point x="384.0" y="103.0"/>
      <point x="423.0" y="213.0"/>
      <point x="423.0" y="348.0" type="curve" smooth="yes"/>
      <point x="423.0" y="483.0"/>
      <point x="384.0" y="593.0"/>
      <point x="288.0" y="593.0" type="curve" smooth="yes"/>
      <point x="192.0" y="593.0"/>
      <point x="153.0" y="483.0"/>
    </contour>
  </outline>
</glyph>
<glyph name="one" format="2">
  <advance width="574"/>
  <unicode hex="0031"/>
  <outline>
    <contour>
      <point x="379.0" y="113.0" type="line"/>
      <point x="546.0" y="113.0" type="line"/>
      <point x="546.0" y="0.0" type="line"/>
      <point x="71.0" y="0.0" type="line"/>
      <point x="71.0" y="113.0" type="line"/>
      <point x="256.0" y="113.0" type="line"/>
      <point x="256.0" y="575.0" type="line"/>
      <point x="93.0" y="503.0" type="line"/>
      <point x="54.0" y="601.0" type="line"/>
      <point x="259.0" y="692.0" type="line"/>
      <point x="379.0" y="692.0" type="line"/>
    </contour>
  </outline>
</glyph>
<glyph name="two" format="2">
  <advance width="574"/>
  <unicode hex="0032"/>
  <outline>
    <contour>
      <point x="53.0" y="635.0" type="line"/>
      <point x="121.0" y="675.0"/>
      <point x="176.0" y="706.0"/>
      <point x="285.0" y="706.0" type="curve" smooth="yes"/>
      <point x="416.0" y="706.0"/>
      <point x="518.0" y="624.0"/>
      <point x="518.0" y="498.0" type="curve" smooth="yes"/>
      <point x="518.0" y="404.0"/>
      <point x="468.0" y="334.0"/>
      <point x="256.0" y="107.0" type="curve"/>
      <point x="525.0" y="107.0" type="line"/>
      <point x="525.0" y="0.0" type="line"/>
      <point x="75.0" y="0.0" type="line"/>
      <point x="75.0" y="77.0" type="line"/>
      <point x="318.0" y="322.0"/>
      <point x="395.0" y="420.0"/>
      <point x="395.0" y="493.0" type="curve" smooth="yes"/>
      <point x="395.0" y="560.0"/>
      <point x="349.0" y="593.0"/>
      <point x="272.0" y="593.0" type="curve" smooth="yes"/>
      <point x="197.0" y="593.0"/>
      <point x="152.0" y="566.0"/>
      <point x="105.0" y="536.0" type="curve"/>
    </contour>
  </outline>
</glyph>
<glyph name="three" format="2">
  <advance width="574"/>
  <unicode hex="0033"/>
  <outline>
    <contour>
      <point x="263.0" y="706.0" type="curve" smooth="yes"/>
      <point x="393.0" y="706.0"/>
      <point x="495.0" y="645.0"/>
      <point x="495.0" y="518.0" type="curve" smooth="yes"/>
      <point x="495.0" y="456.0"/>
      <point x="459.0" y="408.0"/>
      <point x="416.0" y="377.0" type="curve"/>
      <point x="484.0" y="345.0"/>
      <point x="531.0" y="290.0"/>
      <point x="531.0" y="193.0" type="curve" smooth="yes"/>
      <point x="531.0" y="56.0"/>
      <point x="410.0" y="-10.0"/>
      <point x="270.0" y="-10.0" type="curve" smooth="yes"/>
      <point x="160.0" y="-10.0"/>
      <point x="101.0" y="15.0"/>
      <point x="20.0" y="49.0" type="curve"/>
      <point x="67.0" y="155.0" type="line"/>
      <point x="133.0" y="126.0"/>
      <point x="186.0" y="103.0"/>
      <point x="263.0" y="103.0" type="curve" smooth="yes"/>
      <point x="349.0" y="103.0"/>
      <point x="408.0" y="134.0"/>
      <point x="408.0" y="198.0" type="curve" smooth="yes"/>
      <point x="408.0" y="289.0"/>
      <point x="331.0" y="302.0"/>
      <point x="217.0" y="302.0" type="curve" smooth="yes"/>
      <point x="167.0" y="302.0" type="line"/>
      <point x="167.0" y="408.0" type="line"/>
      <point x="216.0" y="408.0" type="line" smooth="yes"/>
      <point x="343.0" y="408.0"/>
      <point x="372.0" y="448.0"/>
      <point x="372.0" y="506.0" type="curve" smooth="yes"/>
      <point x="372.0" y="578.0"/>
      <point x="320.0" y="593.0"/>
      <point x="263.0" y="593.0" type="curve" smooth="yes"/>
      <point x="196.0" y="593.0"/>
      <point x="151.0" y="573.0"/>
      <point x="100.0" y="546.0" type="curve"/>
      <point x="52.0" y="644.0" type="line"/>
      <point x="109.0" y="675.0"/>
      <point x="172.0" y="706.0"/>
    </contour>
  </outline>
</glyph>
<glyph name="four" format="2">
  <advance width="574"/>
  <unicode hex="0034"/>
  <outline>
    <contour>
      <point x="475.0" y="267.0" type="line"/>
      <point x="563.0" y="267.0" type="line"/>
      <point x="563.0" y="154.0" type="line"/>
      <point x="475.0" y="154.0" type="line"/>
      <point x="475.0" y="-2.0" type="line"/>
      <point x="352.0" y="-2.0" type="line"/>
      <point x="352.0" y="154.0" type="line"/>
      <point x="17.0" y="154.0" type="line"/>
      <point x="17.0" y="233.0" type="line"/>
      <point x="319.0" y="692.0" type="line"/>
      <point x="475.0" y="692.0" type="line"/>
    </contour>
    <contour>
      <point x="352.0" y="541.0" type="line"/>
      <point x="174.0" y="267.0" type="line"/>
      <point x="352.0" y="267.0" type="line"/>
    </contour>
  </outline>
</glyph>
<glyph name="five" format="2">
  <advance width="574"/>
  <unicode hex="0035"/>
  <outline>
    <contour>
      <point x="251.0" y="103.0" type="curve" smooth="yes"/>
      <point x="318.0" y="103.0"/>
      <point x="401.0" y="133.0"/>
      <point x="401.0" y="221.0" type="curve" smooth="yes"/>
      <point x="401.0" y="313.0"/>
      <point x="351.0" y="331.0"/>
      <point x="243.0" y="331.0" type="curve" smooth="yes"/>
      <point x="212.0" y="331.0"/>
      <point x="168.0" y="324.0"/>
      <point x="114.0" y="307.0" type="curve" smooth="yes"/>
      <point x="98.0" y="302.0" type="line"/>
      <point x="70.0" y="353.0" type="line"/>
      <point x="90.0" y="692.0" type="line"/>
      <point x="490.0" y="692.0" type="line"/>
      <point x="490.0" y="578.0" type="line"/>
      <point x="203.0" y="578.0" type="line"/>
      <point x="193.0" y="437.0" type="line"/>
      <point x="221.0" y="442.0"/>
      <point x="247.0" y="444.0"/>
      <point x="279.0" y="444.0" type="curve" smooth="yes"/>
      <point x="421.0" y="444.0"/>
      <point x="524.0" y="362.0"/>
      <point x="524.0" y="222.0" type="curve" smooth="yes"/>
      <point x="524.0" y="57.0"/>
      <point x="373.0" y="-10.0"/>
      <point x="253.0" y="-10.0" type="curve" smooth="yes"/>
      <point x="187.0" y="-10.0"/>
      <point x="117.0" y="5.0"/>
      <point x="64.0" y="23.0" type="curve" smooth="yes"/>
      <point x="45.0" y="29.0" type="line"/>
      <point x="81.0" y="138.0" type="line"/>
      <point x="100.0" y="132.0" type="line" smooth="yes"/>
      <point x="163.0" y="112.0"/>
      <point x="213.0" y="103.0"/>
    </contour>
  </outline>
</glyph>
<glyph name="six" format="2">
  <advance width="574"/>
  <unicode hex="0036"/>
  <outline>
    <contour>
      <point x="39.0" y="339.0" type="curve" smooth="yes"/>
      <point x="39.0" y="522.0"/>
      <point x="125.0" y="706.0"/>
      <point x="328.0" y="706.0" type="curve" smooth="yes"/>
      <point x="405.0" y="706.0"/>
      <point x="473.0" y="686.0"/>
      <point x="519.0" y="645.0" type="curve"/>
      <point x="454.0" y="553.0" type="line"/>
      <point x="424.0" y="581.0"/>
      <point x="383.0" y="593.0"/>
      <point x="335.0" y="593.0" type="curve" smooth="yes"/>
      <point x="220.0" y="593.0"/>
      <point x="162.0" y="489.0"/>
      <point x="162.0" y="382.0" type="curve"/>
      <point x="194.0" y="417.0"/>
      <point x="247.0" y="446.0"/>
      <point x="308.0" y="446.0" type="curve" smooth="yes"/>
      <point x="472.0" y="446.0"/>
      <point x="546.0" y="354.0"/>
      <point x="546.0" y="210.0" type="curve" smooth="yes"/>
      <point x="546.0" y="71.0"/>
      <point x="415.0" y="-10.0"/>
      <point x="297.0" y="-10.0" type="curve" smooth="yes"/>
      <point x="118.0" y="-10.0"/>
      <point x="39.0" y="153.0"/>
    </contour>
    <contour>
      <point x="162.0" y="264.0" type="curve"/>
      <point x="162.0" y="183.0"/>
      <point x="200.0" y="103.0"/>
      <point x="303.0" y="103.0" type="curve" smooth="yes"/>
      <point x="359.0" y="103.0"/>
      <point x="423.0" y="142.0"/>
      <point x="423.0" y="215.0" type="curve" smooth="yes"/>
      <point x="423.0" y="279.0"/>
      <point x="382.0" y="333.0"/>
      <point x="302.0" y="333.0" type="curve" smooth="yes"/>
      <point x="252.0" y="333.0"/>
      <point x="195.0" y="309.0"/>
    </contour>
  </outline>
</glyph>
<glyph name="seven" format="2">
  <advance width="574"/>
  <unicode hex="0037"/>
  <outline>
    <contour>
      <point x="533.0" y="613.0" type="line"/>
      <point x="273.0" y="0.0" type="line"/>
      <point x="147.0" y="0.0" type="line"/>
      <point x="389.0" y="585.0" type="line"/>
      <point x="41.0" y="585.0" type="line"/>
      <point x="41.0" y="692.0" type="line"/>
      <point x="533.0" y="692.0" type="line"/>
    </contour>
  </outline>
</glyph>
<glyph name="eight" format="2">
  <advance width="574"/>
  <unicode hex="0038"/>
  <outline>
    <contour>
      <point x="290.0" y="-10.0" type="curve" smooth="yes"/>
      <point x="156.0" y="-10.0"/>
      <point x="40.0" y="66.0"/>
      <point x="40.0" y="212.0" type="curve" smooth="yes"/>
      <point x="40.0" y="249.0"/>
      <point x="58.0" y="337.0"/>
      <point x="152.0" y="374.0" type="curve"/>
      <point x="254.0" y="325.0" type="line"/>
      <point x="189.0" y="300.0"/>
      <point x="163.0" y="254.0"/>
      <point x="163.0" y="218.0" type="curve" smooth="yes"/>
      <point x="163.0" y="146.0"/>
      <point x="220.0" y="103.0"/>
      <point x="290.0" y="103.0" type="curve" smooth="yes"/>
      <point x="357.0" y="103.0"/>
      <point x="411.0" y="140.0"/>
      <point x="411.0" y="205.0" type="curve" smooth="yes"/>
      <point x="411.0" y="323.0"/>
      <point x="66.0" y="270.0"/>
      <point x="66.0" y="518.0" type="curve" smooth="yes"/>
      <point x="66.0" y="635.0"/>
      <point x="172.0" y="706.0"/>
      <point x="279.0" y="706.0" type="curve" smooth="yes"/>
      <point x="387.0" y="706.0"/>
      <point x="498.0" y="642.0"/>
      <point x="498.0" y="506.0" type="curve" smooth="yes"/>
      <point x="498.0" y="455.0"/>
      <point x="456.0" y="390.0"/>
      <point x="406.0" y="361.0" type="curve"/>
      <point x="298.0" y="401.0" type="line"/>
      <point x="350.0" y="427.0"/>
      <point x="375.0" y="458.0"/>
      <point x="375.0" y="499.0" type="curve" smooth="yes"/>
      <point x="375.0" y="565.0"/>
      <point x="336.0" y="593.0"/>
      <point x="274.0" y="593.0" type="curve" smooth="yes"/>
      <point x="235.0" y="593.0"/>
      <point x="189.0" y="556.0"/>
      <point x="189.0" y="502.0" type="curve" smooth="yes"/>
      <point x="189.0" y="374.0"/>
      <point x="534.0" y="433.0"/>
      <point x="534.0" y="206.0" type="curve" smooth="yes"/>
      <point x="534.0" y="74.0"/>
      <point x="426.0" y="-10.0"/>
    </contour>
  </outline>
</glyph>
<glyph name="nine" format="2">
  <advance width="574"/>
  <unicode hex="0039"/>
  <outline>
    <contour>
      <point x="536.0" y="357.0" type="curve" smooth="yes"/>
      <point x="536.0" y="174.0"/>
      <point x="451.0" y="-10.0"/>
      <point x="250.0" y="-10.0" type="curve" smooth="yes"/>
      <point x="174.0" y="-10.0"/>
      <point x="107.0" y="27.0"/>
      <point x="65.0" y="68.0" type="curve"/>
      <point x="123.0" y="157.0" type="line"/>
      <point x="154.0" y="130.0"/>
      <point x="205.0" y="103.0"/>
      <point x="256.0" y="103.0" type="curve" smooth="yes"/>
      <point x="339.0" y="103.0"/>
      <point x="413.0" y="158.0"/>
      <point x="413.0" y="297.0" type="curve"/>
      <point x="369.0" y="263.0"/>
      <point x="313.0" y="250.0"/>
      <point x="267.0" y="250.0" type="curve" smooth="yes"/>
      <point x="140.0" y="250.0"/>
      <point x="30.0" y="349.0"/>
      <point x="30.0" y="482.0" type="curve" smooth="yes"/>
      <point x="30.0" y="621.0"/>
      <point x="143.0" y="706.0"/>
      <point x="281.0" y="706.0" type="curve" smooth="yes"/>
      <point x="458.0" y="706.0"/>
      <point x="536.0" y="542.0"/>
    </contour>
    <contour>
      <point x="413.0" y="414.0" type="curve"/>
      <point x="413.0" y="521.0"/>
      <point x="373.0" y="593.0"/>
      <point x="275.0" y="593.0" type="curve" smooth="yes"/>
      <point x="207.0" y="593.0"/>
      <point x="153.0" y="551.0"/>
      <point x="153.0" y="477.0" type="curve" smooth="yes"/>
      <point x="153.0" y="407.0"/>
      <point x="208.0" y="363.0"/>
      <point x="273.0" y="363.0" type="curve" smooth="yes"/>
      <point x="337.0" y="363.0"/>
      <point x="384.0" y="377.0"/>
    </contour>
  </outline>
</glyph>
<glyph name="less" format="2">
  <advance width="506"/>
  <unicode hex="003C"/>
  <outline>
    <contour>
      <point x="487.0" y="583.0" type="line"/>
      <point x="487.0" y="463.0" type="line"/>
      <point x="171.0" y="304.0" type="line"/>
      <point x="487.0" y="152.0" type="line"/>
      <point x="487.0" y="27.0" type="line"/>
      <point x="21.0" y="248.0" type="line"/>
      <point x="21.0" y="354.0" type="line"/>
    </contour>
  </outline>
</glyph>
<glyph name="equal" format="2">
  <advance width="634"/>
  <unicode hex="003D"/>
  <outline>
    <contour>
      <point x="63.0" y="265.0" type="line"/>
      <point x="572.0" y="265.0" type="line"/>
      <point x="572.0" y="151.0" type="line"/>
      <point x="63.0" y="151.0" type="line"/>
    </contour>
    <contour>
      <point x="63.0" y="486.0" type="line"/>
      <point x="572.0" y="486.0" type="line"/>
      <point x="572.0" y="373.0" type="line"/>
      <point x="63.0" y="373.0" type="line"/>
    </contour>
  </outline>
</glyph>
<glyph name="greater" format="2">
  <advance width="506"/>
  <unicode hex="003E"/>
  <outline>
    <contour>
      <point x="21.0" y="583.0" type="line"/>
      <point x="487.0" y="354.0" type="line"/>
      <point x="487.0" y="248.0" type="line"/>
      <point x="21.0" y="27.0" type="line"/>
      <point x="21.0" y="152.0" type="line"/>
      <point x="337.0" y="304.0" type="line"/>
      <point x="21.0" y="463.0" type="line"/>
    </contour>
  </outline>
</glyph>
<glyph name="question" format="2">
  <advance width="528"/>
  <unicode hex="003F"/>
  <outline>
    <contour>
      <point x="478.0" y="510.0" type="curve" smooth="yes"/>
      <point x="478.0" y="409.0"/>
      <point x="430.0" y="369.0"/>
      <point x="374.0" y="321.0" type="curve" smooth="yes"/>
      <point x="312.0" y="267.0"/>
      <point x="278.0" y="249.0"/>
      <point x="278.0" y="192.0" type="curve"/>
      <point x="154.0" y="192.0" type="line"/>
      <point x="154.0" y="329.0"/>
      <point x="259.0" y="340.0"/>
      <point x="336.0" y="442.0" type="curve" smooth="yes"/>
      <point x="349.0" y="460.0"/>
      <point x="355.0" y="481.0"/>
      <point x="355.0" y="506.0" type="curve" smooth="yes"/>
      <point x="355.0" y="567.0"/>
      <point x="303.0" y="592.0"/>
      <point x="234.0" y="592.0" type="curve" smooth="yes"/>
      <point x="183.0" y="592.0"/>
      <point x="128.0" y="577.0"/>
      <point x="70.0" y="545.0" type="curve"/>
      <point x="30.0" y="653.0" type="line"/>
      <point x="97.0" y="684.0"/>
      <point x="158.0" y="706.0"/>
      <point x="246.0" y="706.0" type="curve" smooth="yes"/>
      <point x="375.0" y="706.0"/>
      <point x="478.0" y="638.0"/>
    </contour>
    <contour>
      <point x="215.0" y="-10.0" type="curve" smooth="yes"/>
      <point x="176.0" y="-10.0"/>
      <point x="144.0" y="22.0"/>
      <point x="144.0" y="61.0" type="curve" smooth="yes"/>
      <point x="144.0" y="100.0"/>
      <point x="176.0" y="131.0"/>
      <point x="215.0" y="131.0" type="curve" smooth="yes"/>
      <point x="254.0" y="131.0"/>
      <point x="285.0" y="100.0"/>
      <point x="285.0" y="61.0" type="curve" smooth="yes"/>
      <point x="285.0" y="22.0"/>
      <point x="254.0" y="-10.0"/>
    </contour>
  </outline>
</glyph>
<glyph name="at" format="2">
  <advance width="996"/>
  <unicode hex="0040"/>
  <outline>
    <contour>
      <point x="483.0" y="-10.0" type="curve" smooth="yes"/>
      <point x="348.0" y="-10.0"/>
      <point x="255.0" y="93.0"/>
      <point x="255.0" y="230.0" type="curve" smooth="yes"/>
      <point x="255.0" y="388.0"/>
      <point x="353.0" y="492.0"/>
      <point x="508.0" y="492.0" type="curve" smooth="yes"/>
      <point x="547.0" y="492.0"/>
      <point x="588.0" y="486.0"/>
      <point x="632.0" y="460.0" type="curve"/>
      <point x="640.0" y="481.0" type="line"/>
      <point x="707.0" y="481.0" type="line"/>
      <point x="707.0" y="173.0" type="line" smooth="yes"/>
      <point x="707.0" y="111.0"/>
      <point x="725.0" y="80.0"/>
      <point x="761.0" y="80.0" type="curve" smooth="yes"/>
      <point x="826.0" y="80.0"/>
      <point x="845.0" y="183.0"/>
      <point x="845.0" y="261.0" type="curve" smooth="yes"/>
      <point x="845.0" y="482.0"/>
      <point x="733.0" y="603.0"/>
      <point x="517.0" y="603.0" type="curve" smooth="yes"/>
      <point x="450.0" y="603.0"/>
      <point x="389.0" y="587.0"/>
      <point x="334.0" y="556.0" type="curve" smooth="yes"/>
      <point x="237.0" y="500.0"/>
      <point x="157.0" y="394.0"/>
      <point x="157.0" y="250.0" type="curve" smooth="yes"/>
      <point x="157.0" y="40.0"/>
      <point x="284.0" y="-106.0"/>
      <point x="490.0" y="-106.0" type="curve" smooth="yes"/>
      <point x="548.0" y="-106.0"/>
      <point x="601.0" y="-97.0"/>
      <point x="650.0" y="-80.0" type="curve"/>
      <point x="650.0" y="-181.0" type="line"/>
      <point x="592.0" y="-199.0"/>
      <point x="530.0" y="-208.0"/>
      <point x="464.0" y="-208.0" type="curve" smooth="yes"/>
      <point x="390.0" y="-208.0"/>
      <point x="322.0" y="-190.0"/>
      <point x="257.0" y="-155.0" type="curve" smooth="yes"/>
      <point x="132.0" y="-86.0"/>
      <point x="43.0" y="53.0"/>
      <point x="43.0" y="245.0" type="curve" smooth="yes"/>
      <point x="43.0" y="336.0"/>
      <point x="64.0" y="417.0"/>
      <point x="108.0" y="488.0" type="curve" smooth="yes"/>
      <point x="184.0" y="609.0"/>
      <point x="327.0" y="706.0"/>
      <point x="512.0" y="706.0" type="curve" smooth="yes"/>
      <point x="801.0" y="706.0"/>
      <point x="953.0" y="549.0"/>
      <point x="953.0" y="262.0" type="curve" smooth="yes"/>
      <point x="953.0" y="123.0"/>
      <point x="887.0" y="-10.0"/>
      <point x="748.0" y="-10.0" type="curve" smooth="yes"/>
      <point x="692.0" y="-10.0"/>
      <point x="653.0" y="12.0"/>
      <point x="631.0" y="58.0" type="curve"/>
      <point x="591.0" y="12.0"/>
      <point x="541.0" y="-10.0"/>
    </contour>
    <contour>
      <point x="372.0" y="239.0" type="curve" smooth="yes"/>
      <point x="372.0" y="154.0"/>
      <point x="408.0" y="88.0"/>
      <point x="490.0" y="88.0" type="curve" smooth="yes"/>
      <point x="536.0" y="88.0"/>
      <point x="573.0" y="106.0"/>
      <point x="601.0" y="141.0" type="curve"/>
      <point x="601.0" y="384.0" type="line"/>
      <point x="573.0" y="397.0"/>
      <point x="541.0" y="403.0"/>
      <point x="506.0" y="403.0" type="curve" smooth="yes"/>
      <point x="414.0" y="403.0"/>
      <point x="372.0" y="335.0"/>
    </contour>
  </outline>
</glyph>
<glyph name="A" format="2">
  <advance width="658"/>
  <unicode hex="0041"/>
  <anchor x="325.0" y="692.0" name="horn"/>
  <anchor x="583.0" y="0.0" name="ogonek"/>
  <anchor x="327.0" y="0.0" name="below"/>
  <anchor x="325.0" y="692.0" name="above"/>
  <anchor x="329.0" y="0.0" name="cedilla"/>
  <outline>
    <contour>
      <point x="6.0" y="0.0" type="line"/>
      <point x="266.0" y="692.0" type="line"/>
      <point x="391.0" y="692.0" type="line"/>
      <point x="652.0" y="0.0" type="line"/>
      <point x="529.0" y="0.0" type="line"/>
      <point x="461.0" y="184.0" type="line"/>
      <point x="196.0" y="184.0" type="line"/>
      <point x="130.0" y="0.0" type="line"/>
    </contour>
    <contour>
      <point x="236.0" y="296.0" type="line"/>
      <point x="419.0" y="296.0" type="line"/>
      <point x="326.0" y="558.0" type="line"/>
    </contour>
  </outline>
</glyph>
<glyph name="B" format="2">
  <advance width="640"/>
  <unicode hex="0042"/>
  <anchor x="286.0" y="0.0" name="below"/>
  <anchor x="271.0" y="692.0" name="above"/>
  <anchor x="288.0" y="0.0" name="cedilla"/>
  <outline>
    <contour>
      <point x="549.0" y="511.0" type="curve" smooth="yes"/>
      <point x="549.0" y="451.0"/>
      <point x="522.0" y="396.0"/>
      <point x="461.0" y="371.0" type="curve"/>
      <point x="542.0" y="354.0"/>
      <point x="605.0" y="285.0"/>
      <point x="605.0" y="190.0" type="curve" smooth="yes"/>
      <point x="605.0" y="138.0"/>
      <point x="581.0" y="95.0"/>
      <point x="535.0" y="57.0" type="curve" smooth="yes"/>
      <point x="489.0" y="19.0"/>
      <point x="408.0" y="0.0"/>
      <point x="291.0" y="0.0" type="curve" smooth="yes"/>
      <point x="70.0" y="0.0" type="line"/>
      <point x="70.0" y="692.0" type="line"/>
      <point x="308.0" y="692.0" type="line" smooth="yes"/>
      <point x="453.0" y="692.0"/>
      <point x="549.0" y="631.0"/>
    </contour>
    <contour>
      <point x="285.0" y="579.0" type="curve" smooth="yes"/>
      <point x="193.0" y="579.0" type="line"/>
      <point x="193.0" y="422.0" type="line"/>
      <point x="285.0" y="422.0" type="line" smooth="yes"/>
      <point x="368.0" y="422.0"/>
      <point x="428.0" y="437.0"/>
      <point x="428.0" y="503.0" type="curve" smooth="yes"/>
      <point x="428.0" y="565.0"/>
      <point x="371.0" y="579.0"/>
    </contour>
    <contour>
      <point x="276.0" y="309.0" type="curve" smooth="yes"/>
      <point x="193.0" y="309.0" type="line"/>
      <point x="193.0" y="113.0" type="line"/>
      <point x="276.0" y="113.0" type="line" smooth="yes"/>
      <point x="383.0" y="113.0"/>
      <point x="481.0" y="119.0"/>
      <point x="481.0" y="213.0" type="curve" smooth="yes"/>
      <point x="481.0" y="295.0"/>
      <point x="383.0" y="309.0"/>
    </contour>
  </outline>
</glyph>
<glyph name="C" format="2">
  <advance width="671"/>
  <unicode hex="0043"/>
  <anchor x="550.0" y="634.0" name="horn"/>
  <anchor x="341.0" y="0.0" name="below"/>
  <anchor x="369.0" y="692.0" name="above"/>
  <anchor x="346.0" y="0.0" name="cedilla"/>
  <outline>
    <contour>
      <point x="40.0" y="352.0" type="curve" smooth="yes"/>
      <point x="40.0" y="567.0"/>
      <point x="177.0" y="706.0"/>
      <point x="397.0" y="706.0" type="curve" smooth="yes"/>
      <point x="471.0" y="706.0"/>
      <point x="558.0" y="693.0"/>
      <point x="628.0" y="649.0" type="curve"/>
      <point x="594.0" y="540.0" type="line"/>
      <point x="530.0" y="584.0"/>
      <point x="459.0" y="593.0"/>
      <point x="382.0" y="593.0" type="curve" smooth="yes"/>
      <point x="240.0" y="593.0"/>
      <point x="163.0" y="494.0"/>
      <point x="163.0" y="352.0" type="curve" smooth="yes"/>
      <point x="163.0" y="197.0"/>
      <point x="256.0" y="103.0"/>
      <point x="396.0" y="103.0" type="curve" smooth="yes"/>
      <point x="448.0" y="103.0"/>
      <point x="536.0" y="119.0"/>
      <point x="602.0" y="151.0" type="curve"/>
      <point x="636.0" y="42.0" type="line"/>
      <point x="553.0" y="9.0"/>
      <point x="456.0" y="-10.0"/>
      <point x="385.0" y="-10.0" type="curve" smooth="yes"/>
      <point x="177.0" y="-10.0"/>
      <point x="40.0" y="135.0"/>
    </contour>
  </outline>
</glyph>
<glyph name="D" format="2">
  <advance width="720"/>
  <unicode hex="0044"/>
  <anchor x="334.0" y="0.0" name="below"/>
  <anchor x="314.0" y="692.0" name="above"/>
  <anchor x="342.0" y="0.0" name="cedilla"/>
  <outline>
    <contour>
      <point x="680.0" y="371.0" type="curve" smooth="yes"/>
      <point x="680.0" y="180.0"/>
      <point x="587.0" y="59.0"/>
      <point x="427.0" y="14.0" type="curve"/>
      <point x="365.0" y="1.0"/>
      <point x="323.0" y="0.0"/>
      <point x="244.0" y="0.0" type="curve" smooth="yes"/>
      <point x="70.0" y="0.0" type="line"/>
      <point x="70.0" y="692.0" type="line"/>
      <point x="306.0" y="692.0" type="line" smooth="yes"/>
      <point x="534.0" y="692.0"/>
      <point x="680.0" y="583.0"/>
    </contour>
    <contour>
      <point x="309.0" y="579.0" type="curve" smooth="yes"/>
      <point x="193.0" y="579.0" type="line"/>
      <point x="193.0" y="113.0" type="line"/>
      <point x="276.0" y="113.0" type="line" smooth="yes"/>
      <point x="450.0" y="113.0"/>
      <point x="557.0" y="176.0"/>
      <point x="557.0" y="354.0" type="curve" smooth="yes"/>
      <point x="557.0" y="504.0"/>
      <point x="468.0" y="579.0"/>
    </contour>
  </outline>
</glyph>
<glyph name="E" format="2">
  <advance width="557"/>
  <unicode hex="0045"/>
  <anchor x="471.0" y="0.0" name="ogonek"/>
  <anchor x="302.0" y="0.0" name="below"/>
  <anchor x="298.0" y="692.0" name="above"/>
  <anchor x="304.0" y="0.0" name="cedilla"/>
  <outline>
    <contour>
      <point x="70.0" y="0.0" type="line"/>
      <point x="70.0" y="692.0" type="line"/>
      <point x="522.0" y="692.0" type="line"/>
      <point x="522.0" y="579.0" type="line"/>
      <point x="193.0" y="579.0" type="line"/>
      <point x="193.0" y="422.0" type="line"/>
      <point x="486.0" y="422.0" type="line"/>
      <point x="486.0" y="309.0" type="line"/>
      <point x="193.0" y="309.0" type="line"/>
      <point x="193.0" y="113.0" type="line"/>
      <point x="522.0" y="113.0" type="line"/>
      <point x="522.0" y="0.0" type="line"/>
    </contour>
  </outline>
</glyph>
<glyph name="F" format="2">
  <advance width="553"/>
  <unicode hex="0046"/>
  <anchor x="288.0" y="0.0" name="below"/>
  <anchor x="293.0" y="692.0" name="above"/>
  <anchor x="132.0" y="0.0" name="cedilla"/>
  <outline>
    <contour>
      <point x="193.0" y="579.0" type="line"/>
      <point x="193.0" y="376.0" type="line"/>
      <point x="478.0" y="376.0" type="line"/>
      <point x="478.0" y="263.0" type="line"/>
      <point x="193.0" y="263.0" type="line"/>
      <point x="193.0" y="0.0" type="line"/>
      <point x="70.0" y="0.0" type="line"/>
      <point x="70.0" y="692.0" type="line"/>
      <point x="518.0" y="692.0" type="line"/>
      <point x="518.0" y="579.0" type="line"/>
    </contour>
  </outline>
</glyph>
<glyph name="G" format="2">
  <advance width="735"/>
  <unicode hex="0047"/>
  <anchor x="550.0" y="634.0" name="horn"/>
  <anchor x="376.0" y="-3.0" name="below"/>
  <anchor x="384.0" y="-3.0" name="cedilla"/>
  <anchor x="369.0" y="692.0" name="above"/>
  <outline>
    <contour>
      <point x="40.0" y="350.0" type="curve" smooth="yes"/>
      <point x="40.0" y="564.0"/>
      <point x="162.0" y="706.0"/>
      <point x="406.0" y="706.0" type="curve" smooth="yes"/>
      <point x="490.0" y="706.0"/>
      <point x="580.0" y="687.0"/>
      <point x="646.0" y="647.0" type="curve"/>
      <point x="612.0" y="538.0" type="line"/>
      <point x="559.0" y="565.0"/>
      <point x="489.0" y="593.0"/>
      <point x="409.0" y="593.0" type="curve" smooth="yes"/>
      <point x="239.0" y="593.0"/>
      <point x="163.0" y="517.0"/>
      <point x="163.0" y="355.0" type="curve" smooth="yes"/>
      <point x="163.0" y="184.0"/>
      <point x="265.0" y="103.0"/>
      <point x="406.0" y="103.0" type="curve" smooth="yes"/>
      <point x="470.0" y="103.0"/>
      <point x="502.0" y="112.0"/>
      <point x="543.0" y="132.0" type="curve"/>
      <point x="543.0" y="278.0" type="line"/>
      <point x="361.0" y="278.0" type="line"/>
      <point x="361.0" y="391.0" type="line"/>
      <point x="666.0" y="391.0" type="line"/>
      <point x="666.0" y="73.0" type="line"/>
      <point x="599.0" y="20.0"/>
      <point x="507.0" y="-10.0"/>
      <point x="386.0" y="-10.0" type="curve" smooth="yes"/>
      <point x="179.0" y="-10.0"/>
      <point x="40.0" y="117.0"/>
    </contour>
  </outline>
</glyph>
<glyph name="H" format="2">
  <advance width="720"/>
  <unicode hex="0048"/>
  <anchor x="360.0" y="0.0" name="below"/>
  <anchor x="357.0" y="692.0" name="above"/>
  <anchor x="360.0" y="0.0" name="cedilla"/>
  <outline>
    <contour>
      <point x="527.0" y="692.0" type="line"/>
      <point x="650.0" y="692.0" type="line"/>
      <point x="650.0" y="0.0" type="line"/>
      <point x="527.0" y="0.0" type="line"/>
      <point x="527.0" y="309.0" type="line"/>
      <point x="193.0" y="309.0" type="line"/>
      <point x="193.0" y="0.0" type="line"/>
      <point x="70.0" y="0.0" type="line"/>
      <point x="70.0" y="692.0" type="line"/>
      <point x="193.0" y="692.0" type="line"/>
      <point x="193.0" y="422.0" type="line"/>
      <point x="527.0" y="422.0" type="line"/>
    </contour>
  </outline>
</glyph>
<glyph name="I" format="2">
  <advance width="263"/>
  <unicode hex="0049"/>
  <anchor x="140.0" y="0.0" name="ogonek"/>
  <anchor x="132.0" y="0.0" name="below"/>
  <anchor x="132.0" y="692.0" name="above"/>
  <anchor x="132.0" y="0.0" name="cedilla"/>
  <outline>
    <contour>
      <point x="70.0" y="692.0" type="line"/>
      <point x="193.0" y="692.0" type="line"/>
      <point x="193.0" y="0.0" type="line"/>
      <point x="70.0" y="0.0" type="line"/>
    </contour>
  </outline>
</glyph>
<glyph name="J" format="2">
  <advance width="460"/>
  <unicode hex="004A"/>
  <anchor x="202.0" y="0.0" name="below"/>
  <anchor x="323.0" y="692.0" name="above"/>
  <anchor x="142.0" y="0.0" name="cedilla"/>
  <outline>
    <contour>
      <point x="139.0" y="105.0" type="curve" smooth="yes"/>
      <point x="233.0" y="105.0"/>
      <point x="267.0" y="156.0"/>
      <point x="267.0" y="253.0" type="curve" smooth="yes"/>
      <point x="267.0" y="692.0" type="line"/>
      <point x="390.0" y="692.0" type="line"/>
      <point x="390.0" y="253.0" type="line" smooth="yes"/>
      <point x="390.0" y="82.0"/>
      <point x="322.0" y="-9.0"/>
      <point x="150.0" y="-9.0" type="curve" smooth="yes"/>
      <point x="101.0" y="-9.0"/>
      <point x="50.0" y="2.0"/>
      <point x="10.0" y="22.0" type="curve"/>
      <point x="44.0" y="131.0" type="line"/>
      <point x="74.0" y="117.0"/>
      <point x="112.0" y="105.0"/>
    </contour>
  </outline>
</glyph>
<glyph name="K" format="2">
  <advance width="643"/>
  <unicode hex="004B"/>
  <anchor x="320.0" y="0.0" name="below"/>
  <anchor x="319.0" y="692.0" name="above"/>
  <anchor x="320.0" y="0.0" name="cedilla"/>
  <outline>
    <contour>
      <point x="193.0" y="692.0" type="line"/>
      <point x="193.0" y="0.0" type="line"/>
      <point x="70.0" y="0.0" type="line"/>
      <point x="70.0" y="692.0" type="line"/>
    </contour>
    <contour>
      <point x="180.0" y="336.0" type="line"/>
      <point x="471.0" y="692.0" type="line"/>
      <point x="617.0" y="692.0" type="line"/>
      <point x="387.0" y="410.0" type="line"/>
      <point x="637.0" y="0.0" type="line"/>
      <point x="491.0" y="0.0" type="line"/>
      <point x="301.0" y="309.0" type="line"/>
      <point x="180.0" y="158.0" type="line"/>
    </contour>
  </outline>
</glyph>
<glyph name="L" format="2">
  <advance width="527"/>
  <unicode hex="004C"/>
  <anchor x="292.0" y="0.0" name="below"/>
  <anchor x="130.0" y="692.0" name="above"/>
  <anchor x="280.0" y="0.0" name="cedilla"/>
  <anchor x="370.0" y="634.0" name="aboveright"/>
  <outline>
    <contour>
      <point x="70.0" y="692.0" type="line"/>
      <point x="193.0" y="692.0" type="line"/>
      <point x="193.0" y="113.0" type="line"/>
      <point x="521.0" y="113.0" type="line"/>
      <point x="521.0" y="0.0" type="line"/>
      <point x="70.0" y="0.0" type="line"/>
    </contour>
  </outline>
</glyph>
<glyph name="M" format="2">
  <advance width="840"/>
  <unicode hex="004D"/>
  <anchor x="420.0" y="0.0" name="cedilla"/>
  <anchor x="424.0" y="0.0" name="below"/>
  <anchor x="419.0" y="692.0" name="above"/>
  <outline>
    <contour>
      <point x="70.0" y="692.0" type="line"/>
      <point x="234.0" y="692.0" type="line"/>
      <point x="421.0" y="314.0" type="line"/>
      <point x="612.0" y="692.0" type="line"/>
      <point x="770.0" y="692.0" type="line"/>
      <point x="770.0" y="0.0" type="line"/>
      <point x="647.0" y="0.0" type="line"/>
      <point x="647.0" y="543.0" type="line"/>
      <point x="471.0" y="178.0" type="line"/>
      <point x="367.0" y="178.0" type="line"/>
      <point x="193.0" y="543.0" type="line"/>
      <point x="193.0" y="0.0" type="line"/>
      <point x="70.0" y="0.0" type="line"/>
    </contour>
  </outline>
</glyph>
<glyph name="N" format="2">
  <advance width="746"/>
  <unicode hex="004E"/>
  <anchor x="374.0" y="0.0" name="below"/>
  <anchor x="374.0" y="692.0" name="above"/>
  <anchor x="374.0" y="0.0" name="cedilla"/>
  <outline>
    <contour>
      <point x="70.0" y="692.0" type="line"/>
      <point x="218.0" y="692.0" type="line"/>
      <point x="553.0" y="169.0" type="line"/>
      <point x="553.0" y="692.0" type="line"/>
      <point x="676.0" y="692.0" type="line"/>
      <point x="676.0" y="0.0" type="line"/>
      <point x="526.0" y="0.0" type="line"/>
      <point x="193.0" y="536.0" type="line"/>
      <point x="193.0" y="0.0" type="line"/>
      <point x="70.0" y="0.0" type="line"/>
    </contour>
  </outline>
</glyph>
<glyph name="O" format="2">
  <advance width="768"/>
  <unicode hex="004F"/>
  <anchor x="550.0" y="634.0" name="horn"/>
  <anchor x="376.0" y="-3.0" name="below"/>
  <anchor x="380.0" y="692.0" name="above"/>
  <anchor x="384.0" y="-3.0" name="cedilla"/>
  <outline>
    <contour>
      <point x="384.0" y="706.0" type="curve" smooth="yes"/>
      <point x="590.0" y="706.0"/>
      <point x="728.0" y="563.0"/>
      <point x="728.0" y="355.0" type="curve" smooth="yes"/>
      <point x="728.0" y="143.0"/>
      <point x="590.0" y="-10.0"/>
      <point x="380.0" y="-10.0" type="curve" smooth="yes"/>
      <point x="176.0" y="-10.0"/>
      <point x="40.0" y="138.0"/>
      <point x="40.0" y="348.0" type="curve" smooth="yes"/>
      <point x="40.0" y="557.0"/>
      <point x="178.0" y="706.0"/>
    </contour>
    <contour>
      <point x="379.0" y="593.0" type="curve" smooth="yes"/>
      <point x="242.0" y="593.0"/>
      <point x="163.0" y="497.0"/>
      <point x="163.0" y="356.0" type="curve" smooth="yes"/>
      <point x="163.0" y="212.0"/>
      <point x="248.0" y="103.0"/>
      <point x="388.0" y="103.0" type="curve" smooth="yes"/>
      <point x="527.0" y="103.0"/>
      <point x="605.0" y="204.0"/>
      <point x="605.0" y="348.0" type="curve" smooth="yes"/>
      <point x="605.0" y="492.0"/>
      <point x="518.0" y="593.0"/>
    </contour>
  </outline>
</glyph>
<glyph name="P" format="2">
  <advance width="591"/>
  <unicode hex="0050"/>
  <anchor x="255.0" y="0.0" name="below"/>
  <anchor x="247.0" y="692.0" name="above"/>
  <anchor x="96.0" y="0.0" name="cedilla"/>
  <outline>
    <contour>
      <point x="215.0" y="269.0" type="curve" smooth="yes"/>
      <point x="158.0" y="269.0" type="line"/>
      <point x="158.0" y="0.0" type="line"/>
      <point x="35.0" y="0.0" type="line"/>
      <point x="35.0" y="692.0" type="line"/>
      <point x="264.0" y="692.0" type="line" smooth="yes"/>
      <point x="455.0" y="692.0"/>
      <point x="551.0" y="624.0"/>
      <point x="551.0" y="487.0" type="curve" smooth="yes"/>
      <point x="551.0" y="306.0"/>
      <point x="400.0" y="269.0"/>
    </contour>
    <contour>
      <point x="425.0" y="482.0" type="curve" smooth="yes"/>
      <point x="425.0" y="567.0"/>
      <point x="343.0" y="579.0"/>
      <point x="251.0" y="579.0" type="curve" smooth="yes"/>
      <point x="158.0" y="579.0" type="line"/>
      <point x="158.0" y="382.0" type="line"/>
      <point x="220.0" y="382.0" type="line" smooth="yes"/>
      <point x="328.0" y="382.0"/>
      <point x="425.0" y="389.0"/>
    </contour>
  </outline>
</glyph>
<glyph name="Q" format="2">
  <advance width="790"/>
  <unicode hex="0051"/>
  <anchor x="392.0" y="-3.0" name="cedilla"/>
  <anchor x="387.0" y="692.0" name="above"/>
  <anchor x="392.0" y="-3.0" name="below"/>
  <outline>
    <contour>
      <point x="690.0" y="-36.0" type="line"/>
      <point x="409.0" y="222.0" type="line"/>
      <point x="483.0" y="301.0" type="line"/>
      <point x="761.0" y="37.0" type="line"/>
    </contour>
    <component base="O"/>
  </outline>
</glyph>
<glyph name="R" format="2">
  <advance width="612"/>
  <unicode hex="0052"/>
  <anchor x="131.0" y="0.0" name="cedilla"/>
  <anchor x="295.0" y="692.0" name="above"/>
  <anchor x="300.0" y="0.0" name="below"/>
  <outline>
    <contour>
      <point x="70.0" y="0.0" type="line"/>
      <point x="70.0" y="692.0" type="line"/>
      <point x="299.0" y="692.0" type="line" smooth="yes"/>
      <point x="491.0" y="692.0"/>
      <point x="586.0" y="624.0"/>
      <point x="586.0" y="487.0" type="curve" smooth="yes"/>
      <point x="586.0" y="389.0"/>
      <point x="534.0" y="322.0"/>
      <point x="431.0" y="289.0" type="curve"/>
      <point x="606.0" y="0.0" type="line"/>
      <point x="465.0" y="0.0" type="line"/>
      <point x="305.0" y="269.0" type="line"/>
      <point x="193.0" y="269.0" type="line"/>
      <point x="193.0" y="0.0" type="line"/>
    </contour>
    <contour>
      <point x="460.0" y="482.0" type="curve" smooth="yes"/>
      <point x="460.0" y="567.0"/>
      <point x="379.0" y="579.0"/>
      <point x="286.0" y="579.0" type="curve" smooth="yes"/>
      <point x="193.0" y="579.0" type="line"/>
      <point x="193.0" y="382.0" type="line"/>
      <point x="255.0" y="382.0" type="line" smooth="yes"/>
      <point x="363.0" y="382.0"/>
      <point x="460.0" y="389.0"/>
    </contour>
  </outline>
</glyph>
<glyph name="S" format="2">
  <advance width="622"/>
  <unicode hex="0053"/>
  <anchor x="369.0" y="0.0" name="cedilla"/>
  <anchor x="319.0" y="0.0" name="below"/>
  <anchor x="309.0" y="692.0" name="above"/>
  <outline>
    <contour>
      <point x="348.0" y="593.0" type="curve" smooth="yes"/>
      <point x="271.0" y="593.0"/>
      <point x="196.0" y="570.0"/>
      <point x="196.0" y="504.0" type="curve" smooth="yes"/>
      <point x="196.0" y="384.0"/>
      <point x="577.0" y="422.0"/>
      <point x="577.0" y="195.0" type="curve" smooth="yes"/>
      <point x="577.0" y="49.0"/>
      <point x="438.0" y="-10.0"/>
      <point x="276.0" y="-10.0" type="curve" smooth="yes"/>
      <point x="181.0" y="-10.0"/>
      <point x="117.0" y="7.0"/>
      <point x="45.0" y="42.0" type="curve"/>
      <point x="79.0" y="151.0" type="line"/>
      <point x="150.0" y="123.0"/>
      <point x="206.0" y="103.0"/>
      <point x="286.0" y="103.0" type="curve" smooth="yes"/>
      <point x="365.0" y="103.0"/>
      <point x="454.0" y="127.0"/>
      <point x="454.0" y="195.0" type="curve" smooth="yes"/>
      <point x="454.0" y="315.0"/>
      <point x="73.0" y="276.0"/>
      <point x="73.0" y="509.0" type="curve" smooth="yes"/>
      <point x="73.0" y="643.0"/>
      <point x="200.0" y="706.0"/>
      <point x="344.0" y="706.0" type="curve" smooth="yes"/>
      <point x="435.0" y="706.0"/>
      <point x="489.0" y="688.0"/>
      <point x="554.0" y="664.0" type="curve"/>
      <point x="523.0" y="555.0" type="line"/>
      <point x="466.0" y="579.0"/>
      <point x="419.0" y="593.0"/>
    </contour>
  </outline>
</glyph>
<glyph name="T" format="2">
  <advance width="591"/>
  <unicode hex="0054"/>
  <anchor x="296.0" y="0.0" name="below"/>
  <anchor x="294.0" y="692.0" name="above"/>
  <anchor x="296.0" y="0.0" name="cedilla"/>
  <outline>
    <contour>
      <point x="6.0" y="692.0" type="line"/>
      <point x="585.0" y="692.0" type="line"/>
      <point x="585.0" y="579.0" type="line"/>
      <point x="357.0" y="579.0" type="line"/>
      <point x="357.0" y="0.0" type="line"/>
      <point x="234.0" y="0.0" type="line"/>
      <point x="234.0" y="579.0" type="line"/>
      <point x="6.0" y="579.0" type="line"/>
    </contour>
  </outline>
</glyph>
<glyph name="U" format="2">
  <advance width="710"/>
  <unicode hex="0055"/>
  <anchor x="604.0" y="633.0" name="horn"/>
  <anchor x="540.0" y="0.0" name="ogonek"/>
  <anchor x="362.0" y="0.0" name="below"/>
  <anchor x="356.0" y="692.0" name="above"/>
  <anchor x="362.0" y="0.0" name="cedilla"/>
  <outline>
    <contour>
      <point x="354.0" y="-10.0" type="curve" smooth="yes"/>
      <point x="162.0" y="-10.0"/>
      <point x="69.0" y="85.0"/>
      <point x="69.0" y="284.0" type="curve" smooth="yes"/>
      <point x="69.0" y="692.0" type="line"/>
      <point x="192.0" y="692.0" type="line"/>
      <point x="192.0" y="290.0" type="line" smooth="yes"/>
      <point x="192.0" y="165.0"/>
      <point x="248.0" y="105.0"/>
      <point x="354.0" y="105.0" type="curve" smooth="yes"/>
      <point x="463.0" y="105.0"/>
      <point x="516.0" y="160.0"/>
      <point x="516.0" y="290.0" type="curve" smooth="yes"/>
      <point x="516.0" y="692.0" type="line"/>
      <point x="641.0" y="692.0" type="line"/>
      <point x="641.0" y="284.0" type="line" smooth="yes"/>
      <point x="641.0" y="84.0"/>
      <point x="548.0" y="-10.0"/>
    </contour>
  </outline>
</glyph>
<glyph name="V" format="2">
  <advance width="651"/>
  <unicode hex="0056"/>
  <anchor x="324.0" y="0.0" name="below"/>
  <anchor x="326.0" y="692.0" name="above"/>
  <anchor x="324.0" y="0.0" name="cedilla"/>
  <outline>
    <contour>
      <point x="6.0" y="692.0" type="line"/>
      <point x="145.0" y="692.0" type="line"/>
      <point x="337.0" y="132.0" type="line"/>
      <point x="512.0" y="692.0" type="line"/>
      <point x="645.0" y="692.0" type="line"/>
      <point x="405.0" y="0.0" type="line"/>
      <point x="259.0" y="0.0" type="line"/>
    </contour>
  </outline>
</glyph>
<glyph name="W" format="2">
  <advance width="1030"/>
  <unicode hex="0057"/>
  <anchor x="500.0" y="0.0" name="below"/>
  <anchor x="510.0" y="692.0" name="above"/>
  <anchor x="532.0" y="0.0" name="cedilla"/>
  <outline>
    <contour>
      <point x="6.0" y="692.0" type="line"/>
      <point x="136.0" y="692.0" type="line"/>
      <point x="276.0" y="161.0" type="line"/>
      <point x="443.0" y="692.0" type="line"/>
      <point x="584.0" y="692.0" type="line"/>
      <point x="719.0" y="161.0" type="line"/>
      <point x="894.0" y="692.0" type="line"/>
      <point x="1024.0" y="692.0" type="line"/>
      <point x="778.0" y="0.0" type="line"/>
      <point x="650.0" y="0.0" type="line"/>
      <point x="509.0" y="531.0" type="line"/>
      <point x="343.0" y="0.0" type="line"/>
      <point x="215.0" y="0.0" type="line"/>
    </contour>
  </outline>
</glyph>
<glyph name="X" format="2">
  <advance width="644"/>
  <unicode hex="0058"/>
  <anchor x="322.0" y="0.0" name="below"/>
  <anchor x="323.0" y="692.0" name="above"/>
  <anchor x="333.0" y="0.0" name="cedilla"/>
  <outline>
    <contour>
      <point x="322.0" y="463.0" type="line"/>
      <point x="479.0" y="692.0" type="line"/>
      <point x="618.0" y="692.0" type="line"/>
      <point x="392.0" y="361.0" type="line"/>
      <point x="638.0" y="0.0" type="line"/>
      <point x="497.0" y="0.0" type="line"/>
      <point x="322.0" y="258.0" type="line"/>
      <point x="147.0" y="0.0" type="line"/>
      <point x="6.0" y="0.0" type="line"/>
      <point x="252.0" y="361.0" type="line"/>
      <point x="26.0" y="692.0" type="line"/>
      <point x="165.0" y="692.0" type="line"/>
    </contour>
  </outline>
</glyph>
<glyph name="Y" format="2">
  <advance width="641"/>
  <unicode hex="0059"/>
  <anchor x="313.0" y="0.0" name="below"/>
  <anchor x="320.0" y="692.0" name="above"/>
  <anchor x="321.0" y="0.0" name="cedilla"/>
  <outline>
    <contour>
      <point x="6.0" y="692.0" type="line"/>
      <point x="144.0" y="692.0" type="line"/>
      <point x="319.0" y="425.0" type="line"/>
      <point x="496.0" y="692.0" type="line"/>
      <point x="635.0" y="692.0" type="line"/>
      <point x="376.0" y="314.0" type="line"/>
      <point x="376.0" y="0.0" type="line"/>
      <point x="253.0" y="0.0" type="line"/>
      <point x="253.0" y="314.0" type="line"/>
    </contour>
  </outline>
</glyph>
<glyph name="Z" format="2">
  <advance width="618"/>
  <unicode hex="005A"/>
  <anchor x="302.0" y="0.0" name="below"/>
  <anchor x="305.0" y="692.0" name="above"/>
  <anchor x="312.0" y="0.0" name="cedilla"/>
  <outline>
    <contour>
      <point x="59.0" y="692.0" type="line"/>
      <point x="570.0" y="692.0" type="line"/>
      <point x="570.0" y="617.0" type="line"/>
      <point x="210.0" y="113.0" type="line"/>
      <point x="573.0" y="113.0" type="line"/>
      <point x="573.0" y="0.0" type="line"/>
      <point x="35.0" y="0.0" type="line"/>
      <point x="35.0" y="76.0" type="line"/>
      <point x="386.0" y="579.0" type="line"/>
      <point x="59.0" y="579.0" type="line"/>
    </contour>
  </outline>
</glyph>
<glyph name="bracketleft" format="2">
  <advance width="364"/>
  <unicode hex="005B"/>
  <outline>
    <contour>
      <point x="80.0" y="730.0" type="line"/>
      <point x="344.0" y="730.0" type="line"/>
      <point x="344.0" y="617.0" type="line"/>
      <point x="203.0" y="617.0" type="line"/>
      <point x="203.0" y="-135.0" type="line"/>
      <point x="344.0" y="-135.0" type="line"/>
      <point x="344.0" y="-248.0" type="line"/>
      <point x="80.0" y="-248.0" type="line"/>
    </contour>
  </outline>
</glyph>
<glyph name="backslash" format="2">
  <advance width="410"/>
  <unicode hex="005C"/>
  <outline>
    <contour>
      <point x="10.0" y="686.0" type="line"/>
      <point x="135.0" y="686.0" type="line"/>
      <point x="391.0" y="-64.0" type="line"/>
      <point x="265.0" y="-64.0" type="line"/>
    </contour>
  </outline>
</glyph>
<glyph name="bracketright" format="2">
  <advance width="364"/>
  <unicode hex="005D"/>
  <outline>
    <contour>
      <point x="20.0" y="730.0" type="line"/>
      <point x="284.0" y="730.0" type="line"/>
      <point x="284.0" y="-248.0" type="line"/>
      <point x="20.0" y="-248.0" type="line"/>
      <point x="20.0" y="-135.0" type="line"/>
      <point x="161.0" y="-135.0" type="line"/>
      <point x="161.0" y="617.0" type="line"/>
      <point x="20.0" y="617.0" type="line"/>
    </contour>
  </outline>
</glyph>
<glyph name="asciicircum" format="2">
  <advance width="465"/>
  <unicode hex="005E"/>
  <outline>
    <contour>
      <point x="239.0" y="730.0" type="line"/>
      <point x="392.0" y="560.0" type="line"/>
      <point x="318.0" y="489.0" type="line"/>
      <point x="233.0" y="584.0" type="line"/>
      <point x="146.0" y="490.0" type="line"/>
      <point x="73.0" y="555.0" type="line"/>
    </contour>
  </outline>
</glyph>
<glyph name="underscore" format="2">
  <advance width="606"/>
  <unicode hex="005F"/>
  <outline>
    <contour>
      <point x="73.0" y="113.0" type="line"/>
      <point x="533.0" y="113.0" type="line"/>
      <point x="533.0" y="0.0" type="line"/>
      <point x="73.0" y="0.0" type="line"/>
    </contour>
  </outline>
</glyph>
<glyph name="a" format="2">
  <advance width="509"/>
  <unicode hex="0061"/>
  <anchor x="394.0" y="0.0" name="ogonek"/>
  <anchor x="250.0" y="0.0" name="below"/>
  <anchor x="238.0" y="481.0" name="above"/>
  <anchor x="275.0" y="0.0" name="cedilla"/>
  <outline>
    <contour>
      <point x="341.0" y="34.0" type="line"/>
      <point x="303.0" y="5.0"/>
      <point x="256.0" y="-10.0"/>
      <point x="199.0" y="-10.0" type="curve" smooth="yes"/>
      <point x="103.0" y="-10.0"/>
      <point x="26.0" y="42.0"/>
      <point x="26.0" y="134.0" type="curve" smooth="yes"/>
      <point x="26.0" y="281.0"/>
      <point x="180.0" y="295.0"/>
      <point x="328.0" y="295.0" type="curve"/>
      <point x="328.0" y="210.0" type="line"/>
      <point x="254.0" y="210.0"/>
      <point x="149.0" y="210.0"/>
      <point x="149.0" y="143.0" type="curve" smooth="yes"/>
      <point x="149.0" y="103.0"/>
      <point x="185.0" y="86.0"/>
      <point x="229.0" y="86.0" type="curve" smooth="yes"/>
      <point x="273.0" y="86.0"/>
      <point x="302.0" y="98.0"/>
      <point x="328.0" y="114.0" type="curve"/>
    </contour>
    <contour>
      <point x="355.0" y="0.0" type="line"/>
      <point x="328.0" y="59.0" type="line"/>
      <point x="328.0" y="295.0" type="line" smooth="yes"/>
      <point x="328.0" y="380.0"/>
      <point x="302.0" y="401.0"/>
      <point x="211.0" y="401.0" type="curve" smooth="yes"/>
      <point x="173.0" y="401.0"/>
      <point x="118.0" y="386.0"/>
      <point x="87.0" y="369.0" type="curve"/>
      <point x="63.0" y="461.0" type="line"/>
      <point x="87.0" y="477.0"/>
      <point x="167.0" y="492.0"/>
      <point x="230.0" y="492.0" type="curve" smooth="yes"/>
      <point x="380.0" y="492.0"/>
      <point x="451.0" y="436.0"/>
      <point x="451.0" y="297.0" type="curve" smooth="yes"/>
      <point x="451.0" y="0.0" type="line"/>
    </contour>
  </outline>
</glyph>
<glyph name="b" format="2">
  <advance width="579"/>
  <unicode hex="0062"/>
  <anchor x="275.0" y="0.0" name="below"/>
  <anchor x="120.0" y="718.0" name="above"/>
  <anchor x="291.0" y="0.0" name="cedilla"/>
  <outline>
    <contour>
      <point x="188.0" y="121.0" type="line"/>
      <point x="218.0" y="98.0"/>
      <point x="252.0" y="87.0"/>
      <point x="292.0" y="87.0" type="curve" smooth="yes"/>
      <point x="374.0" y="87.0"/>
      <point x="418.0" y="142.0"/>
      <point x="418.0" y="236.0" type="curve" smooth="yes"/>
      <point x="418.0" y="330.0"/>
      <point x="390.0" y="392.0"/>
      <point x="304.0" y="392.0" type="curve" smooth="yes"/>
      <point x="260.0" y="392.0"/>
      <point x="213.0" y="375.0"/>
      <point x="189.0" y="365.0" type="curve"/>
      <point x="164.0" y="443.0" type="line"/>
      <point x="211.0" y="472.0"/>
      <point x="266.0" y="492.0"/>
      <point x="334.0" y="492.0" type="curve" smooth="yes"/>
      <point x="482.0" y="492.0"/>
      <point x="541.0" y="389.0"/>
      <point x="541.0" y="243.0" type="curve" smooth="yes"/>
      <point x="541.0" y="97.0"/>
      <point x="456.0" y="-10.0"/>
      <point x="312.0" y="-10.0" type="curve" smooth="yes"/>
      <point x="260.0" y="-10.0"/>
      <point x="209.0" y="6.0"/>
      <point x="157.0" y="38.0" type="curve"/>
    </contour>
    <contour>
      <point x="143.0" y="0.0" type="line"/>
      <point x="66.0" y="0.0" type="line"/>
      <point x="66.0" y="718.0" type="line"/>
      <point x="189.0" y="718.0" type="line"/>
      <point x="189.0" y="61.0" type="line"/>
    </contour>
  </outline>
</glyph>
<glyph name="c" format="2">
  <advance width="505"/>
  <unicode hex="0063"/>
  <anchor x="267.0" y="2.0" name="below"/>
  <anchor x="253.0" y="482.0" name="above"/>
  <anchor x="271.0" y="2.0" name="cedilla"/>
  <outline>
    <contour>
      <point x="161.0" y="241.0" type="curve" smooth="yes"/>
      <point x="161.0" y="150.0"/>
      <point x="222.0" y="86.0"/>
      <point x="321.0" y="86.0" type="curve" smooth="yes"/>
      <point x="384.0" y="86.0"/>
      <point x="422.0" y="102.0"/>
      <point x="443.0" y="112.0" type="curve"/>
      <point x="467.0" y="20.0" type="line"/>
      <point x="450.0" y="12.0"/>
      <point x="388.0" y="-10.0"/>
      <point x="312.0" y="-10.0" type="curve" smooth="yes"/>
      <point x="147.0" y="-10.0"/>
      <point x="38.0" y="91.0"/>
      <point x="38.0" y="241.0" type="curve" smooth="yes"/>
      <point x="38.0" y="395.0"/>
      <point x="143.0" y="492.0"/>
      <point x="308.0" y="492.0" type="curve" smooth="yes"/>
      <point x="397.0" y="492.0"/>
      <point x="441.0" y="476.0"/>
      <point x="465.0" y="461.0" type="curve"/>
      <point x="441.0" y="369.0" type="line"/>
      <point x="419.0" y="381.0"/>
      <point x="384.0" y="396.0"/>
      <point x="321.0" y="396.0" type="curve" smooth="yes"/>
      <point x="216.0" y="396.0"/>
      <point x="161.0" y="334.0"/>
    </contour>
  </outline>
</glyph>
<glyph name="d" format="2">
  <advance width="579"/>
  <unicode hex="0064"/>
  <anchor x="275.0" y="0.0" name="below"/>
  <anchor x="453.0" y="718.0" name="above"/>
  <anchor x="259.0" y="0.0" name="cedilla"/>
  <anchor x="564.0" y="634.0" name="aboveright"/>
  <outline>
    <contour>
      <point x="391.0" y="121.0" type="curve"/>
      <point x="422.0" y="38.0" type="line"/>
      <point x="370.0" y="6.0"/>
      <point x="319.0" y="-10.0"/>
      <point x="267.0" y="-10.0" type="curve" smooth="yes"/>
      <point x="123.0" y="-10.0"/>
      <point x="38.0" y="97.0"/>
      <point x="38.0" y="243.0" type="curve" smooth="yes"/>
      <point x="38.0" y="389.0"/>
      <point x="103.0" y="492.0"/>
      <point x="265.0" y="492.0" type="curve" smooth="yes"/>
      <point x="325.0" y="492.0"/>
      <point x="374.0" y="477.0"/>
      <point x="415.0" y="443.0" type="curve"/>
      <point x="390.0" y="365.0" type="line"/>
      <point x="370.0" y="380.0"/>
      <point x="331.0" y="392.0"/>
      <point x="295.0" y="392.0" type="curve" smooth="yes"/>
      <point x="194.0" y="392.0"/>
      <point x="161.0" y="330.0"/>
      <point x="161.0" y="236.0" type="curve" smooth="yes"/>
      <point x="161.0" y="142.0"/>
      <point x="205.0" y="87.0"/>
      <point x="287.0" y="87.0" type="curve" smooth="yes"/>
      <point x="327.0" y="87.0"/>
      <point x="361.0" y="98.0"/>
    </contour>
    <contour>
      <point x="436.0" y="0.0" type="line"/>
      <point x="390.0" y="61.0" type="line"/>
      <point x="390.0" y="718.0" type="line"/>
      <point x="513.0" y="718.0" type="line"/>
      <point x="513.0" y="0.0" type="line"/>
    </contour>
  </outline>
</glyph>
<glyph name="e" format="2">
  <advance width="530"/>
  <unicode hex="0065"/>
  <anchor x="396.0" y="3.0" name="ogonek"/>
  <anchor x="269.0" y="0.0" name="below"/>
  <anchor x="264.0" y="481.0" name="above"/>
  <anchor x="259.0" y="-1.0" name="cedilla"/>
  <outline>
    <contour>
      <point x="312.0" y="87.0" type="curve" smooth="yes"/>
      <point x="365.0" y="87.0"/>
      <point x="413.0" y="95.0"/>
      <point x="457.0" y="112.0" type="curve"/>
      <point x="481.0" y="20.0" type="line"/>
      <point x="422.0" y="1.0"/>
      <point x="360.0" y="-10.0"/>
      <point x="296.0" y="-10.0" type="curve" smooth="yes"/>
      <point x="134.0" y="-10.0"/>
      <point x="38.0" y="85.0"/>
      <point x="38.0" y="241.0" type="curve" smooth="yes"/>
      <point x="38.0" y="380.0"/>
      <point x="131.0" y="492.0"/>
      <point x="274.0" y="492.0" type="curve" smooth="yes"/>
      <point x="418.0" y="492.0"/>
      <point x="492.0" y="404.0"/>
      <point x="492.0" y="247.0" type="curve" smooth="yes"/>
      <point x="492.0" y="200.0" type="line"/>
      <point x="159.0" y="200.0" type="line"/>
      <point x="159.0" y="285.0" type="line"/>
      <point x="369.0" y="285.0" type="line"/>
      <point x="369.0" y="362.0"/>
      <point x="336.0" y="397.0"/>
      <point x="276.0" y="397.0" type="curve" smooth="yes"/>
      <point x="173.0" y="397.0"/>
      <point x="161.0" y="313.0"/>
      <point x="161.0" y="239.0" type="curve" smooth="yes"/>
      <point x="161.0" y="161.0"/>
      <point x="170.0" y="87.0"/>
    </contour>
  </outline>
</glyph>
<glyph name="f" format="2">
  <advance width="424"/>
  <unicode hex="0066"/>
  <anchor x="161.0" y="0.0" name="below"/>
  <anchor x="261.0" y="718.0" name="above"/>
  <anchor x="159.0" y="-0.0" name="cedilla"/>
  <outline>
    <contour>
      <point x="100.0" y="535.0" type="line" smooth="yes"/>
      <point x="100.0" y="643.0"/>
      <point x="164.0" y="730.0"/>
      <point x="307.0" y="730.0" type="curve" smooth="yes"/>
      <point x="329.0" y="730.0"/>
      <point x="390.0" y="727.0"/>
      <point x="429.0" y="705.0" type="curve"/>
      <point x="405.0" y="613.0" type="line"/>
      <point x="383.0" y="625.0"/>
      <point x="358.0" y="633.0"/>
      <point x="316.0" y="633.0" type="curve" smooth="yes"/>
      <point x="249.0" y="633.0"/>
      <point x="223.0" y="596.0"/>
      <point x="223.0" y="529.0" type="curve" smooth="yes"/>
      <point x="223.0" y="481.0" type="line"/>
      <point x="401.0" y="481.0" type="line"/>
      <point x="401.0" y="385.0" type="line"/>
      <point x="223.0" y="385.0" type="line"/>
      <point x="223.0" y="0.0" type="line"/>
      <point x="100.0" y="0.0" type="line"/>
      <point x="100.0" y="385.0" type="line"/>
      <point x="20.0" y="385.0" type="line"/>
      <point x="20.0" y="481.0" type="line"/>
      <point x="100.0" y="481.0" type="line"/>
    </contour>
  </outline>
</glyph>
<glyph name="g" format="2">
  <advance width="574"/>
  <unicode hex="0067"/>
  <anchor x="298.0" y="-207.0" name="below"/>
  <anchor x="283.0" y="481.0" name="above"/>
  <anchor x="298.0" y="-207.0" name="cedilla"/>
  <outline>
    <contour>
      <point x="391.0" y="121.0" type="curve"/>
      <point x="422.0" y="38.0" type="line"/>
      <point x="370.0" y="6.0"/>
      <point x="319.0" y="-10.0"/>
      <point x="267.0" y="-10.0" type="curve" smooth="yes"/>
      <point x="123.0" y="-10.0"/>
      <point x="38.0" y="97.0"/>
      <point x="38.0" y="243.0" type="curve" smooth="yes"/>
      <point x="38.0" y="389.0"/>
      <point x="103.0" y="492.0"/>
      <point x="265.0" y="492.0" type="curve" smooth="yes"/>
      <point x="325.0" y="492.0"/>
      <point x="374.0" y="477.0"/>
      <point x="415.0" y="443.0" type="curve"/>
      <point x="391.0" y="365.0" type="line"/>
      <point x="371.0" y="380.0"/>
      <point x="331.0" y="392.0"/>
      <point x="295.0" y="392.0" type="curve" smooth="yes"/>
      <point x="194.0" y="392.0"/>
      <point x="161.0" y="330.0"/>
      <point x="161.0" y="236.0" type="curve" smooth="yes"/>
      <point x="161.0" y="142.0"/>
      <point x="205.0" y="87.0"/>
      <point x="287.0" y="87.0" type="curve" smooth="yes"/>
      <point x="327.0" y="87.0"/>
      <point x="361.0" y="98.0"/>
    </contour>
    <contour>
      <point x="429.0" y="482.0" type="line"/>
      <point x="514.0" y="482.0" type="line"/>
      <point x="514.0" y="-7.0" type="line" smooth="yes"/>
      <point x="514.0" y="-132.0"/>
      <point x="420.0" y="-210.0"/>
      <point x="250.0" y="-210.0" type="curve" smooth="yes"/>
      <point x="192.0" y="-210.0"/>
      <point x="134.0" y="-201.0"/>
      <point x="81.0" y="-179.0" type="curve" smooth="yes"/>
      <point x="62.0" y="-171.0" type="line"/>
      <point x="95.0" y="-82.0" type="line"/>
      <point x="115.0" y="-89.0" type="line" smooth="yes"/>
      <point x="162.0" y="-106.0"/>
      <point x="203.0" y="-114.0"/>
      <point x="237.0" y="-114.0" type="curve" smooth="yes"/>
      <point x="359.0" y="-114.0"/>
      <point x="391.0" y="-77.0"/>
      <point x="391.0" y="-1.0" type="curve" smooth="yes"/>
      <point x="391.0" y="378.0" type="line"/>
    </contour>
  </outline>
</glyph>
<glyph name="h" format="2">
  <advance width="576"/>
  <unicode hex="0068"/>
  <anchor x="294.0" y="0.0" name="below"/>
  <anchor x="129.0" y="718.0" name="above"/>
  <anchor x="319.0" y="0.0" name="cedilla"/>
  <outline>
    <contour>
      <point x="305.0" y="390.0" type="curve" smooth="yes"/>
      <point x="274.0" y="390.0"/>
      <point x="236.0" y="382.0"/>
      <point x="190.0" y="364.0" type="curve"/>
      <point x="190.0" y="0.0" type="line"/>
      <point x="67.0" y="0.0" type="line"/>
      <point x="67.0" y="718.0" type="line"/>
      <point x="190.0" y="718.0" type="line"/>
      <point x="190.0" y="460.0" type="line"/>
      <point x="241.0" y="481.0"/>
      <point x="290.0" y="492.0"/>
      <point x="337.0" y="492.0" type="curve" smooth="yes"/>
      <point x="477.0" y="492.0"/>
      <point x="514.0" y="408.0"/>
      <point x="514.0" y="277.0" type="curve" smooth="yes"/>
      <point x="514.0" y="0.0" type="line"/>
      <point x="391.0" y="0.0" type="line"/>
      <point x="391.0" y="293.0" type="line" smooth="yes"/>
      <point x="391.0" y="355.0"/>
      <point x="370.0" y="390.0"/>
    </contour>
  </outline>
</glyph>
<glyph name="k" format="2">
  <advance width="549"/>
  <unicode hex="006B"/>
  <anchor x="283.0" y="0.0" name="below"/>
  <anchor x="127.0" y="718.0" name="above"/>
  <anchor x="447.0" y="0.0" name="cedilla"/>
  <outline>
    <contour>
      <point x="190.0" y="718.0" type="line"/>
      <point x="190.0" y="0.0" type="line"/>
      <point x="67.0" y="0.0" type="line"/>
      <point x="67.0" y="718.0" type="line"/>
    </contour>
    <contour>
      <point x="177.0" y="242.0" type="line"/>
      <point x="389.0" y="481.0" type="line"/>
      <point x="532.0" y="481.0" type="line"/>
      <point x="362.0" y="285.0" type="line"/>
      <point x="543.0" y="0.0" type="line"/>
      <point x="400.0" y="0.0" type="line"/>
      <point x="281.0" y="196.0" type="line"/>
      <point x="177.0" y="82.0" type="line"/>
    </contour>
  </outline>
</glyph>
<glyph name="l" format="2">
  <advance width="288"/>
  <unicode hex="006C"/>
  <anchor x="159.0" y="0.0" name="below"/>
  <anchor x="297.0" y="634.0" name="aboveright"/>
  <anchor x="126.0" y="718.0" name="above"/>
  <outline>
    <contour>
      <point x="236.0" y="89.0" type="curve" smooth="yes"/>
      <point x="251.0" y="89.0"/>
      <point x="264.0" y="92.0"/>
      <point x="264.0" y="92.0" type="curve"/>
      <point x="288.0" y="0.0" type="line"/>
      <point x="288.0" y="0.0"/>
      <point x="255.0" y="-10.0"/>
      <point x="220.0" y="-10.0" type="curve" smooth="yes"/>
      <point x="93.0" y="-10.0"/>
      <point x="67.0" y="77.0"/>
      <point x="67.0" y="165.0" type="curve" smooth="yes"/>
      <point x="67.0" y="718.0" type="line"/>
      <point x="190.0" y="718.0" type="line"/>
      <point x="190.0" y="190.0" type="line" smooth="yes"/>
      <point x="190.0" y="128.0"/>
      <point x="197.0" y="89.0"/>
    </contour>
  </outline>
</glyph>
<glyph name="m" format="2">
  <advance width="858"/>
  <unicode hex="006D"/>
  <anchor x="429.0" y="0.0" name="below"/>
  <anchor x="434.0" y="482.0" name="above"/>
  <anchor x="429.0" y="0.0" name="cedilla"/>
  <outline>
    <contour>
      <point x="326.0" y="492.0" type="curve" smooth="yes"/>
      <point x="381.0" y="492.0"/>
      <point x="423.0" y="475.0"/>
      <point x="452.0" y="442.0" type="curve"/>
      <point x="518.0" y="475.0"/>
      <point x="578.0" y="492.0"/>
      <point x="630.0" y="492.0" type="curve" smooth="yes"/>
      <point x="765.0" y="492.0"/>
      <point x="796.0" y="406.0"/>
      <point x="796.0" y="277.0" type="curve" smooth="yes"/>
      <point x="796.0" y="0.0" type="line"/>
      <point x="673.0" y="0.0" type="line"/>
      <point x="673.0" y="292.0" type="line" smooth="yes"/>
      <point x="673.0" y="346.0"/>
      <point x="654.0" y="389.0"/>
      <point x="598.0" y="389.0" type="curve" smooth="yes"/>
      <point x="552.0" y="389.0"/>
      <point x="525.0" y="377.0"/>
      <point x="485.0" y="359.0" type="curve"/>
      <point x="491.0" y="331.0"/>
      <point x="494.0" y="301.0"/>
      <point x="494.0" y="272.0" type="curve" smooth="yes"/>
      <point x="494.0" y="0.0" type="line"/>
      <point x="371.0" y="0.0" type="line"/>
      <point x="371.0" y="292.0" type="line" smooth="yes"/>
      <point x="371.0" y="346.0"/>
      <point x="349.0" y="389.0"/>
      <point x="293.0" y="389.0" type="curve" smooth="yes"/>
      <point x="252.0" y="389.0"/>
      <point x="226.0" y="378.0"/>
      <point x="189.0" y="362.0" type="curve"/>
      <point x="189.0" y="0.0" type="line"/>
      <point x="66.0" y="0.0" type="line"/>
      <point x="66.0" y="481.0" type="line"/>
      <point x="152.0" y="481.0" type="line"/>
      <point x="170.0" y="450.0" type="line"/>
      <point x="212.0" y="464.0"/>
      <point x="263.0" y="492.0"/>
    </contour>
  </outline>
</glyph>
<glyph name="n" format="2">
  <advance width="575"/>
  <unicode hex="006E"/>
  <anchor x="285.0" y="0.0" name="below"/>
  <anchor x="288.0" y="482.0" name="above"/>
  <anchor x="288.0" y="0.0" name="cedilla"/>
  <outline>
    <contour>
      <point x="513.0" y="277.0" type="curve" smooth="yes"/>
      <point x="513.0" y="0.0" type="line"/>
      <point x="390.0" y="0.0" type="line"/>
      <point x="390.0" y="292.0" type="line" smooth="yes"/>
      <point x="390.0" y="350.0"/>
      <point x="364.0" y="392.0"/>
      <point x="304.0" y="392.0" type="curve" smooth="yes"/>
      <point x="276.0" y="392.0"/>
      <point x="238.0" y="383.0"/>
      <point x="189.0" y="365.0" type="curve"/>
      <point x="189.0" y="0.0" type="line"/>
      <point x="66.0" y="0.0" type="line"/>
      <point x="66.0" y="481.0" type="line"/>
      <point x="152.0" y="481.0" type="line"/>
      <point x="170.0" y="450.0" type="line"/>
      <point x="226.0" y="478.0"/>
      <point x="282.0" y="492.0"/>
      <point x="336.0" y="492.0" type="curve" smooth="yes"/>
      <point x="473.0" y="492.0"/>
      <point x="513.0" y="408.0"/>
    </contour>
  </outline>
</glyph>
<glyph name="o" format="2">
  <advance width="578"/>
  <unicode hex="006F"/>
  <anchor x="438.0" y="440.0" name="horn"/>
  <anchor x="288.0" y="0.0" name="below"/>
  <anchor x="282.0" y="482.0" name="above"/>
  <anchor x="288.0" y="-1.0" name="cedilla"/>
  <outline>
    <contour>
      <point x="288.0" y="-10.0" type="curve" smooth="yes"/>
      <point x="136.0" y="-10.0"/>
      <point x="38.0" y="91.0"/>
      <point x="38.0" y="241.0" type="curve" smooth="yes"/>
      <point x="38.0" y="394.0"/>
      <point x="136.0" y="492.0"/>
      <point x="290.0" y="492.0" type="curve" smooth="yes"/>
      <point x="442.0" y="492.0"/>
      <point x="540.0" y="393.0"/>
      <point x="540.0" y="243.0" type="curve" smooth="yes"/>
      <point x="540.0" y="92.0"/>
      <point x="440.0" y="-10.0"/>
    </contour>
    <contour>
      <point x="288.0" y="396.0" type="curve" smooth="yes"/>
      <point x="206.0" y="396.0"/>
      <point x="161.0" y="324.0"/>
      <point x="161.0" y="241.0" type="curve" smooth="yes"/>
      <point x="161.0" y="156.0"/>
      <point x="206.0" y="86.0"/>
      <point x="288.0" y="86.0" type="curve" smooth="yes"/>
      <point x="374.0" y="86.0"/>
      <point x="417.0" y="153.0"/>
      <point x="417.0" y="241.0" type="curve" smooth="yes"/>
      <point x="417.0" y="327.0"/>
      <point x="371.0" y="396.0"/>
    </contour>
  </outline>
</glyph>
<glyph name="p" format="2">
  <advance width="578"/>
  <unicode hex="0070"/>
  <anchor x="289.0" y="-200.0" name="below"/>
  <anchor x="281.0" y="482.0" name="above"/>
  <anchor x="303.0" y="-200.0" name="cedilla"/>
  <outline>
    <contour>
      <point x="187.0" y="121.0" type="line"/>
      <point x="217.0" y="98.0"/>
      <point x="251.0" y="87.0"/>
      <point x="291.0" y="87.0" type="curve" smooth="yes"/>
      <point x="373.0" y="87.0"/>
      <point x="417.0" y="142.0"/>
      <point x="417.0" y="236.0" type="curve" smooth="yes"/>
      <point x="417.0" y="330.0"/>
      <point x="389.0" y="392.0"/>
      <point x="303.0" y="392.0" type="curve" smooth="yes"/>
      <point x="259.0" y="392.0"/>
      <point x="212.0" y="375.0"/>
      <point x="188.0" y="365.0" type="curve"/>
      <point x="163.0" y="443.0" type="line"/>
      <point x="210.0" y="472.0"/>
      <point x="265.0" y="492.0"/>
      <point x="333.0" y="492.0" type="curve" smooth="yes"/>
      <point x="481.0" y="492.0"/>
      <point x="540.0" y="389.0"/>
      <point x="540.0" y="243.0" type="curve" smooth="yes"/>
      <point x="540.0" y="97.0"/>
      <point x="455.0" y="-10.0"/>
      <point x="311.0" y="-10.0" type="curve" smooth="yes"/>
      <point x="259.0" y="-10.0"/>
      <point x="208.0" y="6.0"/>
      <point x="156.0" y="38.0" type="curve"/>
    </contour>
    <contour>
      <point x="190.0" y="-198.0" type="line"/>
      <point x="67.0" y="-198.0" type="line"/>
      <point x="67.0" y="481.0" type="line"/>
      <point x="144.0" y="481.0" type="line"/>
      <point x="190.0" y="420.0" type="line"/>
    </contour>
  </outline>
</glyph>
<glyph name="q" format="2">
  <advance width="577"/>
  <unicode hex="0071"/>
  <anchor x="308.0" y="-200.0" name="below"/>
  <anchor x="303.0" y="482.0" name="above"/>
  <anchor x="299.0" y="-200.0" name="cedilla"/>
  <outline>
    <contour>
      <point x="391.0" y="121.0" type="curve"/>
      <point x="422.0" y="38.0" type="line"/>
      <point x="370.0" y="6.0"/>
      <point x="319.0" y="-10.0"/>
      <point x="267.0" y="-10.0" type="curve" smooth="yes"/>
      <point x="123.0" y="-10.0"/>
      <point x="38.0" y="97.0"/>
      <point x="38.0" y="243.0" type="curve" smooth="yes"/>
      <point x="38.0" y="389.0"/>
      <point x="103.0" y="492.0"/>
      <point x="265.0" y="492.0" type="curve" smooth="yes"/>
      <point x="325.0" y="492.0"/>
      <point x="374.0" y="472.0"/>
      <point x="415.0" y="443.0" type="curve"/>
      <point x="390.0" y="365.0" type="line"/>
      <point x="370.0" y="375.0"/>
      <point x="331.0" y="392.0"/>
      <point x="295.0" y="392.0" type="curve" smooth="yes"/>
      <point x="194.0" y="392.0"/>
      <point x="161.0" y="330.0"/>
      <point x="161.0" y="236.0" type="curve" smooth="yes"/>
      <point x="161.0" y="142.0"/>
      <point x="205.0" y="87.0"/>
      <point x="287.0" y="87.0" type="curve" smooth="yes"/>
      <point x="327.0" y="87.0"/>
      <point x="361.0" y="98.0"/>
    </contour>
    <contour>
      <point x="434.0" y="481.0" type="line"/>
      <point x="511.0" y="481.0" type="line"/>
      <point x="511.0" y="-198.0" type="line"/>
      <point x="388.0" y="-198.0" type="line"/>
      <point x="388.0" y="420.0" type="line"/>
    </contour>
  </outline>
</glyph>
<glyph name="r" format="2">
  <advance width="406"/>
  <unicode hex="0072"/>
  <anchor x="127.0" y="0.0" name="below"/>
  <anchor x="225.0" y="482.0" name="above"/>
  <anchor x="128.0" y="0.0" name="cedilla"/>
  <outline>
    <contour>
      <point x="66.0" y="481.0" type="line"/>
      <point x="152.0" y="481.0" type="line"/>
      <point x="167.0" y="430.0" type="line"/>
      <point x="212.0" y="471.0"/>
      <point x="260.0" y="492.0"/>
      <point x="311.0" y="492.0" type="curve" smooth="yes"/>
      <point x="342.0" y="492.0"/>
      <point x="372.0" y="486.0"/>
      <point x="400.0" y="473.0" type="curve"/>
      <point x="375.0" y="358.0" type="line"/>
      <point x="348.0" y="376.0"/>
      <point x="307.0" y="387.0"/>
      <point x="276.0" y="387.0" type="curve" smooth="yes"/>
      <point x="244.0" y="387.0"/>
      <point x="214.0" y="374.0"/>
      <point x="186.0" y="350.0" type="curve"/>
      <point x="186.0" y="0.0" type="line"/>
      <point x="66.0" y="0.0" type="line"/>
    </contour>
  </outline>
</glyph>
<glyph name="s" format="2">
  <advance width="468"/>
  <unicode hex="0073"/>
  <anchor x="215.0" y="0.0" name="cedilla"/>
  <anchor x="234.0" y="0.0" name="below"/>
  <anchor x="218.0" y="482.0" name="above"/>
  <outline>
    <contour>
      <point x="198.0" y="86.0" type="curve" smooth="yes"/>
      <point x="253.0" y="86.0"/>
      <point x="310.0" y="96.0"/>
      <point x="310.0" y="136.0" type="curve" smooth="yes"/>
      <point x="310.0" y="211.0"/>
      <point x="38.0" y="166.0"/>
      <point x="38.0" y="347.0" type="curve" smooth="yes"/>
      <point x="38.0" y="473.0"/>
      <point x="187.0" y="492.0"/>
      <point x="252.0" y="492.0" type="curve" smooth="yes"/>
      <point x="346.0" y="492.0"/>
      <point x="389.0" y="475.0"/>
      <point x="425.0" y="458.0" type="curve"/>
      <point x="397.0" y="364.0" type="line"/>
      <point x="364.0" y="380.0"/>
      <point x="330.0" y="396.0"/>
      <point x="254.0" y="396.0" type="curve" smooth="yes"/>
      <point x="211.0" y="396.0"/>
      <point x="161.0" y="378.0"/>
      <point x="161.0" y="342.0" type="curve" smooth="yes"/>
      <point x="161.0" y="270.0"/>
      <point x="433.0" y="310.0"/>
      <point x="433.0" y="129.0" type="curve" smooth="yes"/>
      <point x="433.0" y="34.0"/>
      <point x="353.0" y="-10.0"/>
      <point x="211.0" y="-10.0" type="curve" smooth="yes"/>
      <point x="126.0" y="-10.0"/>
      <point x="65.0" y="4.0"/>
      <point x="29.0" y="19.0" type="curve"/>
      <point x="50.0" y="112.0" type="line"/>
      <point x="82.0" y="100.0"/>
      <point x="129.0" y="86.0"/>
    </contour>
  </outline>
</glyph>
<glyph name="t" format="2">
  <advance width="438"/>
  <unicode hex="0074"/>
  <anchor x="241.0" y="0.0" name="below"/>
  <anchor x="159.0" y="632.0" name="above"/>
  <anchor x="258.0" y="0.0" name="cedilla"/>
  <anchor x="346.0" y="634.0" name="aboveright"/>
  <outline>
    <contour>
      <point x="411.0" y="17.0" type="line"/>
      <point x="377.0" y="4.0"/>
      <point x="320.0" y="-10.0"/>
      <point x="274.0" y="-10.0" type="curve" smooth="yes"/>
      <point x="121.0" y="-10.0"/>
      <point x="100.0" y="70.0"/>
      <point x="100.0" y="155.0" type="curve" smooth="yes"/>
      <point x="100.0" y="385.0" type="line"/>
      <point x="20.0" y="385.0" type="line"/>
      <point x="20.0" y="481.0" type="line"/>
      <point x="100.0" y="481.0" type="line"/>
      <point x="100.0" y="632.0" type="line"/>
      <point x="223.0" y="632.0" type="line"/>
      <point x="223.0" y="481.0" type="line"/>
      <point x="389.0" y="481.0" type="line"/>
      <point x="389.0" y="385.0" type="line"/>
      <point x="223.0" y="385.0" type="line"/>
      <point x="223.0" y="158.0" type="line" smooth="yes"/>
      <point x="223.0" y="121.0"/>
      <point x="238.0" y="88.0"/>
      <point x="304.0" y="88.0" type="curve" smooth="yes"/>
      <point x="338.0" y="88.0"/>
      <point x="375.0" y="97.0"/>
      <point x="393.0" y="102.0" type="curve"/>
    </contour>
  </outline>
</glyph>
<glyph name="u" format="2">
  <advance width="559"/>
  <unicode hex="0075"/>
  <anchor x="456.0" y="440.0" name="horn"/>
  <anchor x="439.0" y="0.0" name="ogonek"/>
  <anchor x="284.0" y="0.0" name="below"/>
  <anchor x="274.0" y="482.0" name="above"/>
  <anchor x="284.0" y="0.0" name="cedilla"/>
  <outline>
    <contour>
      <point x="239.0" y="-10.0" type="curve" smooth="yes"/>
      <point x="98.0" y="-10.0"/>
      <point x="62.0" y="78.0"/>
      <point x="62.0" y="211.0" type="curve" smooth="yes"/>
      <point x="62.0" y="481.0" type="line"/>
      <point x="185.0" y="481.0" type="line"/>
      <point x="185.0" y="194.0" type="line" smooth="yes"/>
      <point x="185.0" y="136.0"/>
      <point x="210.0" y="94.0"/>
      <point x="274.0" y="94.0" type="curve" smooth="yes"/>
      <point x="309.0" y="94.0"/>
      <point x="342.0" y="104.0"/>
      <point x="374.0" y="123.0" type="curve"/>
      <point x="374.0" y="481.0" type="line"/>
      <point x="497.0" y="481.0" type="line"/>
      <point x="497.0" y="0.0" type="line"/>
      <point x="413.0" y="0.0" type="line"/>
      <point x="394.0" y="35.0" type="line"/>
      <point x="341.0" y="7.0"/>
      <point x="308.0" y="-10.0"/>
    </contour>
  </outline>
</glyph>
<glyph name="v" format="2">
  <advance width="500"/>
  <unicode hex="0076"/>
  <anchor x="254.0" y="0.0" name="below"/>
  <anchor x="254.0" y="482.0" name="above"/>
  <anchor x="254.0" y="0.0" name="cedilla"/>
  <outline>
    <contour>
      <point x="494.0" y="481.0" type="line"/>
      <point x="314.0" y="0.0" type="line"/>
      <point x="191.0" y="0.0" type="line"/>
      <point x="6.0" y="481.0" type="line"/>
      <point x="140.0" y="481.0" type="line"/>
      <point x="255.0" y="127.0" type="line"/>
      <point x="368.0" y="481.0" type="line"/>
    </contour>
  </outline>
</glyph>
<glyph name="w" format="2">
  <advance width="812"/>
  <unicode hex="0077"/>
  <anchor x="408.0" y="-1.0" name="below"/>
  <anchor x="408.0" y="482.0" name="above"/>
  <anchor x="408.0" y="-1.0" name="cedilla"/>
  <outline>
    <contour>
      <point x="236.0" y="125.0" type="line"/>
      <point x="340.0" y="481.0" type="line"/>
      <point x="474.0" y="481.0" type="line"/>
      <point x="577.0" y="125.0" type="line"/>
      <point x="677.0" y="481.0" type="line"/>
      <point x="806.0" y="481.0" type="line"/>
      <point x="631.0" y="0.0" type="line"/>
      <point x="516.0" y="0.0" type="line"/>
      <point x="408.0" y="337.0" type="line"/>
      <point x="297.0" y="0.0" type="line"/>
      <point x="180.0" y="0.0" type="line"/>
      <point x="6.0" y="481.0" type="line"/>
      <point x="136.0" y="481.0" type="line"/>
    </contour>
  </outline>
</glyph>
<glyph name="x" format="2">
  <advance width="498"/>
  <unicode hex="0078"/>
  <anchor x="241.0" y="0.0" name="below"/>
  <anchor x="242.0" y="482.0" name="above"/>
  <anchor x="241.0" y="-1.0" name="cedilla"/>
  <outline>
    <contour>
      <point x="6.0" y="481.0" type="line"/>
      <point x="139.0" y="481.0" type="line"/>
      <point x="250.0" y="316.0" type="line"/>
      <point x="356.0" y="481.0" type="line"/>
      <point x="492.0" y="481.0" type="line"/>
      <point x="318.0" y="237.0" type="line"/>
      <point x="486.0" y="0.0" type="line"/>
      <point x="354.0" y="0.0" type="line"/>
      <point x="249.0" y="156.0" type="line"/>
      <point x="146.0" y="0.0" type="line"/>
      <point x="14.0" y="0.0" type="line"/>
      <point x="177.0" y="237.0" type="line"/>
    </contour>
  </outline>
</glyph>
<glyph name="y" format="2">
  <advance width="550"/>
  <unicode hex="0079"/>
  <anchor x="310.0" y="-200.0" name="below"/>
  <anchor x="284.0" y="482.0" name="above"/>
  <outline>
    <contour>
      <point x="6.0" y="481.0" type="line"/>
      <point x="144.0" y="481.0" type="line"/>
      <point x="287.0" y="112.0" type="line"/>
      <point x="417.0" y="481.0" type="line"/>
      <point x="544.0" y="481.0" type="line"/>
      <point x="275.0" y="-198.0" type="line"/>
      <point x="140.0" y="-198.0" type="line"/>
      <point x="224.0" y="-4.0" type="line"/>
    </contour>
  </outline>
</glyph>
<glyph name="z" format="2">
  <advance width="491"/>
  <unicode hex="007A"/>
  <anchor x="245.0" y="0.0" name="below"/>
  <anchor x="242.0" y="482.0" name="above"/>
  <anchor x="253.0" y="0.0" name="cedilla"/>
  <outline>
    <contour>
      <point x="46.0" y="379.0" type="line"/>
      <point x="46.0" y="481.0" type="line"/>
      <point x="436.0" y="481.0" type="line"/>
      <point x="436.0" y="416.0" type="line"/>
      <point x="208.0" y="103.0" type="line"/>
      <point x="445.0" y="103.0" type="line"/>
      <point x="445.0" y="0.0" type="line"/>
      <point x="46.0" y="0.0" type="line"/>
      <point x="46.0" y="62.0" type="line"/>
      <point x="266.0" y="379.0" type="line"/>
    </contour>
  </outline>
</glyph>
<glyph name="braceleft" format="2">
  <advance width="416"/>
  <unicode hex="007B"/>
  <outline>
    <contour>
      <point x="351.0" y="-236.0" type="line"/>
      <point x="233.0" y="-221.0"/>
      <point x="149.0" y="-147.0"/>
      <point x="149.0" y="-11.0" type="curve" smooth="yes"/>
      <point x="149.0" y="87.0" type="line" smooth="yes"/>
      <point x="149.0" y="154.0"/>
      <point x="110.0" y="194.0"/>
      <point x="30.0" y="204.0" type="curve"/>
      <point x="30.0" y="308.0" type="line"/>
      <point x="110.0" y="318.0"/>
      <point x="149.0" y="358.0"/>
      <point x="149.0" y="425.0" type="curve" smooth="yes"/>
      <point x="149.0" y="522.0" type="line" smooth="yes"/>
      <point x="149.0" y="658.0"/>
      <point x="233.0" y="732.0"/>
      <point x="351.0" y="747.0" type="curve"/>
      <point x="376.0" y="647.0" type="line"/>
      <point x="288.0" y="627.0"/>
      <point x="248.0" y="609.0"/>
      <point x="248.0" y="493.0" type="curve" smooth="yes"/>
      <point x="248.0" y="409.0" type="line" smooth="yes"/>
      <point x="248.0" y="348.0"/>
      <point x="218.0" y="298.0"/>
      <point x="157.0" y="256.0" type="curve"/>
      <point x="218.0" y="214.0"/>
      <point x="248.0" y="163.0"/>
      <point x="248.0" y="102.0" type="curve" smooth="yes"/>
      <point x="248.0" y="18.0" type="line" smooth="yes"/>
      <point x="248.0" y="-98.0"/>
      <point x="288.0" y="-115.0"/>
      <point x="376.0" y="-135.0" type="curve"/>
    </contour>
  </outline>
</glyph>
<glyph name="bar" format="2">
  <advance width="283"/>
  <unicode hex="007C"/>
  <outline>
    <contour>
      <point x="80.0" y="730.0" type="line"/>
      <point x="203.0" y="730.0" type="line"/>
      <point x="203.0" y="-242.0" type="line"/>
      <point x="80.0" y="-242.0" type="line"/>
    </contour>
  </outline>
</glyph>
<glyph name="braceright" format="2">
  <advance width="417"/>
  <unicode hex="007D"/>
  <outline>
    <contour>
      <point x="65.0" y="747.0" type="line"/>
      <point x="183.0" y="732.0"/>
      <point x="267.0" y="658.0"/>
      <point x="267.0" y="522.0" type="curve" smooth="yes"/>
      <point x="267.0" y="425.0" type="line" smooth="yes"/>
      <point x="267.0" y="358.0"/>
      <point x="307.0" y="318.0"/>
      <point x="387.0" y="308.0" type="curve"/>
      <point x="387.0" y="204.0" type="line"/>
      <point x="307.0" y="194.0"/>
      <point x="267.0" y="154.0"/>
      <point x="267.0" y="87.0" type="curve" smooth="yes"/>
      <point x="267.0" y="-11.0" type="line" smooth="yes"/>
      <point x="267.0" y="-147.0"/>
      <point x="183.0" y="-221.0"/>
      <point x="65.0" y="-236.0" type="curve"/>
      <point x="40.0" y="-135.0" type="line"/>
      <point x="128.0" y="-115.0"/>
      <point x="168.0" y="-98.0"/>
      <point x="168.0" y="18.0" type="curve" smooth="yes"/>
      <point x="168.0" y="102.0" type="line" smooth="yes"/>
      <point x="168.0" y="163.0"/>
      <point x="199.0" y="214.0"/>
      <point x="260.0" y="256.0" type="curve"/>
      <point x="199.0" y="298.0"/>
      <point x="168.0" y="348.0"/>
      <point x="168.0" y="409.0" type="curve" smooth="yes"/>
      <point x="168.0" y="493.0" type="line" smooth="yes"/>
      <point x="168.0" y="609.0"/>
      <point x="128.0" y="627.0"/>
      <point x="40.0" y="647.0" type="curve"/>
    </contour>
  </outline>
</glyph>
<glyph name="asciitilde" format="2">
  <advance width="583"/>
  <unicode hex="007E"/>
  <outline>
    <contour>
      <point x="384.0" y="311.0" type="curve" smooth="yes"/>
      <point x="408.0" y="311.0"/>
      <point x="418.0" y="383.0"/>
      <point x="423.0" y="425.0" type="curve"/>
      <point x="535.0" y="407.0" type="line"/>
      <point x="523.0" y="331.0"/>
      <point x="508.0" y="192.0"/>
      <point x="388.0" y="192.0" type="curve" smooth="yes"/>
      <point x="288.0" y="192.0"/>
      <point x="231.0" y="299.0"/>
      <point x="199.0" y="299.0" type="curve" smooth="yes"/>
      <point x="174.0" y="299.0"/>
      <point x="165.0" y="230.0"/>
      <point x="160.0" y="189.0" type="curve"/>
      <point x="48.0" y="206.0" type="line"/>
      <point x="60.0" y="282.0"/>
      <point x="75.0" y="419.0"/>
      <point x="195.0" y="419.0" type="curve" smooth="yes"/>
      <point x="295.0" y="419.0"/>
      <point x="353.0" y="311.0"/>
    </contour>
  </outline>
</glyph>
<glyph name="exclamdown" format="2">
  <advance width="228"/>
  <unicode hex="00A1"/>
  <outline>
    <contour>
      <point x="166.0" y="290.0" type="line"/>
      <point x="175.0" y="-225.0" type="line"/>
      <point x="53.0" y="-225.0" type="line"/>
      <point x="61.0" y="290.0" type="line"/>
    </contour>
    <contour>
      <point x="114.0" y="507.0" type="curve" smooth="yes"/>
      <point x="154.0" y="507.0"/>
      <point x="184.0" y="476.0"/>
      <point x="184.0" y="436.0" type="curve" smooth="yes"/>
      <point x="184.0" y="396.0"/>
      <point x="154.0" y="366.0"/>
      <point x="114.0" y="366.0" type="curve" smooth="yes"/>
      <point x="74.0" y="366.0"/>
      <point x="43.0" y="396.0"/>
      <point x="43.0" y="436.0" type="curve" smooth="yes"/>
      <point x="43.0" y="476.0"/>
      <point x="74.0" y="507.0"/>
    </contour>
  </outline>
</glyph>
<glyph name="cent" format="2">
  <advance width="498"/>
  <unicode hex="00A2"/>
  <outline>
    <contour>
      <point x="245.0" y="621.0" type="curve"/>
      <point x="245.0" y="730.0" type="line"/>
      <point x="344.0" y="730.0" type="line"/>
      <point x="344.0" y="626.0" type="line"/>
      <point x="386.0" y="622.0"/>
      <point x="425.0" y="608.0"/>
      <point x="450.0" y="597.0" type="curve" smooth="yes"/>
      <point x="467.0" y="590.0" type="line"/>
      <point x="436.0" y="495.0" type="line"/>
      <point x="417.0" y="501.0" type="line" smooth="yes"/>
      <point x="385.0" y="512.0"/>
      <point x="356.0" y="519.0"/>
      <point x="322.0" y="519.0" type="curve" smooth="yes"/>
      <point x="223.0" y="519.0"/>
      <point x="171.0" y="455.0"/>
      <point x="171.0" y="358.0" type="curve" smooth="yes"/>
      <point x="171.0" y="217.0"/>
      <point x="253.0" y="197.0"/>
      <point x="322.0" y="197.0" type="curve" smooth="yes"/>
      <point x="350.0" y="197.0"/>
      <point x="384.0" y="202.0"/>
      <point x="411.0" y="212.0" type="curve" smooth="yes"/>
      <point x="430.0" y="218.0" type="line"/>
      <point x="462.0" y="126.0" type="line"/>
      <point x="444.0" y="119.0" type="line" smooth="yes"/>
      <point x="413.0" y="107.0"/>
      <point x="379.0" y="97.0"/>
      <point x="344.0" y="94.0" type="curve"/>
      <point x="344.0" y="-27.0" type="line"/>
      <point x="245.0" y="-27.0" type="line"/>
      <point x="245.0" y="96.0" type="line"/>
      <point x="139.0" y="115.0"/>
      <point x="53.0" y="201.0"/>
      <point x="53.0" y="358.0" type="curve" smooth="yes"/>
      <point x="53.0" y="501.0"/>
      <point x="121.0" y="595.0"/>
    </contour>
  </outline>
</glyph>
<glyph name="sterling" format="2">
  <advance width="634"/>
  <unicode hex="00A3"/>
  <outline>
    <contour>
      <point x="173.0" y="106.0" type="line"/>
      <point x="173.0" y="304.0" type="line"/>
      <point x="87.0" y="304.0" type="line"/>
      <point x="87.0" y="410.0" type="line"/>
      <point x="173.0" y="410.0" type="line"/>
      <point x="173.0" y="439.0" type="line" smooth="yes"/>
      <point x="173.0" y="643.0"/>
      <point x="310.0" y="706.0"/>
      <point x="431.0" y="706.0" type="curve" smooth="yes"/>
      <point x="473.0" y="706.0"/>
      <point x="514.0" y="698.0"/>
      <point x="551.0" y="686.0" type="curve" smooth="yes"/>
      <point x="572.0" y="680.0" type="line"/>
      <point x="534.0" y="584.0" type="line"/>
      <point x="517.0" y="588.0" type="line" smooth="yes"/>
      <point x="493.0" y="594.0"/>
      <point x="466.0" y="599.0"/>
      <point x="441.0" y="599.0" type="curve" smooth="yes"/>
      <point x="317.0" y="599.0"/>
      <point x="293.0" y="518.0"/>
      <point x="293.0" y="426.0" type="curve" smooth="yes"/>
      <point x="293.0" y="410.0" type="line"/>
      <point x="552.0" y="410.0" type="line"/>
      <point x="552.0" y="304.0" type="line"/>
      <point x="293.0" y="304.0" type="line"/>
      <point x="293.0" y="106.0" type="line"/>
      <point x="581.0" y="106.0" type="line"/>
      <point x="581.0" y="0.0" type="line"/>
      <point x="54.0" y="0.0" type="line"/>
      <point x="54.0" y="106.0" type="line"/>
    </contour>
  </outline>
</glyph>
<glyph name="currency" format="2">
  <advance width="634"/>
  <unicode hex="00A4"/>
  <outline>
    <contour>
      <point x="398.0" y="532.0" type="curve"/>
      <point x="483.0" y="617.0" type="line"/>
      <point x="572.0" y="527.0" type="line"/>
      <point x="487.0" y="443.0" type="line"/>
      <point x="501.0" y="415.0"/>
      <point x="506.0" y="386.0"/>
      <point x="506.0" y="362.0" type="curve" smooth="yes"/>
      <point x="506.0" y="334.0"/>
      <point x="500.0" y="306.0"/>
      <point x="488.0" y="281.0" type="curve"/>
      <point x="572.0" y="197.0" type="line"/>
      <point x="482.0" y="108.0" type="line"/>
      <point x="398.0" y="192.0" type="line"/>
      <point x="373.0" y="180.0"/>
      <point x="345.0" y="173.0"/>
      <point x="317.0" y="173.0" type="curve" smooth="yes"/>
      <point x="293.0" y="173.0"/>
      <point x="264.0" y="177.0"/>
      <point x="236.0" y="191.0" type="curve"/>
      <point x="152.0" y="107.0" type="line"/>
      <point x="62.0" y="196.0" type="line"/>
      <point x="147.0" y="281.0" type="line"/>
      <point x="133.0" y="309.0"/>
      <point x="128.0" y="338.0"/>
      <point x="128.0" y="362.0" type="curve" smooth="yes"/>
      <point x="128.0" y="390.0"/>
      <point x="135.0" y="418.0"/>
      <point x="147.0" y="443.0" type="curve"/>
      <point x="62.0" y="528.0" type="line"/>
      <point x="151.0" y="618.0" type="line"/>
      <point x="237.0" y="532.0" type="line"/>
      <point x="265.0" y="546.0"/>
      <point x="293.0" y="551.0"/>
      <point x="317.0" y="551.0" type="curve" smooth="yes"/>
      <point x="345.0" y="551.0"/>
      <point x="373.0" y="544.0"/>
    </contour>
    <contour>
      <point x="317.0" y="442.0" type="curve" smooth="yes"/>
      <point x="275.0" y="442.0"/>
      <point x="240.0" y="407.0"/>
      <point x="240.0" y="362.0" type="curve" smooth="yes"/>
      <point x="240.0" y="318.0"/>
      <point x="274.0" y="282.0"/>
      <point x="317.0" y="282.0" type="curve" smooth="yes"/>
      <point x="359.0" y="282.0"/>
      <point x="395.0" y="318.0"/>
      <point x="395.0" y="362.0" type="curve" smooth="yes"/>
      <point x="395.0" y="407.0"/>
      <point x="359.0" y="442.0"/>
    </contour>
  </outline>
</glyph>
<glyph name="yen" format="2">
  <advance width="634"/>
  <unicode hex="00A5"/>
  <outline>
    <contour>
      <point x="35.0" y="686.0" type="line"/>
      <point x="172.0" y="686.0" type="line"/>
      <point x="318.0" y="441.0" type="line"/>
      <point x="468.0" y="686.0" type="line"/>
      <point x="600.0" y="686.0" type="line"/>
      <point x="392.0" y="361.0" type="line"/>
      <point x="514.0" y="361.0" type="line"/>
      <point x="514.0" y="260.0" type="line"/>
      <point x="373.0" y="260.0" type="line"/>
      <point x="373.0" y="203.0" type="line"/>
      <point x="514.0" y="203.0" type="line"/>
      <point x="514.0" y="102.0" type="line"/>
      <point x="373.0" y="102.0" type="line"/>
      <point x="373.0" y="0.0" type="line"/>
      <point x="255.0" y="0.0" type="line"/>
      <point x="255.0" y="102.0" type="line"/>
      <point x="121.0" y="102.0" type="line"/>
      <point x="121.0" y="203.0" type="line"/>
      <point x="255.0" y="203.0" type="line"/>
      <point x="255.0" y="260.0" type="line"/>
      <point x="121.0" y="260.0" type="line"/>
      <point x="121.0" y="361.0" type="line"/>
      <point x="237.0" y="361.0" type="line"/>
    </contour>
  </outline>
</glyph>
<glyph name="brokenbar" format="2">
  <advance width="283"/>
  <unicode hex="00A6"/>
  <outline>
    <contour>
      <point x="80.0" y="173.0" type="line"/>
      <point x="203.0" y="173.0" type="line"/>
      <point x="203.0" y="-242.0" type="line"/>
      <point x="80.0" y="-242.0" type="line"/>
    </contour>
    <contour>
      <point x="80.0" y="730.0" type="line"/>
      <point x="203.0" y="730.0" type="line"/>
      <point x="203.0" y="317.0" type="line"/>
      <point x="80.0" y="317.0" type="line"/>
    </contour>
  </outline>
</glyph>
<glyph name="section" format="2">
  <advance width="536"/>
  <unicode hex="00A7"/>
  <outline>
    <contour>
      <point x="472.0" y="343.0" type="curve" smooth="yes"/>
      <point x="472.0" y="299.0"/>
      <point x="445.0" y="267.0"/>
      <point x="415.0" y="244.0" type="curve"/>
      <point x="453.0" y="219.0"/>
      <point x="472.0" y="183.0"/>
      <point x="472.0" y="139.0" type="curve" smooth="yes"/>
      <point x="472.0" y="34.0"/>
      <point x="379.0" y="-10.0"/>
      <point x="253.0" y="-10.0" type="curve" smooth="yes"/>
      <point x="191.0" y="-10.0"/>
      <point x="128.0" y="5.0"/>
      <point x="64.0" y="34.0" type="curve"/>
      <point x="98.0" y="129.0" type="line"/>
      <point x="142.0" y="114.0"/>
      <point x="207.0" y="94.0"/>
      <point x="259.0" y="94.0" type="curve" smooth="yes"/>
      <point x="311.0" y="94.0"/>
      <point x="356.0" y="99.0"/>
      <point x="356.0" y="141.0" type="curve" smooth="yes"/>
      <point x="356.0" y="175.0"/>
      <point x="296.0" y="187.0"/>
      <point x="255.0" y="200.0" type="curve" smooth="yes"/>
      <point x="218.0" y="213.0" type="line" smooth="yes"/>
      <point x="143.0" y="241.0"/>
      <point x="80.0" y="269.0"/>
      <point x="80.0" y="363.0" type="curve" smooth="yes"/>
      <point x="80.0" y="407.0"/>
      <point x="102.0" y="439.0"/>
      <point x="132.0" y="461.0" type="curve"/>
      <point x="98.0" y="488.0"/>
      <point x="80.0" y="522.0"/>
      <point x="80.0" y="566.0" type="curve" smooth="yes"/>
      <point x="80.0" y="670.0"/>
      <point x="163.0" y="706.0"/>
      <point x="287.0" y="706.0" type="curve" smooth="yes"/>
      <point x="339.0" y="706.0"/>
      <point x="409.0" y="692.0"/>
      <point x="448.0" y="679.0" type="curve"/>
      <point x="418.0" y="585.0" type="line"/>
      <point x="374.0" y="599.0"/>
      <point x="340.0" y="609.0"/>
      <point x="288.0" y="609.0" type="curve" smooth="yes"/>
      <point x="236.0" y="609.0"/>
      <point x="194.0" y="605.0"/>
      <point x="194.0" y="561.0" type="curve" smooth="yes"/>
      <point x="194.0" y="523.0"/>
      <point x="251.0" y="510.0"/>
      <point x="292.0" y="496.0" type="curve" smooth="yes"/>
      <point x="324.0" y="485.0" type="line" smooth="yes"/>
      <point x="398.0" y="457.0"/>
      <point x="472.0" y="438.0"/>
    </contour>
    <contour>
      <point x="194.0" y="371.0" type="curve" smooth="yes"/>
      <point x="194.0" y="327.0"/>
      <point x="246.0" y="311.0"/>
      <point x="288.0" y="297.0" type="curve" smooth="yes"/>
      <point x="314.0" y="289.0" type="line"/>
      <point x="342.0" y="303.0"/>
      <point x="356.0" y="322.0"/>
      <point x="356.0" y="344.0" type="curve" smooth="yes"/>
      <point x="356.0" y="378.0"/>
      <point x="296.0" y="391.0"/>
      <point x="255.0" y="404.0" type="curve" smooth="yes"/>
      <point x="227.0" y="414.0" type="line"/>
      <point x="205.0" y="404.0"/>
      <point x="194.0" y="390.0"/>
    </contour>
  </outline>
</glyph>
<glyph name="copyright" format="2">
  <advance width="862"/>
  <unicode hex="00A9"/>
  <outline>
    <contour>
      <point x="70.0" y="344.0" type="curve" smooth="yes"/>
      <point x="70.0" y="561.0"/>
      <point x="215.0" y="706.0"/>
      <point x="432.0" y="706.0" type="curve" smooth="yes"/>
      <point x="648.0" y="706.0"/>
      <point x="792.0" y="560.0"/>
      <point x="792.0" y="344.0" type="curve" smooth="yes"/>
      <point x="792.0" y="134.0"/>
      <point x="645.0" y="-10.0"/>
      <point x="432.0" y="-10.0" type="curve" smooth="yes"/>
      <point x="216.0" y="-10.0"/>
      <point x="70.0" y="131.0"/>
    </contour>
    <contour>
      <point x="156.0" y="348.0" type="curve" smooth="yes"/>
      <point x="156.0" y="183.0"/>
      <point x="264.0" y="76.0"/>
      <point x="432.0" y="76.0" type="curve" smooth="yes"/>
      <point x="602.0" y="76.0"/>
      <point x="709.0" y="182.0"/>
      <point x="709.0" y="348.0" type="curve" smooth="yes"/>
      <point x="709.0" y="514.0"/>
      <point x="597.0" y="624.0"/>
      <point x="432.0" y="624.0" type="curve" smooth="yes"/>
      <point x="266.0" y="624.0"/>
      <point x="156.0" y="514.0"/>
    </contour>
    <contour>
      <point x="337.0" y="347.0" type="curve" smooth="yes"/>
      <point x="337.0" y="274.0"/>
      <point x="376.0" y="228.0"/>
      <point x="450.0" y="228.0" type="curve" smooth="yes"/>
      <point x="493.0" y="228.0"/>
      <point x="515.0" y="238.0"/>
      <point x="552.0" y="252.0" type="curve"/>
      <point x="580.0" y="189.0" type="line"/>
      <point x="539.0" y="165.0"/>
      <point x="497.0" y="152.0"/>
      <point x="432.0" y="152.0" type="curve" smooth="yes"/>
      <point x="314.0" y="152.0"/>
      <point x="241.0" y="229.0"/>
      <point x="241.0" y="347.0" type="curve" smooth="yes"/>
      <point x="241.0" y="468.0"/>
      <point x="313.0" y="544.0"/>
      <point x="432.0" y="544.0" type="curve" smooth="yes"/>
      <point x="499.0" y="544.0"/>
      <point x="534.0" y="530.0"/>
      <point x="580.0" y="508.0" type="curve"/>
      <point x="552.0" y="446.0" type="line"/>
      <point x="544.0" y="449.0"/>
      <point x="546.0" y="448.0"/>
      <point x="528.0" y="453.0" type="curve"/>
      <point x="506.0" y="461.0"/>
      <point x="479.0" y="470.0"/>
      <point x="450.0" y="470.0" type="curve" smooth="yes"/>
      <point x="374.0" y="470.0"/>
      <point x="337.0" y="423.0"/>
    </contour>
  </outline>
</glyph>
<glyph name="ordfeminine" format="2">
  <advance width="338"/>
  <unicode hex="00AA"/>
  <outline>
    <contour>
      <point x="300.0" y="581.0" type="curve" smooth="yes"/>
      <point x="300.0" y="393.0" type="line"/>
      <point x="240.0" y="393.0" type="line"/>
      <point x="231.0" y="414.0" type="line"/>
      <point x="204.0" y="397.0"/>
      <point x="183.0" y="387.0"/>
      <point x="144.0" y="387.0" type="curve" smooth="yes"/>
      <point x="86.0" y="387.0"/>
      <point x="38.0" y="423.0"/>
      <point x="38.0" y="478.0" type="curve" smooth="yes"/>
      <point x="38.0" y="536.0"/>
      <point x="80.0" y="570.0"/>
      <point x="165.0" y="576.0" type="curve" smooth="yes"/>
      <point x="222.0" y="580.0" type="line"/>
      <point x="222.0" y="635.0"/>
      <point x="207.0" y="648.0"/>
      <point x="152.0" y="648.0" type="curve" smooth="yes"/>
      <point x="137.0" y="648.0"/>
      <point x="90.0" y="638.0"/>
      <point x="69.0" y="631.0" type="curve"/>
      <point x="53.0" y="681.0" type="line"/>
      <point x="78.0" y="692.0"/>
      <point x="129.0" y="706.0"/>
      <point x="166.0" y="706.0" type="curve" smooth="yes"/>
      <point x="260.0" y="706.0"/>
      <point x="300.0" y="670.0"/>
    </contour>
    <contour>
      <point x="225.0" y="464.0" type="curve"/>
      <point x="225.0" y="528.0" type="line"/>
      <point x="173.0" y="523.0" type="line"/>
      <point x="134.0" y="522.0"/>
      <point x="113.0" y="507.0"/>
      <point x="113.0" y="482.0" type="curve" smooth="yes"/>
      <point x="113.0" y="458.0"/>
      <point x="138.0" y="445.0"/>
      <point x="165.0" y="445.0" type="curve" smooth="yes"/>
      <point x="197.0" y="445.0"/>
      <point x="208.0" y="449.0"/>
    </contour>
  </outline>
</glyph>
<glyph name="guillemetleft" format="2">
  <advance width="589"/>
  <unicode hex="00AB"/>
  <outline>
    <contour>
      <point x="409.0" y="451.0" type="line"/>
      <point x="549.0" y="451.0" type="line"/>
      <point x="401.0" y="253.0" type="line"/>
      <point x="549.0" y="55.0" type="line"/>
      <point x="409.0" y="55.0" type="line"/>
      <point x="270.0" y="253.0" type="line"/>
    </contour>
    <contour>
      <point x="179.0" y="451.0" type="line"/>
      <point x="320.0" y="451.0" type="line"/>
      <point x="171.0" y="253.0" type="line"/>
      <point x="320.0" y="55.0" type="line"/>
      <point x="179.0" y="55.0" type="line"/>
      <point x="40.0" y="253.0" type="line"/>
    </contour>
  </outline>
</glyph>
<glyph name="logicalnot" format="2">
  <advance width="683"/>
  <unicode hex="00AC"/>
  <outline>
    <contour>
      <point x="41.0" y="378.0" type="line"/>
      <point x="643.0" y="378.0" type="line"/>
      <point x="643.0" y="118.0" type="line"/>
      <point x="520.0" y="118.0" type="line"/>
      <point x="520.0" y="265.0" type="line"/>
      <point x="41.0" y="265.0" type="line"/>
    </contour>
  </outline>
</glyph>
<glyph name="registered" format="2">
  <advance width="600"/>
  <unicode hex="00AE"/>
  <outline>
    <contour>
      <point x="573.0" y="514.0" type="curve" smooth="yes"/>
      <point x="573.0" y="353.0"/>
      <point x="460.0" y="246.0"/>
      <point x="300.0" y="246.0" type="curve" smooth="yes"/>
      <point x="139.0" y="246.0"/>
      <point x="25.0" y="353.0"/>
      <point x="25.0" y="514.0" type="curve" smooth="yes"/>
      <point x="25.0" y="675.0"/>
      <point x="139.0" y="781.0"/>
      <point x="300.0" y="781.0" type="curve" smooth="yes"/>
      <point x="460.0" y="781.0"/>
      <point x="573.0" y="674.0"/>
    </contour>
    <contour>
      <point x="504.0" y="514.0" type="curve" smooth="yes"/>
      <point x="504.0" y="636.0"/>
      <point x="424.0" y="715.0"/>
      <point x="300.0" y="715.0" type="curve" smooth="yes"/>
      <point x="176.0" y="715.0"/>
      <point x="95.0" y="636.0"/>
      <point x="95.0" y="514.0" type="curve" smooth="yes"/>
      <point x="95.0" y="388.0"/>
      <point x="176.0" y="311.0"/>
      <point x="300.0" y="311.0" type="curve" smooth="yes"/>
      <point x="424.0" y="311.0"/>
      <point x="504.0" y="388.0"/>
    </contour>
    <contour>
      <point x="409.0" y="569.0" type="curve" smooth="yes"/>
      <point x="409.0" y="522.0"/>
      <point x="388.0" y="503.0"/>
      <point x="354.0" y="486.0" type="curve"/>
      <point x="411.0" y="381.0" type="line"/>
      <point x="347.0" y="381.0" type="line"/>
      <point x="300.0" y="475.0" type="line"/>
      <point x="253.0" y="475.0" type="line"/>
      <point x="253.0" y="381.0" type="line"/>
      <point x="194.0" y="381.0" type="line"/>
      <point x="194.0" y="655.0" type="line"/>
      <point x="315.0" y="655.0" type="line" smooth="yes"/>
      <point x="371.0" y="655.0"/>
      <point x="409.0" y="625.0"/>
    </contour>
    <contour>
      <point x="354.0" y="568.0" type="curve" smooth="yes"/>
      <point x="354.0" y="592.0"/>
      <point x="338.0" y="603.0"/>
      <point x="306.0" y="603.0" type="curve" smooth="yes"/>
      <point x="253.0" y="603.0" type="line"/>
      <point x="253.0" y="527.0" type="line"/>
      <point x="293.0" y="527.0" type="line" smooth="yes"/>
      <point x="327.0" y="527.0"/>
      <point x="354.0" y="535.0"/>
    </contour>
  </outline>
</glyph>
<glyph name="degree" format="2">
  <advance width="287"/>
  <unicode hex="00B0"/>
  <outline>
    <contour>
      <point x="144.0" y="648.0" type="curve" smooth="yes"/>
      <point x="119.0" y="648.0"/>
      <point x="101.0" y="627.0"/>
      <point x="101.0" y="603.0" type="curve" smooth="yes"/>
      <point x="101.0" y="579.0"/>
      <point x="118.0" y="558.0"/>
      <point x="144.0" y="558.0" type="curve" smooth="yes"/>
      <point x="167.0" y="558.0"/>
      <point x="186.0" y="579.0"/>
      <point x="186.0" y="603.0" type="curve" smooth="yes"/>
      <point x="186.0" y="627.0"/>
      <point x="168.0" y="648.0"/>
    </contour>
    <contour>
      <point x="271.0" y="603.0" type="curve" smooth="yes"/>
      <point x="271.0" y="531.0"/>
      <point x="214.0" y="473.0"/>
      <point x="144.0" y="473.0" type="curve" smooth="yes"/>
      <point x="75.0" y="473.0"/>
      <point x="17.0" y="531.0"/>
      <point x="17.0" y="603.0" type="curve" smooth="yes"/>
      <point x="17.0" y="674.0"/>
      <point x="74.0" y="732.0"/>
      <point x="144.0" y="732.0" type="curve" smooth="yes"/>
      <point x="213.0" y="732.0"/>
      <point x="271.0" y="675.0"/>
    </contour>
  </outline>
</glyph>
<glyph name="plusminus" format="2">
  <advance width="683"/>
  <unicode hex="00B1"/>
  <outline>
    <contour>
      <point x="87.0" y="160.0" type="line"/>
      <point x="596.0" y="160.0" type="line"/>
      <point x="596.0" y="53.0" type="line"/>
      <point x="87.0" y="53.0" type="line"/>
    </contour>
    <contour>
      <point x="286.0" y="714.0" type="line"/>
      <point x="397.0" y="714.0" type="line"/>
      <point x="397.0" y="513.0" type="line"/>
      <point x="596.0" y="513.0" type="line"/>
      <point x="596.0" y="406.0" type="line"/>
      <point x="397.0" y="406.0" type="line"/>
      <point x="397.0" y="205.0" type="line"/>
      <point x="286.0" y="205.0" type="line"/>
      <point x="286.0" y="406.0" type="line"/>
      <point x="87.0" y="406.0" type="line"/>
      <point x="87.0" y="513.0" type="line"/>
      <point x="286.0" y="513.0" type="line"/>
    </contour>
  </outline>
</glyph>
<glyph name="twosuperior" format="2">
  <advance width="354"/>
  <unicode hex="00B2"/>
  <outline>
    <contour>
      <point x="68.0" y="639.0" type="curve"/>
      <point x="40.0" y="716.0" type="line"/>
      <point x="83.0" y="741.0"/>
      <point x="127.0" y="753.0"/>
      <point x="171.0" y="753.0" type="curve" smooth="yes"/>
      <point x="248.0" y="753.0"/>
      <point x="306.0" y="702.0"/>
      <point x="306.0" y="624.0" type="curve" smooth="yes"/>
      <point x="306.0" y="595.0"/>
      <point x="296.0" y="566.0"/>
      <point x="278.0" y="536.0" type="curve" smooth="yes"/>
      <point x="260.0" y="505.0"/>
      <point x="230.0" y="469.0"/>
      <point x="189.0" y="427.0" type="curve"/>
      <point x="314.0" y="427.0" type="line"/>
      <point x="314.0" y="349.0" type="line"/>
      <point x="46.0" y="349.0" type="line"/>
      <point x="46.0" y="401.0" type="line"/>
      <point x="116.0" y="464.0"/>
      <point x="217.0" y="555.0"/>
      <point x="217.0" y="610.0" type="curve" smooth="yes"/>
      <point x="217.0" y="650.0"/>
      <point x="198.0" y="667.0"/>
      <point x="157.0" y="667.0" type="curve" smooth="yes"/>
      <point x="119.0" y="667.0"/>
      <point x="95.0" y="654.0"/>
    </contour>
  </outline>
</glyph>
<glyph name="threesuperior" format="2">
  <advance width="356"/>
  <unicode hex="00B3"/>
  <outline>
    <contour>
      <point x="303.0" y="636.0" type="curve" smooth="yes"/>
      <point x="303.0" y="601.0"/>
      <point x="277.0" y="572.0"/>
      <point x="254.0" y="556.0" type="curve"/>
      <point x="283.0" y="541.0"/>
      <point x="316.0" y="509.0"/>
      <point x="316.0" y="467.0" type="curve" smooth="yes"/>
      <point x="316.0" y="387.0"/>
      <point x="251.0" y="351.0"/>
      <point x="169.0" y="351.0" type="curve" smooth="yes"/>
      <point x="130.0" y="351.0"/>
      <point x="66.0" y="364.0"/>
      <point x="40.0" y="378.0" type="curve"/>
      <point x="67.0" y="458.0" type="line"/>
      <point x="90.0" y="450.0"/>
      <point x="135.0" y="438.0"/>
      <point x="167.0" y="438.0" type="curve" smooth="yes"/>
      <point x="204.0" y="438.0"/>
      <point x="223.0" y="451.0"/>
      <point x="223.0" y="478.0" type="curve" smooth="yes"/>
      <point x="223.0" y="510.0"/>
      <point x="190.0" y="517.0"/>
      <point x="151.0" y="517.0" type="curve" smooth="yes"/>
      <point x="119.0" y="517.0" type="line"/>
      <point x="119.0" y="596.0" type="line"/>
      <point x="148.0" y="596.0" type="line" smooth="yes"/>
      <point x="192.0" y="596.0"/>
      <point x="214.0" y="607.0"/>
      <point x="214.0" y="632.0" type="curve" smooth="yes"/>
      <point x="214.0" y="655.0"/>
      <point x="200.0" y="667.0"/>
      <point x="171.0" y="667.0" type="curve" smooth="yes"/>
      <point x="144.0" y="667.0"/>
      <point x="113.0" y="658.0"/>
      <point x="77.0" y="640.0" type="curve"/>
      <point x="47.0" y="717.0" type="line"/>
      <point x="85.0" y="736.0"/>
      <point x="120.0" y="753.0"/>
      <point x="170.0" y="753.0" type="curve" smooth="yes"/>
      <point x="249.0" y="753.0"/>
      <point x="303.0" y="714.0"/>
    </contour>
  </outline>
</glyph>
<glyph name="micro" format="2">
  <advance width="553"/>
  <unicode hex="00B5"/>
  <outline>
    <contour>
      <point x="183.0" y="231.0" type="line" smooth="yes"/>
      <point x="183.0" y="151.0"/>
      <point x="194.0" y="95.0"/>
      <point x="267.0" y="95.0" type="curve" smooth="yes"/>
      <point x="300.0" y="95.0"/>
      <point x="334.0" y="106.0"/>
      <point x="370.0" y="127.0" type="curve"/>
      <point x="370.0" y="481.0" type="line"/>
      <point x="493.0" y="481.0" type="line"/>
      <point x="493.0" y="0.0" type="line"/>
      <point x="409.0" y="0.0" type="line"/>
      <point x="391.0" y="35.0" type="line"/>
      <point x="351.0" y="11.0"/>
      <point x="313.0" y="-10.0"/>
      <point x="256.0" y="-10.0" type="curve" smooth="yes"/>
      <point x="228.0" y="-10.0"/>
      <point x="202.0" y="-3.0"/>
      <point x="179.0" y="11.0" type="curve"/>
      <point x="179.0" y="-221.0" type="line"/>
      <point x="60.0" y="-221.0" type="line"/>
      <point x="60.0" y="481.0" type="line"/>
      <point x="183.0" y="481.0" type="line"/>
    </contour>
  </outline>
</glyph>
<glyph name="paragraph" format="2">
  <advance width="619"/>
  <unicode hex="00B6"/>
  <outline>
    <contour>
      <point x="30.0" y="470.0" type="curve" smooth="yes"/>
      <point x="30.0" y="618.0"/>
      <point x="118.0" y="692.0"/>
      <point x="293.0" y="692.0" type="curve" smooth="yes"/>
      <point x="579.0" y="692.0" type="line"/>
      <point x="579.0" y="-52.0" type="line"/>
      <point x="456.0" y="-52.0" type="line"/>
      <point x="456.0" y="593.0" type="line"/>
      <point x="380.0" y="593.0" type="line"/>
      <point x="380.0" y="-52.0" type="line"/>
      <point x="257.0" y="-52.0" type="line"/>
      <point x="257.0" y="260.0" type="line"/>
      <point x="128.0" y="260.0"/>
      <point x="30.0" y="340.0"/>
    </contour>
  </outline>
</glyph>
<glyph name="periodcentered" format="2">
  <advance width="288"/>
  <unicode hex="00B7"/>
  <outline>
    <contour>
      <point x="144.0" y="280.0" type="curve" smooth="yes"/>
      <point x="103.0" y="280.0"/>
      <point x="67.0" y="316.0"/>
      <point x="67.0" y="357.0" type="curve" smooth="yes"/>
      <point x="67.0" y="398.0"/>
      <point x="103.0" y="434.0"/>
      <point x="144.0" y="434.0" type="curve" smooth="yes"/>
      <point x="185.0" y="434.0"/>
      <point x="221.0" y="398.0"/>
      <point x="221.0" y="357.0" type="curve" smooth="yes"/>
      <point x="221.0" y="316.0"/>
      <point x="185.0" y="280.0"/>
    </contour>
  </outline>
</glyph>
<glyph name="onesuperior" format="2">
  <advance width="234"/>
  <unicode hex="00B9"/>
  <outline>
    <contour>
      <point x="20.0" y="702.0" type="line"/>
      <point x="148.0" y="744.0" type="line"/>
      <point x="214.0" y="744.0" type="line"/>
      <point x="214.0" y="349.0" type="line"/>
      <point x="123.0" y="349.0" type="line"/>
      <point x="123.0" y="652.0" type="line"/>
      <point x="52.0" y="631.0" type="line"/>
    </contour>
  </outline>
</glyph>
<glyph name="ordmasculine" format="2">
  <advance width="377"/>
  <unicode hex="00BA"/>
  <outline>
    <contour>
      <point x="188.0" y="385.0" type="curve" smooth="yes"/>
      <point x="94.0" y="385.0"/>
      <point x="38.0" y="449.0"/>
      <point x="38.0" y="543.0" type="curve" smooth="yes"/>
      <point x="38.0" y="639.0"/>
      <point x="94.0" y="706.0"/>
      <point x="189.0" y="706.0" type="curve" smooth="yes"/>
      <point x="284.0" y="706.0"/>
      <point x="339.0" y="639.0"/>
      <point x="339.0" y="543.0" type="curve" smooth="yes"/>
      <point x="339.0" y="451.0"/>
      <point x="280.0" y="385.0"/>
    </contour>
    <contour>
      <point x="188.0" y="647.0" type="curve" smooth="yes"/>
      <point x="137.0" y="647.0"/>
      <point x="113.0" y="598.0"/>
      <point x="113.0" y="543.0" type="curve" smooth="yes"/>
      <point x="113.0" y="490.0"/>
      <point x="139.0" y="444.0"/>
      <point x="188.0" y="444.0" type="curve" smooth="yes"/>
      <point x="239.0" y="444.0"/>
      <point x="263.0" y="489.0"/>
      <point x="263.0" y="543.0" type="curve" smooth="yes"/>
      <point x="263.0" y="599.0"/>
      <point x="240.0" y="647.0"/>
    </contour>
  </outline>
</glyph>
<glyph name="guillemetright" format="2">
  <advance width="589"/>
  <unicode hex="00BB"/>
  <outline>
    <contour>
      <point x="40.0" y="451.0" type="line"/>
      <point x="181.0" y="451.0" type="line"/>
      <point x="319.0" y="253.0" type="line"/>
      <point x="181.0" y="55.0" type="line"/>
      <point x="40.0" y="55.0" type="line"/>
      <point x="189.0" y="253.0" type="line"/>
    </contour>
    <contour>
      <point x="270.0" y="451.0" type="line"/>
      <point x="410.0" y="451.0" type="line"/>
      <point x="549.0" y="253.0" type="line"/>
      <point x="410.0" y="55.0" type="line"/>
      <point x="270.0" y="55.0" type="line"/>
      <point x="419.0" y="253.0" type="line"/>
    </contour>
  </outline>
</glyph>
<glyph name="onequarter" format="2">
  <advance width="835"/>
  <unicode hex="00BC"/>
  <outline>
    <contour>
      <point x="40.0" y="657.0" type="line"/>
      <point x="168.0" y="698.0" type="line"/>
      <point x="234.0" y="698.0" type="line"/>
      <point x="234.0" y="304.0" type="line"/>
      <point x="143.0" y="304.0" type="line"/>
      <point x="143.0" y="606.0" type="line"/>
      <point x="72.0" y="585.0" type="line"/>
    </contour>
    <contour>
      <point x="235.0" y="0.0" type="line"/>
      <point x="125.0" y="0.0" type="line"/>
      <point x="563.0" y="692.0" type="line"/>
      <point x="670.0" y="692.0" type="line"/>
    </contour>
    <contour>
      <point x="463.0" y="149.0" type="line"/>
      <point x="632.0" y="392.0" type="line"/>
      <point x="733.0" y="392.0" type="line"/>
      <point x="733.0" y="156.0" type="line"/>
      <point x="795.0" y="156.0" type="line"/>
      <point x="795.0" y="80.0" type="line"/>
      <point x="733.0" y="80.0" type="line"/>
      <point x="733.0" y="0.0" type="line"/>
      <point x="648.0" y="0.0" type="line"/>
      <point x="648.0" y="80.0" type="line"/>
      <point x="463.0" y="80.0" type="line"/>
    </contour>
    <contour>
      <point x="648.0" y="271.0" type="line"/>
      <point x="568.0" y="156.0" type="line"/>
      <point x="648.0" y="156.0" type="line"/>
    </contour>
  </outline>
</glyph>
<glyph name="onehalf" format="2">
  <advance width="849"/>
  <unicode hex="00BD"/>
  <outline>
    <contour>
      <point x="40.0" y="657.0" type="line"/>
      <point x="168.0" y="698.0" type="line"/>
      <point x="234.0" y="698.0" type="line"/>
      <point x="234.0" y="304.0" type="line"/>
      <point x="143.0" y="304.0" type="line"/>
      <point x="143.0" y="606.0" type="line"/>
      <point x="72.0" y="585.0" type="line"/>
    </contour>
    <contour>
      <point x="235.0" y="0.0" type="line"/>
      <point x="125.0" y="0.0" type="line"/>
      <point x="563.0" y="692.0" type="line"/>
      <point x="670.0" y="692.0" type="line"/>
    </contour>
    <contour>
      <point x="563.0" y="287.0" type="curve"/>
      <point x="535.0" y="364.0" type="line"/>
      <point x="578.0" y="389.0"/>
      <point x="622.0" y="401.0"/>
      <point x="666.0" y="401.0" type="curve" smooth="yes"/>
      <point x="743.0" y="401.0"/>
      <point x="800.0" y="350.0"/>
      <point x="800.0" y="272.0" type="curve" smooth="yes"/>
      <point x="800.0" y="243.0"/>
      <point x="791.0" y="214.0"/>
      <point x="773.0" y="184.0" type="curve" smooth="yes"/>
      <point x="755.0" y="154.0"/>
      <point x="725.0" y="118.0"/>
      <point x="684.0" y="77.0" type="curve"/>
      <point x="809.0" y="77.0" type="line"/>
      <point x="809.0" y="-1.0" type="line"/>
      <point x="541.0" y="-1.0" type="line"/>
      <point x="541.0" y="51.0" type="line"/>
      <point x="607.0" y="113.0"/>
      <point x="712.0" y="204.0"/>
      <point x="712.0" y="258.0" type="curve" smooth="yes"/>
      <point x="712.0" y="298.0"/>
      <point x="693.0" y="315.0"/>
      <point x="652.0" y="315.0" type="curve" smooth="yes"/>
      <point x="614.0" y="315.0"/>
      <point x="591.0" y="302.0"/>
    </contour>
  </outline>
</glyph>
<glyph name="threequarters" format="2">
  <advance width="887"/>
  <unicode hex="00BE"/>
  <outline>
    <contour>
      <point x="303.0" y="582.0" type="curve" smooth="yes"/>
      <point x="303.0" y="544.0"/>
      <point x="277.0" y="512.0"/>
      <point x="254.0" y="494.0" type="curve"/>
      <point x="283.0" y="479.0"/>
      <point x="316.0" y="446.0"/>
      <point x="316.0" y="403.0" type="curve" smooth="yes"/>
      <point x="316.0" y="323.0"/>
      <point x="250.0" y="287.0"/>
      <point x="168.0" y="287.0" type="curve" smooth="yes"/>
      <point x="129.0" y="287.0"/>
      <point x="66.0" y="300.0"/>
      <point x="40.0" y="314.0" type="curve"/>
      <point x="67.0" y="394.0" type="line"/>
      <point x="90.0" y="386.0"/>
      <point x="135.0" y="373.0"/>
      <point x="167.0" y="373.0" type="curve" smooth="yes"/>
      <point x="204.0" y="373.0"/>
      <point x="223.0" y="387.0"/>
      <point x="223.0" y="414.0" type="curve" smooth="yes"/>
      <point x="223.0" y="448.0"/>
      <point x="190.0" y="455.0"/>
      <point x="151.0" y="455.0" type="curve" smooth="yes"/>
      <point x="119.0" y="455.0" type="line"/>
      <point x="119.0" y="533.0" type="line"/>
      <point x="148.0" y="533.0" type="line" smooth="yes"/>
      <point x="192.0" y="533.0"/>
      <point x="214.0" y="548.0"/>
      <point x="214.0" y="578.0" type="curve" smooth="yes"/>
      <point x="214.0" y="601.0"/>
      <point x="200.0" y="612.0"/>
      <point x="171.0" y="612.0" type="curve" smooth="yes"/>
      <point x="144.0" y="612.0"/>
      <point x="113.0" y="603.0"/>
      <point x="77.0" y="585.0" type="curve"/>
      <point x="47.0" y="663.0" type="line"/>
      <point x="85.0" y="682.0"/>
      <point x="120.0" y="698.0"/>
      <point x="170.0" y="698.0" type="curve" smooth="yes"/>
      <point x="249.0" y="698.0"/>
      <point x="303.0" y="660.0"/>
    </contour>
    <contour>
      <point x="287.0" y="0.0" type="line"/>
      <point x="176.0" y="0.0" type="line"/>
      <point x="615.0" y="692.0" type="line"/>
      <point x="721.0" y="692.0" type="line"/>
    </contour>
    <contour>
      <point x="514.0" y="149.0" type="line"/>
      <point x="683.0" y="392.0" type="line"/>
      <point x="784.0" y="392.0" type="line"/>
      <point x="784.0" y="156.0" type="line"/>
      <point x="847.0" y="156.0" type="line"/>
      <point x="847.0" y="80.0" type="line"/>
      <point x="784.0" y="80.0" type="line"/>
      <point x="784.0" y="0.0" type="line"/>
      <point x="699.0" y="0.0" type="line"/>
      <point x="699.0" y="80.0" type="line"/>
      <point x="514.0" y="80.0" type="line"/>
    </contour>
    <contour>
      <point x="699.0" y="271.0" type="line"/>
      <point x="619.0" y="156.0" type="line"/>
      <point x="699.0" y="156.0" type="line"/>
    </contour>
  </outline>
</glyph>
<glyph name="questiondown" format="2">
  <advance width="528"/>
  <unicode hex="00BF"/>
  <outline>
    <contour>
      <point x="50.0" y="-28.0" type="curve" smooth="yes"/>
      <point x="50.0" y="73.0"/>
      <point x="98.0" y="113.0"/>
      <point x="154.0" y="161.0" type="curve" smooth="yes"/>
      <point x="216.0" y="215.0"/>
      <point x="250.0" y="233.0"/>
      <point x="250.0" y="290.0" type="curve"/>
      <point x="374.0" y="290.0" type="line"/>
      <point x="374.0" y="153.0"/>
      <point x="269.0" y="142.0"/>
      <point x="192.0" y="40.0" type="curve" smooth="yes"/>
      <point x="179.0" y="22.0"/>
      <point x="173.0" y="1.0"/>
      <point x="173.0" y="-24.0" type="curve" smooth="yes"/>
      <point x="173.0" y="-85.0"/>
      <point x="225.0" y="-110.0"/>
      <point x="294.0" y="-110.0" type="curve" smooth="yes"/>
      <point x="345.0" y="-110.0"/>
      <point x="400.0" y="-95.0"/>
      <point x="458.0" y="-63.0" type="curve"/>
      <point x="498.0" y="-171.0" type="line"/>
      <point x="431.0" y="-202.0"/>
      <point x="370.0" y="-224.0"/>
      <point x="282.0" y="-224.0" type="curve" smooth="yes"/>
      <point x="153.0" y="-224.0"/>
      <point x="50.0" y="-156.0"/>
    </contour>
    <contour>
      <point x="309.0" y="507.0" type="curve" smooth="yes"/>
      <point x="348.0" y="507.0"/>
      <point x="380.0" y="474.0"/>
      <point x="380.0" y="435.0" type="curve" smooth="yes"/>
      <point x="380.0" y="396.0"/>
      <point x="348.0" y="365.0"/>
      <point x="309.0" y="365.0" type="curve" smooth="yes"/>
      <point x="270.0" y="365.0"/>
      <point x="238.0" y="396.0"/>
      <point x="238.0" y="435.0" type="curve" smooth="yes"/>
      <point x="238.0" y="474.0"/>
      <point x="270.0" y="507.0"/>
    </contour>
  </outline>
</glyph>
<glyph name="AE" format="2">
  <advance width="918"/>
  <unicode hex="00C6"/>
  <anchor x="501.0" y="0.0" name="cedilla"/>
  <anchor x="501.0" y="0.0" name="below"/>
  <anchor x="501.0" y="692.0" name="above"/>
  <outline>
    <contour>
      <point x="286.0" y="294.0" type="line"/>
      <point x="438.0" y="294.0" type="line"/>
      <point x="438.0" y="579.0" type="line"/>
    </contour>
    <contour>
      <point x="349.0" y="692.0" type="line"/>
      <point x="883.0" y="692.0" type="line"/>
      <point x="883.0" y="579.0" type="line"/>
      <point x="569.0" y="579.0" type="line"/>
      <point x="569.0" y="414.0" type="line"/>
      <point x="856.0" y="414.0" type="line"/>
      <point x="856.0" y="301.0" type="line"/>
      <point x="569.0" y="301.0" type="line"/>
      <point x="569.0" y="113.0" type="line"/>
      <point x="883.0" y="113.0" type="line"/>
      <point x="883.0" y="0.0" type="line"/>
      <point x="438.0" y="0.0" type="line"/>
      <point x="438.0" y="182.0" type="line"/>
      <point x="228.0" y="182.0" type="line"/>
      <point x="133.0" y="0.0" type="line"/>
      <point x="0.0" y="0.0" type="line"/>
    </contour>
  </outline>
</glyph>
<glyph name="Eth" format="2">
  <advance width="782"/>
  <unicode hex="00D0"/>
  <outline>
    <contour>
      <point x="30.0" y="397.0" type="line"/>
      <point x="387.0" y="397.0" type="line"/>
      <point x="387.0" y="302.0" type="line"/>
      <point x="30.0" y="302.0" type="line"/>
    </contour>
    <component base="D" xOffset="62.0"/>
  </outline>
</glyph>
<glyph name="multiply" format="2">
  <advance width="538"/>
  <unicode hex="00D7"/>
  <outline>
    <contour>
      <point x="269.0" y="240.0" type="line"/>
      <point x="140.0" y="110.0" type="line"/>
      <point x="63.0" y="187.0" type="line"/>
      <point x="192.0" y="317.0" type="line"/>
      <point x="64.0" y="447.0" type="line"/>
      <point x="140.0" y="524.0" type="line"/>
      <point x="269.0" y="394.0" type="line"/>
      <point x="399.0" y="524.0" type="line"/>
      <point x="475.0" y="447.0" type="line"/>
      <point x="346.0" y="317.0" type="line"/>
      <point x="476.0" y="187.0" type="line"/>
      <point x="399.0" y="110.0" type="line"/>
    </contour>
  </outline>
</glyph>
<glyph name="Oslash" format="2">
  <advance width="768"/>
  <unicode hex="00D8"/>
  <anchor x="390.0" y="692.0" name="above"/>
  <outline>
    <contour>
      <point x="653.0" y="694.0" type="line"/>
      <point x="723.0" y="630.0" type="line"/>
      <point x="114.0" y="0.0" type="line"/>
      <point x="48.0" y="69.0" type="line"/>
    </contour>
    <component base="O"/>
  </outline>
</glyph>
<glyph name="Thorn" format="2">
  <advance width="586"/>
  <unicode hex="00DE"/>
  <outline>
    <contour>
      <point x="35.0" y="692.0" type="line"/>
      <point x="158.0" y="692.0" type="line"/>
      <point x="158.0" y="594.0" type="line"/>
      <point x="280.0" y="594.0" type="line" smooth="yes"/>
      <point x="370.0" y="594.0"/>
      <point x="546.0" y="580.0"/>
      <point x="546.0" y="389.0" type="curve" smooth="yes"/>
      <point x="546.0" y="173.0"/>
      <point x="342.0" y="172.0"/>
      <point x="172.0" y="172.0" type="curve" smooth="yes"/>
      <point x="158.0" y="172.0" type="line"/>
      <point x="158.0" y="0.0" type="line"/>
      <point x="35.0" y="0.0" type="line"/>
    </contour>
    <contour>
      <point x="158.0" y="481.0" type="line"/>
      <point x="158.0" y="285.0" type="line"/>
      <point x="235.0" y="285.0" type="line" smooth="yes"/>
      <point x="335.0" y="285.0"/>
      <point x="420.0" y="296.0"/>
      <point x="420.0" y="389.0" type="curve" smooth="yes"/>
      <point x="420.0" y="474.0"/>
      <point x="345.0" y="481.0"/>
      <point x="255.0" y="481.0" type="curve" smooth="yes"/>
    </contour>
  </outline>
</glyph>
<glyph name="germandbls" format="2">
  <advance width="608"/>
  <unicode hex="00DF"/>
  <anchor x="237.0" y="0.0" name="below"/>
  <anchor x="231.0" y="671.0" name="above"/>
  <outline>
    <contour>
      <point x="277.0" y="349.0" type="curve" smooth="yes"/>
      <point x="277.0" y="449.0"/>
      <point x="375.0" y="446.0"/>
      <point x="375.0" y="514.0" type="curve" smooth="yes"/>
      <point x="375.0" y="565.0"/>
      <point x="330.0" y="594.0"/>
      <point x="288.0" y="594.0" type="curve" smooth="yes"/>
      <point x="267.0" y="594.0"/>
      <point x="187.0" y="584.0"/>
      <point x="187.0" y="479.0" type="curve" smooth="yes"/>
      <point x="187.0" y="0.0" type="line"/>
      <point x="67.0" y="0.0" type="line"/>
      <point x="67.0" y="479.0" type="line" smooth="yes"/>
      <point x="67.0" y="641.0"/>
      <point x="174.0" y="706.0"/>
      <point x="288.0" y="706.0" type="curve" smooth="yes"/>
      <point x="433.0" y="706.0"/>
      <point x="508.0" y="599.0"/>
      <point x="508.0" y="514.0" type="curve" smooth="yes"/>
      <point x="508.0" y="428.0"/>
      <point x="400.0" y="391.0"/>
      <point x="400.0" y="354.0" type="curve" smooth="yes"/>
      <point x="400.0" y="307.0"/>
      <point x="582.0" y="286.0"/>
      <point x="582.0" y="139.0" type="curve" smooth="yes"/>
      <point x="582.0" y="58.0"/>
      <point x="495.0" y="-10.0"/>
      <point x="370.0" y="-10.0" type="curve" smooth="yes"/>
      <point x="299.0" y="-10.0"/>
      <point x="248.0" y="4.0"/>
      <point x="218.0" y="19.0" type="curve"/>
      <point x="239.0" y="112.0" type="line"/>
      <point x="265.0" y="100.0"/>
      <point x="302.0" y="86.0"/>
      <point x="357.0" y="86.0" type="curve" smooth="yes"/>
      <point x="421.0" y="86.0"/>
      <point x="459.0" y="105.0"/>
      <point x="459.0" y="136.0" type="curve" smooth="yes"/>
      <point x="459.0" y="215.0"/>
      <point x="277.0" y="216.0"/>
    </contour>
  </outline>
</glyph>
<glyph name="ae" format="2">
  <advance width="820"/>
  <unicode hex="00E6"/>
  <anchor x="396.0" y="0.0" name="ogonek"/>
  <anchor x="252.0" y="0.0" name="below"/>
  <anchor x="277.0" y="0.0" name="cedilla"/>
  <anchor x="414.0" y="482.0" name="above"/>
  <outline>
    <contour>
      <point x="602.0" y="87.0" type="curve" smooth="yes"/>
      <point x="655.0" y="87.0"/>
      <point x="703.0" y="95.0"/>
      <point x="747.0" y="112.0" type="curve"/>
      <point x="771.0" y="20.0" type="line"/>
      <point x="712.0" y="1.0"/>
      <point x="650.0" y="-10.0"/>
      <point x="586.0" y="-10.0" type="curve" smooth="yes"/>
      <point x="424.0" y="-10.0"/>
      <point x="328.0" y="85.0"/>
      <point x="328.0" y="241.0" type="curve" smooth="yes"/>
      <point x="328.0" y="380.0"/>
      <point x="421.0" y="492.0"/>
      <point x="564.0" y="492.0" type="curve" smooth="yes"/>
      <point x="708.0" y="492.0"/>
      <point x="782.0" y="404.0"/>
      <point x="782.0" y="247.0" type="curve" smooth="yes"/>
      <point x="782.0" y="200.0" type="line"/>
      <point x="449.0" y="200.0" type="line"/>
      <point x="449.0" y="285.0" type="line"/>
      <point x="659.0" y="285.0" type="line"/>
      <point x="659.0" y="362.0"/>
      <point x="626.0" y="397.0"/>
      <point x="566.0" y="397.0" type="curve" smooth="yes"/>
      <point x="463.0" y="397.0"/>
      <point x="451.0" y="313.0"/>
      <point x="451.0" y="239.0" type="curve" smooth="yes"/>
      <point x="451.0" y="161.0"/>
      <point x="460.0" y="87.0"/>
    </contour>
    <contour>
      <point x="330.0" y="17.0" type="line"/>
      <point x="295.0" y="-1.0"/>
      <point x="253.0" y="-10.0"/>
      <point x="201.0" y="-10.0" type="curve" smooth="yes"/>
      <point x="105.0" y="-10.0"/>
      <point x="28.0" y="42.0"/>
      <point x="28.0" y="134.0" type="curve" smooth="yes"/>
      <point x="28.0" y="272.0"/>
      <point x="182.0" y="285.0"/>
      <point x="330.0" y="285.0" type="curve"/>
      <point x="330.0" y="200.0" type="line"/>
      <point x="256.0" y="200.0"/>
      <point x="151.0" y="200.0"/>
      <point x="151.0" y="143.0" type="curve" smooth="yes"/>
      <point x="151.0" y="103.0"/>
      <point x="187.0" y="86.0"/>
      <point x="231.0" y="86.0" type="curve" smooth="yes"/>
      <point x="275.0" y="86.0"/>
      <point x="304.0" y="98.0"/>
      <point x="330.0" y="114.0" type="curve"/>
    </contour>
    <contour>
      <point x="416.0" y="64.0" type="line"/>
      <point x="330.0" y="17.0" type="line"/>
      <point x="330.0" y="295.0" type="line" smooth="yes"/>
      <point x="330.0" y="380.0"/>
      <point x="304.0" y="401.0"/>
      <point x="213.0" y="401.0" type="curve" smooth="yes"/>
      <point x="175.0" y="401.0"/>
      <point x="120.0" y="386.0"/>
      <point x="89.0" y="369.0" type="curve"/>
      <point x="65.0" y="461.0" type="line"/>
      <point x="89.0" y="477.0"/>
      <point x="169.0" y="492.0"/>
      <point x="232.0" y="492.0" type="curve" smooth="yes"/>
      <point x="382.0" y="492.0"/>
      <point x="453.0" y="436.0"/>
      <point x="453.0" y="297.0" type="curve" smooth="yes"/>
      <point x="453.0" y="41.0" type="line"/>
    </contour>
  </outline>
</glyph>
<glyph name="eth" format="2">
  <advance width="535"/>
  <unicode hex="00F0"/>
  <outline>
    <contour>
      <point x="170.0" y="459.0" type="line"/>
      <point x="129.0" y="522.0" type="line"/>
      <point x="425.0" y="718.0" type="line"/>
      <point x="466.0" y="655.0" type="line"/>
    </contour>
    <contour>
      <point x="267.0" y="-10.0" type="curve" smooth="yes"/>
      <point x="131.0" y="-10.0"/>
      <point x="45.0" y="80.0"/>
      <point x="45.0" y="215.0" type="curve" smooth="yes"/>
      <point x="45.0" y="351.0"/>
      <point x="131.0" y="442.0"/>
      <point x="267.0" y="442.0" type="curve" smooth="yes"/>
      <point x="297.0" y="442.0"/>
      <point x="327.0" y="435.0"/>
      <point x="354.0" y="423.0" type="curve"/>
      <point x="316.0" y="561.0"/>
      <point x="231.0" y="591.0"/>
      <point x="126.0" y="631.0" type="curve"/>
      <point x="162.0" y="718.0" type="line"/>
      <point x="329.0" y="664.0"/>
      <point x="490.0" y="571.0"/>
      <point x="490.0" y="216.0" type="curve" smooth="yes"/>
      <point x="490.0" y="81.0"/>
      <point x="403.0" y="-10.0"/>
    </contour>
    <contour>
      <point x="267.0" y="343.0" type="curve" smooth="yes"/>
      <point x="189.0" y="343.0"/>
      <point x="158.0" y="295.0"/>
      <point x="158.0" y="215.0" type="curve" smooth="yes"/>
      <point x="158.0" y="135.0"/>
      <point x="189.0" y="89.0"/>
      <point x="267.0" y="89.0" type="curve" smooth="yes"/>
      <point x="345.0" y="89.0"/>
      <point x="376.0" y="135.0"/>
      <point x="376.0" y="215.0" type="curve" smooth="yes"/>
      <point x="376.0" y="334.0"/>
      <point x="365.0" y="343.0"/>
    </contour>
  </outline>
</glyph>
<glyph name="divide" format="2">
  <advance width="643"/>
  <unicode hex="00F7"/>
  <outline>
    <contour>
      <point x="325.0" y="440.0" type="curve" smooth="yes"/>
      <point x="284.0" y="440.0"/>
      <point x="250.0" y="473.0"/>
      <point x="250.0" y="514.0" type="curve" smooth="yes"/>
      <point x="250.0" y="555.0"/>
      <point x="284.0" y="587.0"/>
      <point x="325.0" y="587.0" type="curve" smooth="yes"/>
      <point x="366.0" y="587.0"/>
      <point x="398.0" y="555.0"/>
      <point x="398.0" y="514.0" type="curve" smooth="yes"/>
      <point x="398.0" y="473.0"/>
      <point x="366.0" y="440.0"/>
    </contour>
    <contour>
      <point x="581.0" y="267.0" type="line"/>
      <point x="63.0" y="267.0" type="line"/>
      <point x="63.0" y="375.0" type="line"/>
      <point x="581.0" y="375.0" type="line"/>
    </contour>
    <contour>
      <point x="325.0" y="55.0" type="curve" smooth="yes"/>
      <point x="284.0" y="55.0"/>
      <point x="250.0" y="88.0"/>
      <point x="250.0" y="129.0" type="curve" smooth="yes"/>
      <point x="250.0" y="170.0"/>
      <point x="284.0" y="202.0"/>
      <point x="325.0" y="202.0" type="curve" smooth="yes"/>
      <point x="366.0" y="202.0"/>
      <point x="398.0" y="170.0"/>
      <point x="398.0" y="129.0" type="curve" smooth="yes"/>
      <point x="398.0" y="88.0"/>
      <point x="366.0" y="55.0"/>
    </contour>
  </outline>
</glyph>
<glyph name="oslash" format="2">
  <advance width="578"/>
  <unicode hex="00F8"/>
  <anchor x="280.0" y="482.0" name="above"/>
  <outline>
    <contour>
      <point x="464.0" y="482.0" type="line"/>
      <point x="532.0" y="416.0" type="line"/>
      <point x="113.0" y="0.0" type="line"/>
      <point x="47.0" y="67.0" type="line"/>
    </contour>
    <component base="o"/>
  </outline>
</glyph>
<glyph name="thorn" format="2">
  <advance width="576"/>
  <unicode hex="00FE"/>
  <outline>
    <contour>
      <point x="187.0" y="718.0" type="line"/>
      <point x="187.0" y="459.0" type="line"/>
      <point x="215.0" y="473.0"/>
      <point x="258.0" y="492.0"/>
      <point x="308.0" y="492.0" type="curve" smooth="yes"/>
      <point x="401.0" y="492.0"/>
      <point x="538.0" y="433.0"/>
      <point x="538.0" y="238.0" type="curve" smooth="yes"/>
      <point x="538.0" y="83.0"/>
      <point x="449.0" y="-10.0"/>
      <point x="292.0" y="-10.0" type="curve" smooth="yes"/>
      <point x="250.0" y="-10.0"/>
      <point x="220.0" y="-2.0"/>
      <point x="187.0" y="15.0" type="curve"/>
      <point x="187.0" y="-259.0" type="line"/>
      <point x="67.0" y="-259.0" type="line"/>
      <point x="67.0" y="718.0" type="line"/>
    </contour>
    <contour>
      <point x="275.0" y="395.0" type="curve" smooth="yes"/>
      <point x="249.0" y="395.0"/>
      <point x="220.0" y="388.0"/>
      <point x="188.0" y="376.0" type="curve"/>
      <point x="188.0" y="106.0" type="line"/>
      <point x="210.0" y="93.0"/>
      <point x="237.0" y="82.0"/>
      <point x="271.0" y="82.0" type="curve" smooth="yes"/>
      <point x="351.0" y="82.0"/>
      <point x="415.0" y="125.0"/>
      <point x="415.0" y="238.0" type="curve" smooth="yes"/>
      <point x="415.0" y="363.0"/>
      <point x="355.0" y="395.0"/>
    </contour>
  </outline>
</glyph>
<glyph name="Aogonek" format="2">
  <advance width="658"/>
  <unicode hex="0104"/>
  <outline>
    <contour>
      <point x="652.0" y="0.0" type="line"/>
      <point x="616.0" y="-17.0"/>
      <point x="483.0" y="-103.0"/>
      <point x="483.0" y="-144.0" type="curve" smooth="yes"/>
      <point x="483.0" y="-160.0"/>
      <point x="496.0" y="-173.0"/>
      <point x="527.0" y="-173.0" type="curve" smooth="yes"/>
      <point x="549.0" y="-173.0"/>
      <point x="575.0" y="-165.0"/>
      <point x="575.0" y="-165.0" type="curve"/>
      <point x="593.0" y="-250.0" type="line"/>
      <point x="581.0" y="-254.0"/>
      <point x="551.0" y="-262.0"/>
      <point x="506.0" y="-262.0" type="curve" smooth="yes"/>
      <point x="403.0" y="-262.0"/>
      <point x="371.0" y="-208.0"/>
      <point x="371.0" y="-168.0" type="curve" smooth="yes"/>
      <point x="371.0" y="-114.0"/>
      <point x="401.0" y="-85.0"/>
      <point x="414.0" y="-72.0" type="curve" smooth="yes"/>
      <point x="456.0" y="-30.0"/>
      <point x="526.0" y="17.0"/>
      <point x="528.0" y="18.0" type="curve"/>
      <point x="591.0" y="0.0" type="line"/>
    </contour>
    <component base="A"/>
  </outline>
</glyph>
<glyph name="dcroat" format="2">
  <advance width="579"/>
  <unicode hex="0111"/>
  <outline>
    <contour>
      <point x="217.0" y="643.0" type="line"/>
      <point x="553.0" y="643.0" type="line"/>
      <point x="553.0" y="548.0" type="line"/>
      <point x="217.0" y="548.0" type="line"/>
    </contour>
    <component base="d"/>
  </outline>
</glyph>
<glyph name="Eogonek" format="2">
  <advance width="557"/>
  <unicode hex="0118"/>
  <outline>
    <contour>
      <point x="522.0" y="0.0" type="curve"/>
      <point x="487.0" y="-17.0"/>
      <point x="371.0" y="-103.0"/>
      <point x="371.0" y="-144.0" type="curve" smooth="yes"/>
      <point x="371.0" y="-160.0"/>
      <point x="384.0" y="-173.0"/>
      <point x="415.0" y="-173.0" type="curve" smooth="yes"/>
      <point x="437.0" y="-173.0"/>
      <point x="463.0" y="-165.0"/>
      <point x="463.0" y="-165.0" type="curve"/>
      <point x="481.0" y="-250.0" type="line"/>
      <point x="469.0" y="-254.0"/>
      <point x="439.0" y="-262.0"/>
      <point x="394.0" y="-262.0" type="curve" smooth="yes"/>
      <point x="291.0" y="-262.0"/>
      <point x="259.0" y="-208.0"/>
      <point x="259.0" y="-168.0" type="curve" smooth="yes"/>
      <point x="259.0" y="-114.0"/>
      <point x="289.0" y="-85.0"/>
      <point x="302.0" y="-72.0" type="curve" smooth="yes"/>
      <point x="344.0" y="-30.0"/>
      <point x="389.0" y="-1.0"/>
      <point x="391.0" y="0.0" type="curve"/>
      <point x="435.0" y="0.0"/>
      <point x="478.0" y="0.0"/>
    </contour>
    <component base="E"/>
  </outline>
</glyph>
<glyph name="eogonek" format="2">
  <advance width="530"/>
  <unicode hex="0119"/>
  <anchor x="272.0" y="482.0" name="above"/>
  <outline>
    <contour>
      <point x="468.0" y="20.0" type="line"/>
      <point x="431.0" y="3.0"/>
      <point x="296.0" y="-106.0"/>
      <point x="296.0" y="-141.0" type="curve" smooth="yes"/>
      <point x="296.0" y="-157.0"/>
      <point x="309.0" y="-170.0"/>
      <point x="340.0" y="-170.0" type="curve" smooth="yes"/>
      <point x="362.0" y="-170.0"/>
      <point x="388.0" y="-162.0"/>
      <point x="388.0" y="-162.0" type="curve"/>
      <point x="406.0" y="-247.0" type="line"/>
      <point x="394.0" y="-251.0"/>
      <point x="364.0" y="-259.0"/>
      <point x="319.0" y="-259.0" type="curve" smooth="yes"/>
      <point x="216.0" y="-259.0"/>
      <point x="184.0" y="-205.0"/>
      <point x="184.0" y="-165.0" type="curve" smooth="yes"/>
      <point x="184.0" y="-111.0"/>
      <point x="214.0" y="-82.0"/>
      <point x="227.0" y="-69.0" type="curve" smooth="yes"/>
      <point x="269.0" y="-27.0"/>
      <point x="306.0" y="2.0"/>
      <point x="308.0" y="3.0" type="curve" smooth="yes"/>
      <point x="404.0" y="55.0" type="line"/>
    </contour>
    <component base="e"/>
  </outline>
</glyph>
<glyph name="Hbar" format="2">
  <advance width="824"/>
  <unicode hex="0126"/>
  <outline>
    <contour>
      <point x="30.0" y="612.0" type="line"/>
      <point x="794.0" y="612.0" type="line"/>
      <point x="794.0" y="517.0" type="line"/>
      <point x="30.0" y="517.0" type="line"/>
    </contour>
    <component base="H" xOffset="41.0"/>
  </outline>
</glyph>
<glyph name="hbar" format="2">
  <advance width="576"/>
  <unicode hex="0127"/>
  <outline>
    <contour>
      <point x="-1.0" y="638.0" type="line"/>
      <point x="316.0" y="638.0" type="line"/>
      <point x="316.0" y="543.0" type="line"/>
      <point x="-1.0" y="543.0" type="line"/>
    </contour>
    <component base="h"/>
  </outline>
</glyph>
<glyph name="iogonek" format="2">
  <advance width="253"/>
  <unicode hex="012F"/>
  <outline>
    <contour>
      <point x="187.0" y="-43.0" type="line"/>
      <point x="152.0" y="-60.0"/>
      <point x="37.0" y="-103.0"/>
      <point x="37.0" y="-144.0" type="curve" smooth="yes"/>
      <point x="37.0" y="-160.0"/>
      <point x="50.0" y="-173.0"/>
      <point x="81.0" y="-173.0" type="curve" smooth="yes"/>
      <point x="103.0" y="-173.0"/>
      <point x="129.0" y="-165.0"/>
      <point x="129.0" y="-165.0" type="curve"/>
      <point x="147.0" y="-250.0" type="line"/>
      <point x="135.0" y="-254.0"/>
      <point x="105.0" y="-262.0"/>
      <point x="60.0" y="-262.0" type="curve" smooth="yes"/>
      <point x="-43.0" y="-262.0"/>
      <point x="-75.0" y="-208.0"/>
      <point x="-75.0" y="-168.0" type="curve" smooth="yes"/>
      <point x="-75.0" y="-114.0"/>
      <point x="-45.0" y="-85.0"/>
      <point x="-32.0" y="-72.0" type="curve" smooth="yes"/>
      <point x="6.0" y="-36.0"/>
      <point x="67.0" y="0.0"/>
      <point x="67.0" y="0.0" type="curve"/>
      <point x="187.0" y="0.0" type="line"/>
    </contour>
    <component base="i"/>
  </outline>
</glyph>
<glyph name="idotless" format="2">
  <advance width="253"/>
  <unicode hex="0131"/>
  <anchor x="127.0" y="0.0" name="below"/>
  <anchor x="127.0" y="481.0" name="above"/>
  <outline>
    <contour>
      <point x="67.0" y="481.0" type="line"/>
      <point x="187.0" y="481.0" type="line"/>
      <point x="187.0" y="0.0" type="line"/>
      <point x="67.0" y="0.0" type="line"/>
    </contour>
  </outline>
</glyph>
<glyph name="kgreenlandic" format="2">
  <advance width="572"/>
  <unicode hex="0138"/>
  <anchor x="444.0" y="0.0" name="cedilla"/>
  <anchor x="306.0" y="482.0" name="above"/>
  <anchor x="306.0" y="0.0" name="below"/>
  <outline>
    <contour>
      <point x="187.0" y="271.0" type="line"/>
      <point x="410.0" y="482.0" type="line"/>
      <point x="546.0" y="482.0" type="line"/>
      <point x="315.0" y="256.0" type="line"/>
      <point x="572.0" y="0.0" type="line"/>
      <point x="421.0" y="0.0" type="line"/>
      <point x="187.0" y="223.0" type="line"/>
      <point x="187.0" y="0.0" type="line"/>
      <point x="67.0" y="0.0" type="line"/>
      <point x="67.0" y="482.0" type="line"/>
      <point x="187.0" y="482.0" type="line"/>
    </contour>
  </outline>
</glyph>
<glyph name="Lslash" format="2">
  <advance width="545"/>
  <unicode hex="0141"/>
  <outline>
    <contour>
      <point x="62.0" y="269.0" type="line"/>
      <point x="18.0" y="367.0" type="line"/>
      <point x="348.0" y="533.0" type="line"/>
      <point x="392.0" y="434.0" type="line"/>
    </contour>
    <component base="L" xOffset="24.0"/>
  </outline>
</glyph>
<glyph name="lslash" format="2">
  <advance width="334"/>
  <unicode hex="0142"/>
  <outline>
    <contour>
      <point x="54.0" y="285.0" type="line"/>
      <point x="10.0" y="383.0" type="line"/>
      <point x="262.0" y="510.0" type="line"/>
      <point x="306.0" y="411.0" type="line"/>
    </contour>
    <component base="l" xOffset="30.0"/>
  </outline>
</glyph>
<glyph name="Eng" format="2">
  <advance width="780"/>
  <unicode hex="014A"/>
  <anchor x="382.0" y="-178.0" name="below"/>
  <anchor x="382.0" y="-178.0" name="cedilla"/>
  <anchor x="382.0" y="692.0" name="above"/>
  <outline>
    <contour>
      <point x="587.0" y="14.0" type="curve" smooth="yes"/>
      <point x="587.0" y="390.0" type="line" smooth="yes"/>
      <point x="587.0" y="450.0"/>
      <point x="587.0" y="579.0"/>
      <point x="420.0" y="579.0" type="curve" smooth="yes"/>
      <point x="377.0" y="579.0"/>
      <point x="311.0" y="568.0"/>
      <point x="197.0" y="523.0" type="curve"/>
      <point x="197.0" y="0.0" type="line"/>
      <point x="70.0" y="0.0" type="line"/>
      <point x="70.0" y="694.0" type="line"/>
      <point x="157.0" y="694.0" type="line"/>
      <point x="178.0" y="632.0" type="line"/>
      <point x="317.0" y="688.0"/>
      <point x="396.0" y="701.0"/>
      <point x="456.0" y="701.0" type="curve" smooth="yes"/>
      <point x="607.0" y="701.0"/>
      <point x="691.0" y="615.0"/>
      <point x="707.0" y="500.0" type="curve" smooth="yes"/>
      <point x="710.0" y="474.0"/>
      <point x="710.0" y="449.0"/>
      <point x="710.0" y="424.0" type="curve" smooth="yes"/>
      <point x="710.0" y="3.0" type="line" smooth="yes"/>
      <point x="710.0" y="-137.0"/>
      <point x="619.0" y="-178.0"/>
      <point x="528.0" y="-178.0" type="curve" smooth="yes"/>
      <point x="502.0" y="-178.0"/>
      <point x="462.0" y="-176.0"/>
      <point x="401.0" y="-161.0" type="curve" smooth="yes"/>
      <point x="380.0" y="-156.0" type="line"/>
      <point x="402.0" y="-58.0" type="line"/>
      <point x="424.0" y="-62.0" type="line" smooth="yes"/>
      <point x="464.0" y="-69.0"/>
      <point x="489.0" y="-71.0"/>
      <point x="503.0" y="-71.0" type="curve" smooth="yes"/>
      <point x="586.0" y="-71.0"/>
      <point x="587.0" y="-14.0"/>
    </contour>
  </outline>
</glyph>
<glyph name="eng" format="2">
  <advance width="606"/>
  <unicode hex="014B"/>
  <anchor x="300.0" y="-168.0" name="cedilla"/>
  <anchor x="300.0" y="482.0" name="above"/>
  <anchor x="300.0" y="-168.0" name="below"/>
  <outline>
    <contour>
      <point x="319.0" y="380.0" type="curve" smooth="yes"/>
      <point x="295.0" y="380.0"/>
      <point x="251.0" y="375.0"/>
      <point x="191.0" y="353.0" type="curve"/>
      <point x="191.0" y="0.0" type="line"/>
      <point x="66.0" y="0.0" type="line"/>
      <point x="66.0" y="482.0" type="line"/>
      <point x="155.0" y="482.0" type="line"/>
      <point x="171.0" y="450.0" type="line"/>
      <point x="252.0" y="484.0"/>
      <point x="317.0" y="492.0"/>
      <point x="357.0" y="492.0" type="curve" smooth="yes"/>
      <point x="539.0" y="492.0"/>
      <point x="544.0" y="346.0"/>
      <point x="544.0" y="292.0" type="curve" smooth="yes"/>
      <point x="544.0" y="12.0" type="line" smooth="yes"/>
      <point x="544.0" y="-84.0"/>
      <point x="513.0" y="-169.0"/>
      <point x="384.0" y="-169.0" type="curve" smooth="yes"/>
      <point x="357.0" y="-169.0"/>
      <point x="315.0" y="-166.0"/>
      <point x="249.0" y="-151.0" type="curve" smooth="yes"/>
      <point x="227.0" y="-146.0" type="line"/>
      <point x="250.0" y="-49.0" type="line"/>
      <point x="273.0" y="-52.0" type="line" smooth="yes"/>
      <point x="335.0" y="-61.0"/>
      <point x="341.0" y="-62.0"/>
      <point x="356.0" y="-62.0" type="curve" smooth="yes"/>
      <point x="413.0" y="-62.0"/>
      <point x="424.0" y="-30.0"/>
      <point x="424.0" y="12.0" type="curve" smooth="yes"/>
      <point x="424.0" y="284.0" type="line" smooth="yes"/>
      <point x="424.0" y="318.0"/>
      <point x="420.0" y="380.0"/>
    </contour>
  </outline>
</glyph>
<glyph name="OE" format="2">
  <advance width="903"/>
  <unicode hex="0152"/>
  <outline>
    <contour>
      <point x="167.0" y="356.0" type="curve" smooth="yes"/>
      <point x="167.0" y="218.0"/>
      <point x="230.0" y="113.0"/>
      <point x="416.0" y="113.0" type="curve"/>
      <point x="416.0" y="579.0" type="line"/>
      <point x="228.0" y="579.0"/>
      <point x="167.0" y="493.0"/>
    </contour>
    <contour>
      <point x="380.0" y="0.0" type="line" smooth="yes"/>
      <point x="176.0" y="0.0"/>
      <point x="40.0" y="144.0"/>
      <point x="40.0" y="348.0" type="curve" smooth="yes"/>
      <point x="40.0" y="549.0"/>
      <point x="178.0" y="692.0"/>
      <point x="384.0" y="692.0" type="curve" smooth="yes"/>
      <point x="868.0" y="692.0" type="line"/>
      <point x="868.0" y="579.0" type="line"/>
      <point x="539.0" y="579.0" type="line"/>
      <point x="539.0" y="422.0" type="line"/>
      <point x="832.0" y="422.0" type="line"/>
      <point x="832.0" y="309.0" type="line"/>
      <point x="539.0" y="309.0" type="line"/>
      <point x="539.0" y="113.0" type="line"/>
      <point x="868.0" y="113.0" type="line"/>
      <point x="868.0" y="0.0" type="line"/>
    </contour>
  </outline>
</glyph>
<glyph name="Tbar" format="2">
  <advance width="591"/>
  <unicode hex="0166"/>
  <outline>
    <contour>
      <point x="47.0" y="388.0" type="line"/>
      <point x="535.0" y="388.0" type="line"/>
      <point x="535.0" y="293.0" type="line"/>
      <point x="47.0" y="293.0" type="line"/>
    </contour>
    <component base="T"/>
  </outline>
</glyph>
<glyph name="tbar" format="2">
  <advance width="438"/>
  <unicode hex="0167"/>
  <outline>
    <contour>
      <point x="21.0" y="307.0" type="line"/>
      <point x="388.0" y="307.0" type="line"/>
      <point x="388.0" y="212.0" type="line"/>
      <point x="21.0" y="212.0" type="line"/>
    </contour>
    <component base="t"/>
  </outline>
</glyph>
<glyph name="Uogonek" format="2">
  <advance width="710"/>
  <unicode hex="0172"/>
  <outline>
    <contour>
      <point x="567.0" y="54.0" type="line"/>
      <point x="484.0" y="8.0"/>
      <point x="440.0" y="-74.0"/>
      <point x="440.0" y="-144.0" type="curve" smooth="yes"/>
      <point x="440.0" y="-160.0"/>
      <point x="453.0" y="-173.0"/>
      <point x="484.0" y="-173.0" type="curve" smooth="yes"/>
      <point x="506.0" y="-173.0"/>
      <point x="532.0" y="-165.0"/>
      <point x="532.0" y="-165.0" type="curve"/>
      <point x="550.0" y="-250.0" type="line"/>
      <point x="538.0" y="-254.0"/>
      <point x="508.0" y="-262.0"/>
      <point x="463.0" y="-262.0" type="curve" smooth="yes"/>
      <point x="360.0" y="-262.0"/>
      <point x="328.0" y="-208.0"/>
      <point x="328.0" y="-168.0" type="curve" smooth="yes"/>
      <point x="328.0" y="-76.0"/>
      <point x="420.0" y="70.0"/>
      <point x="463.0" y="88.0" type="curve"/>
      <point x="515.0" y="74.0" type="line"/>
    </contour>
    <component base="U"/>
  </outline>
</glyph>
<glyph name="Ereversed" format="2">
  <advance width="557"/>
  <unicode hex="018E"/>
  <anchor x="86.0" y="0.0" name="ogonek"/>
  <anchor x="255.0" y="0.0" name="below"/>
  <anchor x="259.0" y="692.0" name="above"/>
  <anchor x="253.0" y="0.0" name="cedilla"/>
  <outline>
    <contour>
      <point x="487.0" y="0.0" type="line"/>
      <point x="35.0" y="0.0" type="line"/>
      <point x="35.0" y="113.0" type="line"/>
      <point x="364.0" y="113.0" type="line"/>
      <point x="364.0" y="294.0" type="line"/>
      <point x="71.0" y="294.0" type="line"/>
      <point x="71.0" y="407.0" type="line"/>
      <point x="364.0" y="407.0" type="line"/>
      <point x="364.0" y="579.0" type="line"/>
      <point x="35.0" y="579.0" type="line"/>
      <point x="35.0" y="692.0" type="line"/>
      <point x="487.0" y="692.0" type="line"/>
    </contour>
  </outline>
</glyph>
<glyph name="Schwa" format="2">
  <advance width="768"/>
  <unicode hex="018F"/>
  <outline>
    <contour>
      <point x="177.0" y="275.0" type="line"/>
      <point x="203.0" y="175.0"/>
      <point x="278.0" y="107.0"/>
      <point x="388.0" y="107.0" type="curve" smooth="yes"/>
      <point x="499.0" y="107.0"/>
      <point x="571.0" y="173.0"/>
      <point x="593.0" y="275.0" type="curve"/>
    </contour>
    <contour>
      <point x="599.0" y="388.0" type="line"/>
      <point x="584.0" y="509.0"/>
      <point x="503.0" y="591.0"/>
      <point x="379.0" y="591.0" type="curve" smooth="yes"/>
      <point x="266.0" y="591.0"/>
      <point x="186.0" y="545.0"/>
      <point x="186.0" y="545.0" type="curve"/>
      <point x="154.0" y="648.0" type="line"/>
      <point x="154.0" y="648.0"/>
      <point x="254.0" y="706.0"/>
      <point x="384.0" y="706.0" type="curve" smooth="yes"/>
      <point x="590.0" y="706.0"/>
      <point x="728.0" y="563.0"/>
      <point x="728.0" y="355.0" type="curve" smooth="yes"/>
      <point x="728.0" y="143.0"/>
      <point x="590.0" y="-10.0"/>
      <point x="380.0" y="-10.0" type="curve" smooth="yes"/>
      <point x="176.0" y="-10.0"/>
      <point x="40.0" y="138.0"/>
      <point x="40.0" y="348.0" type="curve" smooth="yes"/>
      <point x="40.0" y="388.0" type="line"/>
    </contour>
  </outline>
</glyph>
<glyph name="Fhook" format="2">
  <advance width="553"/>
  <unicode hex="0191"/>
  <outline>
    <contour>
      <point x="14.0" y="-166.0" type="curve" smooth="yes"/>
      <point x="61.0" y="-166.0"/>
      <point x="70.0" y="-127.0"/>
      <point x="70.0" y="-65.0" type="curve" smooth="yes"/>
      <point x="70.0" y="0.0" type="line"/>
      <point x="193.0" y="0.0" type="line"/>
      <point x="193.0" y="-90.0" type="line" smooth="yes"/>
      <point x="193.0" y="-178.0"/>
      <point x="165.0" y="-265.0"/>
      <point x="30.0" y="-265.0" type="curve" smooth="yes"/>
      <point x="-5.0" y="-265.0"/>
      <point x="-38.0" y="-255.0"/>
      <point x="-38.0" y="-255.0" type="curve"/>
      <point x="-14.0" y="-163.0" type="line"/>
      <point x="-14.0" y="-163.0"/>
      <point x="-1.0" y="-166.0"/>
    </contour>
    <component base="F"/>
  </outline>
</glyph>
<glyph name="florin" format="2">
  <advance width="443"/>
  <unicode hex="0192"/>
  <outline>
    <contour>
      <point x="54.0" y="-166.0" type="curve" smooth="yes"/>
      <point x="93.0" y="-166.0"/>
      <point x="100.0" y="-127.0"/>
      <point x="100.0" y="-65.0" type="curve" smooth="yes"/>
      <point x="100.0" y="0.0" type="line"/>
      <point x="223.0" y="0.0" type="line"/>
      <point x="223.0" y="-90.0" type="line" smooth="yes"/>
      <point x="223.0" y="-178.0"/>
      <point x="197.0" y="-265.0"/>
      <point x="70.0" y="-265.0" type="curve" smooth="yes"/>
      <point x="35.0" y="-265.0"/>
      <point x="2.0" y="-255.0"/>
      <point x="2.0" y="-255.0" type="curve"/>
      <point x="26.0" y="-163.0" type="line"/>
      <point x="26.0" y="-163.0"/>
      <point x="39.0" y="-166.0"/>
    </contour>
    <component base="f"/>
  </outline>
</glyph>
<glyph name="Uhorn" format="2">
  <advance width="704"/>
  <unicode hex="01AF"/>
  <anchor x="354.0" y="692.0" name="above"/>
  <outline>
    <contour>
      <point x="637.0" y="825.0" type="line"/>
      <point x="750.0" y="825.0" type="line"/>
      <point x="750.0" y="789.0" type="line" smooth="yes"/>
      <point x="750.0" y="768.0"/>
      <point x="750.0" y="729.0"/>
      <point x="735.0" y="699.0" type="curve" smooth="yes"/>
      <point x="698.0" y="620.0"/>
      <point x="646.0" y="608.0"/>
      <point x="636.0" y="606.0" type="curve"/>
      <point x="636.0" y="249.0" type="line" smooth="yes"/>
      <point x="636.0" y="165.0"/>
      <point x="622.0" y="-11.0"/>
      <point x="352.0" y="-11.0" type="curve" smooth="yes"/>
      <point x="82.0" y="-11.0"/>
      <point x="68.0" y="165.0"/>
      <point x="68.0" y="249.0" type="curve" smooth="yes"/>
      <point x="68.0" y="691.0" type="line"/>
      <point x="191.0" y="691.0" type="line"/>
      <point x="191.0" y="255.0" type="line" smooth="yes"/>
      <point x="191.0" y="152.0"/>
      <point x="252.0" y="103.0"/>
      <point x="352.0" y="103.0" type="curve" smooth="yes"/>
      <point x="452.0" y="103.0"/>
      <point x="513.0" y="152.0"/>
      <point x="513.0" y="255.0" type="curve" smooth="yes"/>
      <point x="513.0" y="691.0" type="line"/>
      <point x="581.0" y="691.0"/>
      <point x="611.0" y="692.0"/>
      <point x="629.0" y="734.0" type="curve" smooth="yes"/>
      <point x="635.0" y="749.0"/>
      <point x="637.0" y="787.0"/>
      <point x="637.0" y="797.0" type="curve" smooth="yes"/>
    </contour>
  </outline>
</glyph>
<glyph name="uhorn" format="2">
  <advance width="561"/>
  <unicode hex="01B0"/>
  <anchor x="282.0" y="481.0" name="above"/>
  <outline>
    <contour>
      <point x="496.0" y="632.0" type="line"/>
      <point x="609.0" y="632.0" type="line"/>
      <point x="609.0" y="596.0" type="line" smooth="yes"/>
      <point x="609.0" y="575.0"/>
      <point x="609.0" y="536.0"/>
      <point x="594.0" y="506.0" type="curve" smooth="yes"/>
      <point x="557.0" y="427.0"/>
      <point x="505.0" y="415.0"/>
      <point x="495.0" y="413.0" type="curve"/>
      <point x="494.0" y="413.0" type="line"/>
      <point x="494.0" y="0.0" type="line"/>
      <point x="398.0" y="0.0" type="line"/>
      <point x="382.0" y="32.0" type="line"/>
      <point x="350.0" y="10.0"/>
      <point x="303.0" y="-10.0"/>
      <point x="237.0" y="-10.0" type="curve" smooth="yes"/>
      <point x="70.0" y="-10.0"/>
      <point x="62.0" y="123.0"/>
      <point x="62.0" y="207.0" type="curve" smooth="yes"/>
      <point x="62.0" y="481.0" type="line"/>
      <point x="182.0" y="481.0" type="line"/>
      <point x="182.0" y="186.0" type="line" smooth="yes"/>
      <point x="182.0" y="150.0"/>
      <point x="192.0" y="88.0"/>
      <point x="269.0" y="88.0" type="curve" smooth="yes"/>
      <point x="291.0" y="88.0"/>
      <point x="331.0" y="93.0"/>
      <point x="374.0" y="115.0" type="curve"/>
      <point x="374.0" y="481.0" type="line"/>
      <point x="441.0" y="481.0"/>
      <point x="469.0" y="495.0"/>
      <point x="488.0" y="541.0" type="curve" smooth="yes"/>
      <point x="494.0" y="556.0"/>
      <point x="496.0" y="594.0"/>
      <point x="496.0" y="604.0" type="curve" smooth="yes"/>
    </contour>
  </outline>
</glyph>
<glyph name="eturned" format="2">
  <advance width="530"/>
  <unicode hex="01DD"/>
  <anchor x="281.0" y="482.0" name="above"/>
  <outline>
    <contour>
      <point x="266.0" y="-10.0" type="curve" smooth="yes"/>
      <point x="115.0" y="-10.0"/>
      <point x="38.0" y="74.0"/>
      <point x="38.0" y="225.0" type="curve" smooth="yes"/>
      <point x="38.0" y="272.0" type="line"/>
      <point x="369.0" y="272.0" type="line"/>
      <point x="362.0" y="354.0"/>
      <point x="310.0" y="395.0"/>
      <point x="218.0" y="395.0" type="curve" smooth="yes"/>
      <point x="169.0" y="395.0"/>
      <point x="124.0" y="390.0"/>
      <point x="83.0" y="380.0" type="curve"/>
      <point x="62.0" y="462.0" type="line"/>
      <point x="117.0" y="481.0"/>
      <point x="174.0" y="492.0"/>
      <point x="234.0" y="492.0" type="curve" smooth="yes"/>
      <point x="396.0" y="492.0"/>
      <point x="492.0" y="397.0"/>
      <point x="492.0" y="241.0" type="curve" smooth="yes"/>
      <point x="492.0" y="102.0"/>
      <point x="403.0" y="-10.0"/>
    </contour>
    <contour>
      <point x="366.0" y="187.0" type="curve"/>
      <point x="158.0" y="187.0" type="line"/>
      <point x="158.0" y="117.0"/>
      <point x="196.0" y="85.0"/>
      <point x="264.0" y="85.0" type="curve" smooth="yes"/>
      <point x="325.0" y="85.0"/>
      <point x="363.0" y="125.0"/>
    </contour>
  </outline>
</glyph>
<glyph name="jdotless" format="2">
  <advance width="253"/>
  <unicode hex="0237"/>
  <anchor x="54.0" y="-178.0" name="cedilla"/>
  <anchor x="127.0" y="-207.0" name="below"/>
  <anchor x="127.0" y="481.0" name="above"/>
  <outline>
    <contour>
      <point x="21.0" y="-111.0" type="curve" smooth="yes"/>
      <point x="60.0" y="-111.0"/>
      <point x="67.0" y="-72.0"/>
      <point x="67.0" y="-10.0" type="curve" smooth="yes"/>
      <point x="67.0" y="481.0" type="line"/>
      <point x="190.0" y="481.0" type="line"/>
      <point x="190.0" y="-35.0" type="line" smooth="yes"/>
      <point x="190.0" y="-123.0"/>
      <point x="164.0" y="-210.0"/>
      <point x="37.0" y="-210.0" type="curve" smooth="yes"/>
      <point x="2.0" y="-210.0"/>
      <point x="-31.0" y="-200.0"/>
      <point x="-31.0" y="-200.0" type="curve"/>
      <point x="-7.0" y="-108.0" type="line"/>
      <point x="-7.0" y="-108.0"/>
      <point x="6.0" y="-111.0"/>
    </contour>
  </outline>
</glyph>
<glyph name="acutecomb" format="2">
  <unicode hex="0301"/>
  <anchor x="-0.0" y="482.0" name="_mark_above"/>
  <anchor x="0.0" y="482.0" name="_above"/>
  <outline>
    <contour>
      <point x="-82.0" y="597.0" type="line"/>
      <point x="33.0" y="730.0" type="line"/>
      <point x="110.0" y="665.0" type="line"/>
      <point x="-14.0" y="536.0" type="line"/>
    </contour>
  </outline>
</glyph>
<glyph name="circumflexcomb" format="2">
  <unicode hex="0302"/>
  <anchor x="0.0" y="710.0" name="mark_above"/>
  <anchor x="0.0" y="482.0" name="_above"/>
  <outline>
    <contour>
      <point x="-145.0" y="598.0" type="line"/>
      <point x="-30.0" y="718.0" type="line"/>
      <point x="30.0" y="718.0" type="line"/>
      <point x="145.0" y="598.0" type="line"/>
      <point x="77.0" y="536.0" type="line"/>
      <point x="0.0" y="620.0" type="line"/>
      <point x="-77.0" y="536.0" type="line"/>
    </contour>
  </outline>
</glyph>
<glyph name="tildecomb" format="2">
  <unicode hex="0303"/>
  <anchor x="0.0" y="699.0" name="mark_above"/>
  <anchor x="0.0" y="482.0" name="_mark_above"/>
  <anchor x="0.0" y="482.0" name="_above"/>
  <outline>
    <contour>
      <point x="-63.0" y="714.0" type="curve" smooth="yes"/>
      <point x="-40.0" y="714.0"/>
      <point x="-13.0" y="698.0"/>
      <point x="3.0" y="684.0" type="curve" smooth="yes"/>
      <point x="31.0" y="659.0"/>
      <point x="45.0" y="637.0"/>
      <point x="63.0" y="637.0" type="curve" smooth="yes"/>
      <point x="81.0" y="637.0"/>
      <point x="93.0" y="677.0"/>
      <point x="108.0" y="712.0" type="curve" smooth="yes"/>
      <point x="110.0" y="717.0" type="line"/>
      <point x="190.0" y="678.0" type="line"/>
      <point x="188.0" y="674.0" type="line" smooth="yes"/>
      <point x="169.0" y="631.0"/>
      <point x="134.0" y="538.0"/>
      <point x="63.0" y="538.0" type="curve" smooth="yes"/>
      <point x="42.0" y="538.0"/>
      <point x="14.0" y="557.0"/>
      <point x="-3.0" y="574.0" type="curve" smooth="yes"/>
      <point x="-26.0" y="596.0"/>
      <point x="-40.0" y="616.0"/>
      <point x="-58.0" y="616.0" type="curve" smooth="yes"/>
      <point x="-73.0" y="616.0"/>
      <point x="-95.0" y="574.0"/>
      <point x="-108.0" y="534.0" type="curve"/>
      <point x="-110.0" y="529.0" type="line"/>
      <point x="-189.0" y="567.0" type="line"/>
      <point x="-188.0" y="572.0" type="line"/>
      <point x="-171.0" y="619.0"/>
      <point x="-133.0" y="714.0"/>
    </contour>
  </outline>
</glyph>
<glyph name="macroncomb" format="2">
  <unicode hex="0304"/>
  <anchor x="-0.0" y="482.0" name="_mark_above"/>
  <anchor x="0.0" y="482.0" name="_above"/>
  <outline>
    <contour>
      <point x="-151.0" y="560.0" type="line"/>
      <point x="-151.0" y="665.0" type="line"/>
      <point x="151.0" y="665.0" type="line"/>
      <point x="151.0" y="560.0" type="line"/>
    </contour>
  </outline>
</glyph>
<glyph name="brevecomb" format="2">
  <unicode hex="0306"/>
  <anchor x="0.0" y="657.0" name="mark_above"/>
  <anchor x="0.0" y="482.0" name="_above"/>
  <outline>
    <contour>
      <point x="-185.0" y="655.0" type="curve"/>
      <point x="-98.0" y="699.0" type="line"/>
      <point x="-89.0" y="677.0"/>
      <point x="-58.0" y="628.0"/>
      <point x="0.0" y="628.0" type="curve" smooth="yes"/>
      <point x="58.0" y="628.0"/>
      <point x="89.0" y="677.0"/>
      <point x="98.0" y="699.0" type="curve"/>
      <point x="185.0" y="655.0" type="line"/>
      <point x="169.0" y="589.0"/>
      <point x="87.0" y="530.0"/>
      <point x="0.0" y="530.0" type="curve" smooth="yes"/>
      <point x="-88.0" y="530.0"/>
      <point x="-168.0" y="586.0"/>
    </contour>
  </outline>
</glyph>
<glyph name="dotaccentcomb" format="2">
  <unicode hex="0307"/>
  <anchor x="0.0" y="686.0" name="mark_above"/>
  <anchor x="0.0" y="482.0" name="_above"/>
  <outline>
    <contour>
      <point x="0.0" y="540.0" type="curve" smooth="yes"/>
      <point x="-39.0" y="540.0"/>
      <point x="-74.0" y="575.0"/>
      <point x="-74.0" y="614.0" type="curve" smooth="yes"/>
      <point x="-74.0" y="653.0"/>
      <point x="-39.0" y="688.0"/>
      <point x="0.0" y="688.0" type="curve" smooth="yes"/>
      <point x="39.0" y="688.0"/>
      <point x="74.0" y="653.0"/>
      <point x="74.0" y="614.0" type="curve" smooth="yes"/>
      <point x="74.0" y="575.0"/>
      <point x="39.0" y="540.0"/>
    </contour>
  </outline>
</glyph>
<glyph name="dieresiscomb" format="2">
  <unicode hex="0308"/>
  <anchor x="0.0" y="685.0" name="mark_above"/>
  <anchor x="0.0" y="482.0" name="_above"/>
  <outline>
    <contour>
      <point x="-109.0" y="540.0" type="curve" smooth="yes"/>
      <point x="-148.0" y="540.0"/>
      <point x="-183.0" y="575.0"/>
      <point x="-183.0" y="614.0" type="curve" smooth="yes"/>
      <point x="-183.0" y="653.0"/>
      <point x="-148.0" y="688.0"/>
      <point x="-109.0" y="688.0" type="curve" smooth="yes"/>
      <point x="-70.0" y="688.0"/>
      <point x="-35.0" y="653.0"/>
      <point x="-35.0" y="614.0" type="curve" smooth="yes"/>
      <point x="-35.0" y="575.0"/>
      <point x="-70.0" y="540.0"/>
    </contour>
    <contour>
      <point x="108.0" y="540.0" type="curve" smooth="yes"/>
      <point x="69.0" y="540.0"/>
      <point x="34.0" y="575.0"/>
      <point x="34.0" y="614.0" type="curve" smooth="yes"/>
      <point x="34.0" y="653.0"/>
      <point x="69.0" y="688.0"/>
      <point x="108.0" y="688.0" type="curve" smooth="yes"/>
      <point x="147.0" y="688.0"/>
      <point x="182.0" y="653.0"/>
      <point x="182.0" y="614.0" type="curve" smooth="yes"/>
      <point x="182.0" y="575.0"/>
      <point x="147.0" y="540.0"/>
    </contour>
  </outline>
</glyph>
<glyph name="hookabovecomb" format="2">
  <unicode hex="0309"/>
  <anchor x="-0.0" y="481.0" name="_mark_above"/>
  <anchor x="0.0" y="481.0" name="_above"/>
  <outline>
    <contour>
      <point x="-8.0" y="730.0" type="curve" smooth="yes"/>
      <point x="42.0" y="730.0"/>
      <point x="85.0" y="707.0"/>
      <point x="85.0" y="655.0" type="curve" smooth="yes"/>
      <point x="85.0" y="583.0"/>
      <point x="6.0" y="526.0"/>
      <point x="6.0" y="526.0" type="curve"/>
      <point x="-45.0" y="580.0" type="line"/>
      <point x="-45.0" y="580.0"/>
      <point x="-6.0" y="612.0"/>
      <point x="-6.0" y="636.0" type="curve" smooth="yes"/>
      <point x="-6.0" y="651.0"/>
      <point x="-18.0" y="654.0"/>
      <point x="-25.0" y="654.0" type="curve" smooth="yes"/>
      <point x="-34.0" y="654.0"/>
      <point x="-49.0" y="647.0"/>
      <point x="-59.0" y="641.0" type="curve"/>
      <point x="-89.0" y="705.0" type="line"/>
      <point x="-70.0" y="719.0"/>
      <point x="-36.0" y="730.0"/>
    </contour>
  </outline>
</glyph>
<glyph name="ringcomb" format="2">
  <unicode hex="030A"/>
  <anchor x="-0.0" y="706.0" name="mark_above"/>
  <anchor x="0.0" y="482.0" name="_above"/>
  <outline>
    <contour>
      <point x="33.0" y="630.0" type="curve" smooth="yes"/>
      <point x="33.0" y="647.0"/>
      <point x="19.0" y="663.0"/>
      <point x="0.0" y="663.0" type="curve" smooth="yes"/>
      <point x="-19.0" y="663.0"/>
      <point x="-34.0" y="647.0"/>
      <point x="-34.0" y="630.0" type="curve" smooth="yes"/>
      <point x="-34.0" y="613.0"/>
      <point x="-20.0" y="597.0"/>
      <point x="0.0" y="597.0" type="curve" smooth="yes"/>
      <point x="18.0" y="597.0"/>
      <point x="33.0" y="613.0"/>
    </contour>
    <contour>
      <point x="0.0" y="730.0" type="curve" smooth="yes"/>
      <point x="55.0" y="730.0"/>
      <point x="102.0" y="684.0"/>
      <point x="102.0" y="629.0" type="curve" smooth="yes"/>
      <point x="102.0" y="574.0"/>
      <point x="56.0" y="530.0"/>
      <point x="0.0" y="530.0" type="curve" smooth="yes"/>
      <point x="-55.0" y="530.0"/>
      <point x="-102.0" y="574.0"/>
      <point x="-102.0" y="629.0" type="curve" smooth="yes"/>
      <point x="-102.0" y="684.0"/>
      <point x="-56.0" y="730.0"/>
    </contour>
  </outline>
</glyph>
<glyph name="caroncomb" format="2">
  <unicode hex="030C"/>
  <anchor x="0.0" y="482.0" name="_mark_above"/>
  <anchor x="0.0" y="482.0" name="_above"/>
  <outline>
    <contour>
      <point x="-145.0" y="656.0" type="line"/>
      <point x="-77.0" y="718.0" type="line"/>
      <point x="0.0" y="634.0" type="line"/>
      <point x="77.0" y="718.0" type="line"/>
      <point x="145.0" y="656.0" type="line"/>
      <point x="30.0" y="536.0" type="line"/>
      <point x="-30.0" y="536.0" type="line"/>
    </contour>
  </outline>
</glyph>
<glyph name="commaabovecomb" format="2">
  <unicode hex="0313"/>
  <anchor x="0.0" y="482.0" name="_above"/>
  <outline>
    <contour>
      <point x="37.0" y="536.0" type="line"/>
      <point x="-59.0" y="554.0" type="line"/>
      <point x="-27.0" y="730.0" type="line"/>
      <point x="82.0" y="712.0" type="line"/>
    </contour>
  </outline>
</glyph>
<glyph name="horncomb" format="2">
  <unicode hex="031B"/>
  <anchor x="-102.0" y="371.0" name="_horn"/>
  <outline>
    <contour>
      <point x="-67.0" y="563.0" type="line"/>
      <point x="46.0" y="563.0" type="line"/>
      <point x="46.0" y="527.0" type="line" smooth="yes"/>
      <point x="46.0" y="506.0"/>
      <point x="46.0" y="467.0"/>
      <point x="31.0" y="437.0" type="curve" smooth="yes"/>
      <point x="-6.0" y="358.0"/>
      <point x="-58.0" y="346.0"/>
      <point x="-68.0" y="344.0" type="curve"/>
      <point x="-153.0" y="386.0" type="line"/>
      <point x="-125.0" y="406.0"/>
      <point x="-93.0" y="429.0"/>
      <point x="-75.0" y="472.0" type="curve" smooth="yes"/>
      <point x="-69.0" y="487.0"/>
      <point x="-67.0" y="525.0"/>
      <point x="-67.0" y="535.0" type="curve" smooth="yes"/>
    </contour>
  </outline>
</glyph>
<glyph name="cedillacomb" format="2">
  <unicode hex="0327"/>
  <anchor x="0.0" y="0.0" name="_cedilla"/>
  <outline>
    <contour>
      <point x="11.0" y="-184.0" type="curve" smooth="yes"/>
      <point x="36.0" y="-184.0"/>
      <point x="45.0" y="-171.0"/>
      <point x="45.0" y="-161.0" type="curve" smooth="yes"/>
      <point x="45.0" y="-137.0"/>
      <point x="-9.0" y="-126.0"/>
      <point x="-71.0" y="-108.0" type="curve"/>
      <point x="-41.0" y="0.0" type="line"/>
      <point x="52.0" y="0.0" type="line"/>
      <point x="37.0" y="-58.0" type="line"/>
      <point x="69.0" y="-71.0"/>
      <point x="123.0" y="-87.0"/>
      <point x="123.0" y="-156.0" type="curve" smooth="yes"/>
      <point x="123.0" y="-206.0"/>
      <point x="82.0" y="-261.0"/>
      <point x="9.0" y="-261.0" type="curve" smooth="yes"/>
      <point x="-31.0" y="-261.0"/>
      <point x="-76.0" y="-243.0"/>
      <point x="-121.0" y="-231.0" type="curve"/>
      <point x="-100.0" y="-157.0" type="line"/>
      <point x="-57.0" y="-171.0"/>
      <point x="-4.0" y="-184.0"/>
    </contour>
  </outline>
</glyph>
<glyph name="ogonekcomb" format="2">
  <unicode hex="0328"/>
  <anchor x="0.0" y="-0.0" name="_ogonek"/>
  <outline>
    <contour>
      <point x="50.0" y="-43.0" type="line"/>
      <point x="15.0" y="-60.0"/>
      <point x="-100.0" y="-103.0"/>
      <point x="-100.0" y="-144.0" type="curve" smooth="yes"/>
      <point x="-100.0" y="-160.0"/>
      <point x="-87.0" y="-173.0"/>
      <point x="-56.0" y="-173.0" type="curve" smooth="yes"/>
      <point x="-34.0" y="-173.0"/>
      <point x="-8.0" y="-165.0"/>
      <point x="-8.0" y="-165.0" type="curve"/>
      <point x="10.0" y="-250.0" type="line"/>
      <point x="-2.0" y="-254.0"/>
      <point x="-32.0" y="-262.0"/>
      <point x="-77.0" y="-262.0" type="curve" smooth="yes"/>
      <point x="-180.0" y="-262.0"/>
      <point x="-212.0" y="-208.0"/>
      <point x="-212.0" y="-168.0" type="curve" smooth="yes"/>
      <point x="-212.0" y="-114.0"/>
      <point x="-182.0" y="-85.0"/>
      <point x="-169.0" y="-72.0" type="curve" smooth="yes"/>
      <point x="-125.0" y="-31.0"/>
      <point x="-46.0" y="0.0"/>
      <point x="-46.0" y="0.0" type="curve"/>
      <point x="50.0" y="0.0" type="line"/>
    </contour>
  </outline>
</glyph>
<glyph name="pi" format="2">
  <advance width="664"/>
  <unicode hex="03C0"/>
  <outline>
    <contour>
      <point x="506.0" y="-10.0" type="curve" smooth="yes"/>
      <point x="418.0" y="-10.0"/>
      <point x="378.0" y="34.0"/>
      <point x="378.0" y="120.0" type="curve" smooth="yes"/>
      <point x="378.0" y="368.0" type="line"/>
      <point x="260.0" y="368.0" type="line"/>
      <point x="260.0" y="0.0" type="line"/>
      <point x="137.0" y="0.0" type="line"/>
      <point x="137.0" y="368.0" type="line"/>
      <point x="60.0" y="368.0" type="line"/>
      <point x="60.0" y="481.0" type="line"/>
      <point x="578.0" y="481.0" type="line"/>
      <point x="578.0" y="368.0" type="line"/>
      <point x="501.0" y="368.0" type="line"/>
      <point x="501.0" y="153.0" type="line" smooth="yes"/>
      <point x="501.0" y="129.0"/>
      <point x="504.0" y="110.0"/>
      <point x="512.0" y="98.0" type="curve" smooth="yes"/>
      <point x="520.0" y="86.0"/>
      <point x="534.0" y="80.0"/>
      <point x="554.0" y="80.0" type="curve" smooth="yes"/>
      <point x="560.0" y="80.0"/>
      <point x="571.0" y="82.0"/>
      <point x="585.0" y="85.0" type="curve"/>
      <point x="609.0" y="13.0" type="line"/>
      <point x="576.0" y="-2.0"/>
      <point x="542.0" y="-10.0"/>
    </contour>
  </outline>
</glyph>
<glyph name="Dje-cy" format="2">
  <advance width="719"/>
  <unicode hex="0402"/>
  <outline>
    <contour>
      <point x="301.0" y="579.0" type="line"/>
      <point x="301.0" y="418.0" type="line"/>
      <point x="339.0" y="427.0"/>
      <point x="378.0" y="432.0"/>
      <point x="415.0" y="432.0" type="curve" smooth="yes"/>
      <point x="557.0" y="432.0"/>
      <point x="679.0" y="362.0"/>
      <point x="679.0" y="205.0" type="curve" smooth="yes"/>
      <point x="679.0" y="11.0"/>
      <point x="481.0" y="0.0"/>
      <point x="386.0" y="0.0" type="curve"/>
      <point x="386.0" y="113.0" type="line"/>
      <point x="466.0" y="113.0"/>
      <point x="556.0" y="124.0"/>
      <point x="556.0" y="209.0" type="curve" smooth="yes"/>
      <point x="556.0" y="285.0"/>
      <point x="504.0" y="324.0"/>
      <point x="413.0" y="324.0" type="curve" smooth="yes"/>
      <point x="381.0" y="324.0"/>
      <point x="343.0" y="320.0"/>
      <point x="301.0" y="311.0" type="curve"/>
      <point x="301.0" y="0.0" type="line"/>
      <point x="178.0" y="0.0" type="line"/>
      <point x="178.0" y="579.0" type="line"/>
      <point x="0.0" y="579.0" type="line"/>
      <point x="0.0" y="692.0" type="line"/>
      <point x="544.0" y="692.0" type="line"/>
      <point x="544.0" y="579.0" type="line"/>
    </contour>
  </outline>
</glyph>
<glyph name="E-cy" format="2">
  <advance width="671"/>
  <unicode hex="0404"/>
  <outline>
    <contour>
      <point x="163.0" y="422.0" type="line"/>
      <point x="497.0" y="422.0" type="line"/>
      <point x="497.0" y="309.0" type="line"/>
      <point x="163.0" y="309.0" type="line"/>
    </contour>
    <component base="C"/>
  </outline>
</glyph>
<glyph name="Tshe-cy" format="2">
  <advance width="719"/>
  <unicode hex="040B"/>
  <outline>
    <contour>
      <point x="679.0" y="205.0" type="curve"/>
      <point x="679.0" y="205.0"/>
      <point x="679.0" y="205.0"/>
      <point x="679.0" y="0.0" type="curve"/>
      <point x="556.0" y="0.0" type="line"/>
      <point x="556.0" y="209.0" type="line" smooth="yes"/>
      <point x="556.0" y="282.0"/>
      <point x="504.0" y="319.0"/>
      <point x="413.0" y="319.0" type="curve" smooth="yes"/>
      <point x="381.0" y="319.0"/>
      <point x="343.0" y="314.0"/>
      <point x="301.0" y="304.0" type="curve"/>
      <point x="301.0" y="0.0" type="line"/>
      <point x="178.0" y="0.0" type="line"/>
      <point x="178.0" y="579.0" type="line"/>
      <point x="0.0" y="579.0" type="line"/>
      <point x="0.0" y="692.0" type="line"/>
      <point x="544.0" y="692.0" type="line"/>
      <point x="544.0" y="579.0" type="line"/>
      <point x="301.0" y="579.0" type="line"/>
      <point x="301.0" y="418.0" type="line"/>
      <point x="339.0" y="427.0"/>
      <point x="378.0" y="432.0"/>
      <point x="415.0" y="432.0" type="curve" smooth="yes"/>
      <point x="557.0" y="432.0"/>
      <point x="679.0" y="362.0"/>
    </contour>
  </outline>
</glyph>
<glyph name="Dzhe-cy" format="2">
  <advance width="710"/>
  <unicode hex="040F"/>
  <outline>
    <contour>
      <point x="414.0" y="0.0" type="line"/>
      <point x="414.0" y="-178.0" type="line"/>
      <point x="295.0" y="-178.0" type="line"/>
      <point x="295.0" y="0.0" type="line"/>
      <point x="70.0" y="0.0" type="line"/>
      <point x="70.0" y="692.0" type="line"/>
      <point x="193.0" y="692.0" type="line"/>
      <point x="193.0" y="113.0" type="line"/>
      <point x="517.0" y="113.0" type="line"/>
      <point x="517.0" y="692.0" type="line"/>
      <point x="640.0" y="692.0" type="line"/>
      <point x="640.0" y="0.0" type="line"/>
    </contour>
  </outline>
</glyph>
<glyph name="Be-cy" format="2">
  <advance width="601"/>
  <unicode hex="0411"/>
  <outline>
    <contour>
      <point x="90.0" y="692.0" type="line"/>
      <point x="489.0" y="692.0" type="line"/>
      <point x="489.0" y="579.0" type="line"/>
      <point x="90.0" y="579.0" type="line"/>
    </contour>
    <component base="Softsign-cy"/>
  </outline>
</glyph>
<glyph name="Ge-cy" format="2">
  <advance width="518"/>
  <unicode hex="0413"/>
  <anchor x="293.0" y="692.0" name="above"/>
  <outline>
    <contour>
      <point x="193.0" y="579.0" type="line"/>
      <point x="193.0" y="0.0" type="line"/>
      <point x="70.0" y="0.0" type="line"/>
      <point x="70.0" y="692.0" type="line"/>
      <point x="518.0" y="692.0" type="line"/>
      <point x="518.0" y="579.0" type="line"/>
    </contour>
  </outline>
</glyph>
<glyph name="De-cy" format="2">
  <advance width="789"/>
  <unicode hex="0414"/>
  <outline>
    <contour>
      <point x="35.0" y="113.0" type="line"/>
      <point x="157.0" y="113.0"/>
      <point x="157.0" y="236.0"/>
      <point x="157.0" y="372.0" type="curve" smooth="yes"/>
      <point x="157.0" y="692.0" type="line"/>
      <point x="673.0" y="692.0" type="line"/>
      <point x="673.0" y="113.0" type="line"/>
      <point x="754.0" y="113.0" type="line"/>
      <point x="754.0" y="-159.0" type="line"/>
      <point x="636.0" y="-159.0" type="line"/>
      <point x="636.0" y="0.0" type="line"/>
      <point x="153.0" y="0.0" type="line"/>
      <point x="153.0" y="-159.0" type="line"/>
      <point x="35.0" y="-159.0" type="line"/>
    </contour>
    <contour>
      <point x="280.0" y="311.0" type="line" smooth="yes"/>
      <point x="280.0" y="227.0"/>
      <point x="275.0" y="161.0"/>
      <point x="254.0" y="113.0" type="curve"/>
      <point x="550.0" y="113.0" type="line"/>
      <point x="550.0" y="579.0" type="line"/>
      <point x="280.0" y="579.0" type="line"/>
    </contour>
  </outline>
</glyph>
<glyph name="Zhe-cy" format="2">
  <advance width="921"/>
  <unicode hex="0416"/>
  <anchor x="460.0" y="692.0" name="above"/>
  <outline>
    <contour>
      <point x="227.0" y="617.0" type="curve" smooth="yes"/>
      <point x="279.0" y="531.0"/>
      <point x="311.0" y="444.0"/>
      <point x="399.0" y="423.0" type="curve"/>
      <point x="399.0" y="692.0" type="line"/>
      <point x="522.0" y="692.0" type="line"/>
      <point x="522.0" y="423.0" type="line"/>
      <point x="611.0" y="444.0"/>
      <point x="644.0" y="530.0"/>
      <point x="694.0" y="617.0" type="curve" smooth="yes"/>
      <point x="728.0" y="677.0"/>
      <point x="790.0" y="706.0"/>
      <point x="855.0" y="706.0" type="curve" smooth="yes"/>
      <point x="869.0" y="706.0"/>
      <point x="901.0" y="706.0"/>
      <point x="901.0" y="706.0" type="curve"/>
      <point x="901.0" y="587.0" type="line"/>
      <point x="901.0" y="587.0"/>
      <point x="876.0" y="587.0"/>
      <point x="860.0" y="587.0" type="curve" smooth="yes"/>
      <point x="814.0" y="587.0"/>
      <point x="792.0" y="566.0"/>
      <point x="781.0" y="543.0" type="curve" smooth="yes"/>
      <point x="755.0" y="486.0"/>
      <point x="716.0" y="408.0"/>
      <point x="664.0" y="361.0" type="curve"/>
      <point x="800.0" y="304.0"/>
      <point x="855.0" y="170.0"/>
      <point x="921.0" y="0.0" type="curve"/>
      <point x="783.0" y="0.0" type="line"/>
      <point x="719.0" y="213.0"/>
      <point x="629.0" y="292.0"/>
      <point x="522.0" y="310.0" type="curve"/>
      <point x="522.0" y="0.0" type="line"/>
      <point x="399.0" y="0.0" type="line"/>
      <point x="399.0" y="310.0" type="line"/>
      <point x="291.0" y="292.0"/>
      <point x="202.0" y="213.0"/>
      <point x="138.0" y="0.0" type="curve"/>
      <point x="0.0" y="0.0" type="line"/>
      <point x="66.0" y="170.0"/>
      <point x="122.0" y="305.0"/>
      <point x="257.0" y="361.0" type="curve"/>
      <point x="203.0" y="410.0"/>
      <point x="166.0" y="486.0"/>
      <point x="140.0" y="543.0" type="curve" smooth="yes"/>
      <point x="129.0" y="567.0"/>
      <point x="104.0" y="587.0"/>
      <point x="61.0" y="587.0" type="curve" smooth="yes"/>
      <point x="45.0" y="587.0"/>
      <point x="20.0" y="587.0"/>
      <point x="20.0" y="587.0" type="curve"/>
      <point x="20.0" y="706.0" type="line"/>
      <point x="34.0" y="706.0"/>
      <point x="52.0" y="706.0"/>
      <point x="66.0" y="706.0" type="curve" smooth="yes"/>
      <point x="132.0" y="706.0"/>
      <point x="195.0" y="671.0"/>
    </contour>
  </outline>
</glyph>
<glyph name="Ze-cy" format="2">
  <advance width="577"/>
  <unicode hex="0417"/>
  <anchor x="263.0" y="692.0" name="above"/>
  <outline>
    <contour>
      <point x="436.0" y="385.0" type="curve"/>
      <point x="503.0" y="351.0"/>
      <point x="542.0" y="276.0"/>
      <point x="542.0" y="193.0" type="curve" smooth="yes"/>
      <point x="542.0" y="57.0"/>
      <point x="413.0" y="-10.0"/>
      <point x="258.0" y="-10.0" type="curve" smooth="yes"/>
      <point x="162.0" y="-10.0"/>
      <point x="57.0" y="32.0"/>
      <point x="15.0" y="55.0" type="curve"/>
      <point x="54.0" y="160.0" type="line"/>
      <point x="106.0" y="134.0"/>
      <point x="186.0" y="103.0"/>
      <point x="267.0" y="103.0" type="curve" smooth="yes"/>
      <point x="353.0" y="103.0"/>
      <point x="419.0" y="128.0"/>
      <point x="419.0" y="203.0" type="curve" smooth="yes"/>
      <point x="419.0" y="279.0"/>
      <point x="352.0" y="306.0"/>
      <point x="244.0" y="309.0" type="curve" smooth="yes"/>
      <point x="161.0" y="309.0" type="line"/>
      <point x="161.0" y="422.0" type="line"/>
      <point x="244.0" y="422.0" type="line" smooth="yes"/>
      <point x="330.0" y="426.0"/>
      <point x="378.0" y="452.0"/>
      <point x="378.0" y="516.0" type="curve" smooth="yes"/>
      <point x="378.0" y="573.0"/>
      <point x="328.0" y="592.0"/>
      <point x="267.0" y="592.0" type="curve" smooth="yes"/>
      <point x="194.0" y="592.0"/>
      <point x="126.0" y="561.0"/>
      <point x="82.0" y="539.0" type="curve"/>
      <point x="39.0" y="641.0" type="line"/>
      <point x="79.0" y="669.0"/>
      <point x="166.0" y="705.0"/>
      <point x="258.0" y="705.0" type="curve" smooth="yes"/>
      <point x="397.0" y="705.0"/>
      <point x="501.0" y="650.0"/>
      <point x="501.0" y="526.0" type="curve" smooth="yes"/>
      <point x="501.0" y="461.0"/>
      <point x="472.0" y="416.0"/>
    </contour>
  </outline>
</glyph>
<glyph name="Ii-cy" format="2">
  <advance width="746"/>
  <unicode hex="0418"/>
  <anchor x="358.0" y="692.0" name="above"/>
  <outline>
    <contour>
      <point x="70.0" y="0.0" type="line"/>
      <point x="70.0" y="692.0" type="line"/>
      <point x="193.0" y="692.0" type="line"/>
      <point x="193.0" y="160.0" type="line"/>
      <point x="526.0" y="692.0" type="line"/>
      <point x="676.0" y="692.0" type="line"/>
      <point x="676.0" y="0.0" type="line"/>
      <point x="553.0" y="0.0" type="line"/>
      <point x="553.0" y="533.0" type="line"/>
      <point x="218.0" y="0.0" type="line"/>
    </contour>
  </outline>
</glyph>
<glyph name="Ka-cy" format="2">
  <advance width="589"/>
  <unicode hex="041A"/>
  <anchor x="315.0" y="692.0" name="above"/>
  <outline>
    <contour>
      <point x="335.0" y="391.0" type="curve"/>
      <point x="448.0" y="329.0"/>
      <point x="523.0" y="184.0"/>
      <point x="589.0" y="0.0" type="curve"/>
      <point x="454.0" y="0.0" type="line"/>
      <point x="388.0" y="212.0"/>
      <point x="302.0" y="292.0"/>
      <point x="193.0" y="309.0" type="curve"/>
      <point x="193.0" y="0.0" type="line"/>
      <point x="70.0" y="0.0" type="line"/>
      <point x="70.0" y="692.0" type="line"/>
      <point x="193.0" y="692.0" type="line"/>
      <point x="193.0" y="420.0" type="line"/>
      <point x="282.0" y="442.0"/>
      <point x="314.0" y="530.0"/>
      <point x="365.0" y="617.0" type="curve" smooth="yes"/>
      <point x="399.0" y="678.0"/>
      <point x="461.0" y="706.0"/>
      <point x="526.0" y="706.0" type="curve" smooth="yes"/>
      <point x="572.0" y="706.0" type="line"/>
      <point x="572.0" y="587.0" type="line"/>
      <point x="531.0" y="587.0" type="line" smooth="yes"/>
      <point x="476.0" y="587.0"/>
      <point x="461.0" y="563.0"/>
      <point x="452.0" y="543.0" type="curve" smooth="yes"/>
      <point x="428.0" y="493.0"/>
      <point x="394.0" y="424.0"/>
    </contour>
  </outline>
</glyph>
<glyph name="El-cy" format="2">
  <advance width="750"/>
  <unicode hex="041B"/>
  <anchor x="340.0" y="0.0" name="below"/>
  <anchor x="440.0" y="670.0" name="above"/>
  <anchor x="340.0" y="0.0" name="cedilla"/>
  <outline>
    <contour>
      <point x="680.0" y="692.0" type="line"/>
      <point x="680.0" y="0.0" type="line"/>
      <point x="557.0" y="0.0" type="line"/>
      <point x="557.0" y="579.0" type="line"/>
      <point x="277.0" y="579.0" type="line"/>
      <point x="277.0" y="311.0" type="line" smooth="yes"/>
      <point x="277.0" y="92.0"/>
      <point x="230.0" y="-10.0"/>
      <point x="10.0" y="-10.0" type="curve"/>
      <point x="10.0" y="103.0" type="line"/>
      <point x="59.0" y="107.0"/>
      <point x="101.0" y="117.0"/>
      <point x="126.0" y="148.0" type="curve" smooth="yes"/>
      <point x="154.0" y="182.0"/>
      <point x="154.0" y="291.0"/>
      <point x="154.0" y="372.0" type="curve" smooth="yes"/>
      <point x="154.0" y="692.0" type="line"/>
    </contour>
  </outline>
</glyph>
